M48
;Layer_Color=9474304
;FILE_FORMAT=2:5
INCH,LZ
;TYPE=PLATED
T1F00S00C0.02800
T2F00S00C0.03937
T3F00S00C0.05984
T4F00S00C0.06299
T5F00S00C0.12598
%
T01
X046083Y0087399
X047885Y0052219
X048491Y0191819
X049929Y0215659
X050841Y0224979
X05855Y0224999
X05899Y0201929
X061143Y0223459
X0551835Y0186671
T02
X045132Y0027449
Y0037449
Y0047449
Y0057449
Y0067449
Y0077449
X045134Y0097379
Y0107379
Y0117379
Y0127379
Y0137379
Y0147379
X049157Y0039499
Y0029499
Y0019499
X05185Y0031
X05285
X05385
Y0041
X05285
X05185
X063998Y0037289
Y0047289
Y0057289
Y0067289
Y0077289
Y0087289
Y0097289
X063989Y0113429
Y0123429
Y0133429
Y0143429
Y0153429
X063998Y0027289
X063989Y0163429
Y0173429
Y0183429
Y0193429
Y0203429
X061807Y0195499
Y0185499
Y0175499
X059907
Y0185499
Y0195499
X055Y0208589
Y0218589
X0528
Y0208589
X049007Y0209999
X048007
X047007
Y0199999
X048007
X049007
X045134Y0167379
Y0157379
T03
X062964Y0258209
X060964
X058682Y0258229
X056682
X054086Y0258419
X052086
T04
X047161Y0230846
Y0254469
X0453106Y0242657
T05
X046884Y0019589
X057911Y0019549
X064012Y0218389
X045131Y0218309
M30
