%TF.GenerationSoftware,Altium Limited,Altium Designer,21.1.1 (26)*%
G04 Layer_Color=32896*
%FSLAX26Y26*%
%MOIN*%
%TF.SameCoordinates,4322B393-1088-42A5-AEA8-B349F1DC340A*%
%TF.FilePolarity,Positive*%
%TF.FileFunction,Legend,Bot*%
%TF.Part,Single*%
G01*
G75*
%TA.AperFunction,NonConductor*%
%ADD35C,0.007874*%
%ADD36C,0.010000*%
%ADD37C,0.005906*%
D35*
X933071Y669291D02*
Y795276D01*
X854331Y669291D02*
X933071D01*
X854331D02*
Y795276D01*
X933071D01*
X944882Y669291D02*
Y795276D01*
X1023622D01*
Y669291D02*
Y795276D01*
X944882Y669291D02*
X1023622D01*
X1118110D02*
Y795276D01*
X1039370Y669291D02*
X1118110D01*
X1039370D02*
Y795276D01*
X1118110D01*
X1129921Y669291D02*
Y795276D01*
X1208661D01*
Y669291D02*
Y795276D01*
X1129921Y669291D02*
X1208661D01*
X1299213D02*
Y795276D01*
X1220472Y669291D02*
X1299213D01*
X1220472D02*
Y795276D01*
X1299213D01*
X976378Y1114173D02*
Y1240158D01*
X1055118D01*
Y1114173D02*
Y1240158D01*
X976378Y1114173D02*
X1055118D01*
X1314961Y807087D02*
Y901575D01*
X1133858D02*
X1314961D01*
X1133858Y807087D02*
Y901575D01*
Y807087D02*
X1314961D01*
X1133858Y913386D02*
X1275591D01*
X1133858D02*
Y992126D01*
X1275591D01*
Y913386D02*
Y992126D01*
X673228Y1011811D02*
X814961D01*
Y933071D02*
Y1011811D01*
X673228Y933071D02*
X814961D01*
X673228D02*
Y1011811D01*
X1129921Y1137795D02*
X1271653D01*
X1129921D02*
Y1216535D01*
X1271653D01*
Y1137795D02*
Y1216535D01*
X673228Y751968D02*
X814961D01*
X673228D02*
Y830709D01*
X814961D01*
Y751968D02*
Y830709D01*
X669291Y1208661D02*
X811024D01*
Y1129921D02*
Y1208661D01*
X669291Y1129921D02*
X811024D01*
X669291D02*
Y1208661D01*
X1133858Y1082677D02*
X1275591D01*
Y1003937D02*
Y1082677D01*
X1133858Y1003937D02*
X1275591D01*
X1133858D02*
Y1082677D01*
X1129921Y1330709D02*
X1271653D01*
Y1251969D02*
Y1330709D01*
X1129921Y1251969D02*
X1271653D01*
X1129921D02*
Y1330709D01*
X515748Y944882D02*
X641732D01*
X515748D02*
Y1023622D01*
X641732D01*
Y944882D02*
Y1023622D01*
X515748Y1114173D02*
X641732D01*
Y1035433D02*
Y1114173D01*
X515748Y1035433D02*
X641732D01*
X515748D02*
Y1114173D01*
Y1125984D02*
X641732D01*
X515748D02*
Y1204724D01*
X641732D01*
Y1125984D02*
Y1204724D01*
X688976Y921260D02*
X814961D01*
Y842520D02*
Y921260D01*
X688976Y842520D02*
X814961D01*
X688976D02*
Y921260D01*
X685039Y1039370D02*
X811024D01*
X685039D02*
Y1118110D01*
X811024D01*
Y1039370D02*
Y1118110D01*
X1129921Y1346457D02*
X1255906D01*
X1129921D02*
Y1425197D01*
X1255906D01*
Y1346457D02*
Y1425197D01*
X515748Y1330709D02*
X641732D01*
X515748D02*
Y1409449D01*
X641732D01*
Y1330709D02*
Y1409449D01*
X515748Y1236220D02*
X641732D01*
X515748D02*
Y1314961D01*
X641732D01*
Y1236220D02*
Y1314961D01*
X976378Y1330709D02*
X1102362D01*
Y1251968D02*
Y1330709D01*
X976378Y1251968D02*
X1102362D01*
X976378D02*
Y1330709D01*
Y1511811D02*
X1102362D01*
Y1433071D02*
Y1511811D01*
X976378Y1433071D02*
X1102362D01*
X976378D02*
Y1511811D01*
Y1421260D02*
X1102362D01*
Y1342520D02*
Y1421260D01*
X976378Y1342520D02*
X1102362D01*
X976378D02*
Y1421260D01*
Y1523622D02*
X1102362D01*
X976378D02*
Y1602362D01*
X1102362D01*
Y1523622D02*
Y1602362D01*
X1086614Y1070866D02*
Y1078740D01*
Y881890D02*
Y897638D01*
X1070866Y881890D02*
X1086614D01*
X881890D02*
X897638D01*
X881890D02*
Y897638D01*
Y1070866D02*
Y1086614D01*
X897638D01*
X1070866D02*
X1078740D01*
X1086614Y1078740D01*
D36*
X521188Y88740D02*
X541181Y108734D01*
Y128727D01*
X521188Y148721D01*
X451210Y128727D02*
X481200D01*
X491197Y118731D01*
Y98737D01*
X481200Y88740D01*
X451210D01*
X431217D02*
X411223Y108734D01*
Y128727D01*
X431217Y148721D01*
X281265Y88740D02*
X321252D01*
X281265Y128727D01*
Y138724D01*
X291262Y148721D01*
X311255D01*
X321252Y138724D01*
X261272D02*
X251275Y148721D01*
X231281D01*
X221285Y138724D01*
Y98737D01*
X231281Y88740D01*
X251275D01*
X261272Y98737D01*
Y138724D01*
X161304Y88740D02*
X201291D01*
X161304Y128727D01*
Y138724D01*
X171301Y148721D01*
X191294D01*
X201291Y138724D01*
X101323Y148721D02*
X121317Y138724D01*
X141310Y118731D01*
Y98737D01*
X131314Y88740D01*
X111320D01*
X101323Y98737D01*
Y108734D01*
X111320Y118731D01*
X141310D01*
X950819Y1534126D02*
Y1594107D01*
X920829D01*
X910832Y1584110D01*
Y1564116D01*
X920829Y1554120D01*
X950819D01*
X930825D02*
X910832Y1534126D01*
X890838D02*
X870845D01*
X880841D01*
Y1594107D01*
X890838Y1584110D01*
X840855D02*
X830858Y1594107D01*
X810864D01*
X800867Y1584110D01*
Y1574113D01*
X810864Y1564116D01*
X800867Y1554120D01*
Y1544123D01*
X810864Y1534126D01*
X830858D01*
X840855Y1544123D01*
Y1554120D01*
X830858Y1564116D01*
X840855Y1574113D01*
Y1584110D01*
X830858Y1564116D02*
X810864D01*
X1228347Y476378D02*
X1288327D01*
Y506368D01*
X1278330Y516365D01*
X1258337D01*
X1248340Y506368D01*
Y476378D01*
Y496372D02*
X1228347Y516365D01*
Y536359D02*
Y556352D01*
Y546355D01*
X1288327D01*
X1278330Y536359D01*
X1288327Y586342D02*
Y626330D01*
X1278330D01*
X1238343Y586342D01*
X1228347D01*
X950819Y1353126D02*
Y1413107D01*
X920829D01*
X910832Y1403110D01*
Y1383116D01*
X920829Y1373120D01*
X950819D01*
X930825D02*
X910832Y1353126D01*
X890838D02*
X870845D01*
X880841D01*
Y1413107D01*
X890838Y1403110D01*
X800867Y1413107D02*
X820861Y1403110D01*
X840855Y1383116D01*
Y1363123D01*
X830858Y1353126D01*
X810864D01*
X800867Y1363123D01*
Y1373120D01*
X810864Y1383116D01*
X840855D01*
X950819Y1443126D02*
Y1503107D01*
X920829D01*
X910832Y1493110D01*
Y1473116D01*
X920829Y1463120D01*
X950819D01*
X930825D02*
X910832Y1443126D01*
X890838D02*
X870845D01*
X880841D01*
Y1503107D01*
X890838Y1493110D01*
X800867Y1503107D02*
X840855D01*
Y1473116D01*
X820861Y1483113D01*
X810864D01*
X800867Y1473116D01*
Y1453123D01*
X810864Y1443126D01*
X830858D01*
X840855Y1453123D01*
X950819Y1262126D02*
Y1322107D01*
X920829D01*
X910832Y1312110D01*
Y1292116D01*
X920829Y1282120D01*
X950819D01*
X930825D02*
X910832Y1262126D01*
X890838D02*
X870845D01*
X880841D01*
Y1322107D01*
X890838Y1312110D01*
X810864Y1262126D02*
Y1322107D01*
X840855Y1292116D01*
X800867D01*
X1043307Y476378D02*
X1103288D01*
Y506368D01*
X1093291Y516365D01*
X1073297D01*
X1063301Y506368D01*
Y476378D01*
Y496372D02*
X1043307Y516365D01*
Y536359D02*
Y556352D01*
Y546355D01*
X1103288D01*
X1093291Y536359D01*
Y586342D02*
X1103288Y596339D01*
Y616333D01*
X1093291Y626330D01*
X1083294D01*
X1073297Y616333D01*
Y606336D01*
Y616333D01*
X1063301Y626330D01*
X1053304D01*
X1043307Y616333D01*
Y596339D01*
X1053304Y586342D01*
X1137795Y476378D02*
X1197776D01*
Y506368D01*
X1187779Y516365D01*
X1167786D01*
X1157789Y506368D01*
Y476378D01*
Y496372D02*
X1137795Y516365D01*
Y536359D02*
Y556352D01*
Y546355D01*
X1197776D01*
X1187779Y536359D01*
X1137795Y626330D02*
Y586342D01*
X1177782Y626330D01*
X1187779D01*
X1197776Y616333D01*
Y596339D01*
X1187779Y586342D01*
X862205Y476378D02*
X922185D01*
Y506368D01*
X912188Y516365D01*
X892195D01*
X882198Y506368D01*
Y476378D01*
Y496372D02*
X862205Y516365D01*
Y536359D02*
Y556352D01*
Y546355D01*
X922185D01*
X912188Y536359D01*
X862205Y586342D02*
Y606336D01*
Y596339D01*
X922185D01*
X912188Y586342D01*
X478008Y1242189D02*
Y1302169D01*
X448018D01*
X438021Y1292173D01*
Y1272179D01*
X448018Y1262182D01*
X478008D01*
X458014D02*
X438021Y1242189D01*
X418027D02*
X398034D01*
X408031D01*
Y1302169D01*
X418027Y1292173D01*
X368043D02*
X358047Y1302169D01*
X338053D01*
X328056Y1292173D01*
Y1252186D01*
X338053Y1242189D01*
X358047D01*
X368043Y1252186D01*
Y1292173D01*
X478008Y1337189D02*
Y1397169D01*
X448018D01*
X438021Y1387173D01*
Y1367179D01*
X448018Y1357182D01*
X478008D01*
X458014D02*
X438021Y1337189D01*
X418027Y1347186D02*
X408031Y1337189D01*
X388037D01*
X378040Y1347186D01*
Y1387173D01*
X388037Y1397169D01*
X408031D01*
X418027Y1387173D01*
Y1377176D01*
X408031Y1367179D01*
X378040D01*
X1450528Y1357126D02*
Y1417107D01*
X1420537D01*
X1410541Y1407110D01*
Y1387116D01*
X1420537Y1377120D01*
X1450528D01*
X1430534D02*
X1410541Y1357126D01*
X1390547Y1407110D02*
X1380550Y1417107D01*
X1360557D01*
X1350560Y1407110D01*
Y1397113D01*
X1360557Y1387116D01*
X1350560Y1377120D01*
Y1367123D01*
X1360557Y1357126D01*
X1380550D01*
X1390547Y1367123D01*
Y1377120D01*
X1380550Y1387116D01*
X1390547Y1397113D01*
Y1407110D01*
X1380550Y1387116D02*
X1360557D01*
X944882Y476378D02*
X1004862D01*
Y506368D01*
X994866Y516365D01*
X974872D01*
X964875Y506368D01*
Y476378D01*
Y496372D02*
X944882Y516365D01*
X1004862Y536359D02*
Y576346D01*
X994866D01*
X954879Y536359D01*
X944882D01*
X952756Y1157480D02*
Y1217461D01*
X922766D01*
X912769Y1207464D01*
Y1187471D01*
X922766Y1177474D01*
X952756D01*
X932762D02*
X912769Y1157480D01*
X852788Y1217461D02*
X872782Y1207464D01*
X892775Y1187471D01*
Y1167477D01*
X882779Y1157480D01*
X862785D01*
X852788Y1167477D01*
Y1177474D01*
X862785Y1187471D01*
X892775D01*
X792740Y557437D02*
Y617418D01*
X762750D01*
X752753Y607421D01*
Y587427D01*
X762750Y577431D01*
X792740D01*
X772747D02*
X752753Y557437D01*
X692773Y617418D02*
X732760D01*
Y587427D01*
X712766Y597424D01*
X702769D01*
X692773Y587427D01*
Y567434D01*
X702769Y557437D01*
X722763D01*
X732760Y567434D01*
X792740Y368437D02*
Y428418D01*
X762750D01*
X752753Y418421D01*
Y398427D01*
X762750Y388430D01*
X792740D01*
X772747D02*
X752753Y368437D01*
X702769D02*
Y428418D01*
X732760Y398427D01*
X692773D01*
X478008Y1132189D02*
Y1192169D01*
X448018D01*
X438021Y1182173D01*
Y1162179D01*
X448018Y1152182D01*
X478008D01*
X458014D02*
X438021Y1132189D01*
X418027Y1182173D02*
X408031Y1192169D01*
X388037D01*
X378040Y1182173D01*
Y1172176D01*
X388037Y1162179D01*
X398034D01*
X388037D01*
X378040Y1152182D01*
Y1142186D01*
X388037Y1132189D01*
X408031D01*
X418027Y1142186D01*
X478008Y1042189D02*
Y1102169D01*
X448018D01*
X438021Y1092173D01*
Y1072179D01*
X448018Y1062182D01*
X478008D01*
X458014D02*
X438021Y1042189D01*
X378040D02*
X418027D01*
X378040Y1082176D01*
Y1092173D01*
X388037Y1102169D01*
X408031D01*
X418027Y1092173D01*
X478008Y951189D02*
Y1011169D01*
X448018D01*
X438021Y1001173D01*
Y981179D01*
X448018Y971182D01*
X478008D01*
X458014D02*
X438021Y951189D01*
X418027D02*
X398034D01*
X408031D01*
Y1011169D01*
X418027Y1001173D01*
X1410541Y1312110D02*
X1420537Y1322107D01*
X1440531D01*
X1450528Y1312110D01*
Y1272123D01*
X1440531Y1262126D01*
X1420537D01*
X1410541Y1272123D01*
X1390547Y1262126D02*
X1370553D01*
X1380550D01*
Y1322107D01*
X1390547Y1312110D01*
X1300576Y1262126D02*
X1340563D01*
X1300576Y1302113D01*
Y1312110D01*
X1310573Y1322107D01*
X1330566D01*
X1340563Y1312110D01*
X1410541Y1064110D02*
X1420537Y1074107D01*
X1440531D01*
X1450528Y1064110D01*
Y1024123D01*
X1440531Y1014126D01*
X1420537D01*
X1410541Y1024123D01*
X1390547Y1014126D02*
X1370553D01*
X1380550D01*
Y1074107D01*
X1390547Y1064110D01*
X1340563Y1014126D02*
X1320570D01*
X1330566D01*
Y1074107D01*
X1340563Y1064110D01*
X752753Y701921D02*
X762750Y711918D01*
X782743D01*
X792740Y701921D01*
Y661934D01*
X782743Y651937D01*
X762750D01*
X752753Y661934D01*
X732760Y701921D02*
X722763Y711918D01*
X702769D01*
X692773Y701921D01*
Y691924D01*
X702769Y681927D01*
X692773Y671931D01*
Y661934D01*
X702769Y651937D01*
X722763D01*
X732760Y661934D01*
Y671931D01*
X722763Y681927D01*
X732760Y691924D01*
Y701921D01*
X722763Y681927D02*
X702769D01*
X752753Y323921D02*
X762750Y333918D01*
X782743D01*
X792740Y323921D01*
Y283934D01*
X782743Y273937D01*
X762750D01*
X752753Y283934D01*
X732760Y333918D02*
X692773D01*
Y323921D01*
X732760Y283934D01*
Y273937D01*
X1410541Y1198110D02*
X1420537Y1208107D01*
X1440531D01*
X1450528Y1198110D01*
Y1158123D01*
X1440531Y1148126D01*
X1420537D01*
X1410541Y1158123D01*
X1360557Y1148126D02*
Y1208107D01*
X1390547Y1178116D01*
X1350560D01*
X752753Y512921D02*
X762750Y522918D01*
X782743D01*
X792740Y512921D01*
Y472934D01*
X782743Y462937D01*
X762750D01*
X752753Y472934D01*
X732760Y512921D02*
X722763Y522918D01*
X702769D01*
X692773Y512921D01*
Y502924D01*
X702769Y492927D01*
X712766D01*
X702769D01*
X692773Y482930D01*
Y472934D01*
X702769Y462937D01*
X722763D01*
X732760Y472934D01*
X1410541Y974110D02*
X1420537Y984107D01*
X1440531D01*
X1450528Y974110D01*
Y934123D01*
X1440531Y924126D01*
X1420537D01*
X1410541Y934123D01*
X1350560Y924126D02*
X1390547D01*
X1350560Y964113D01*
Y974110D01*
X1360557Y984107D01*
X1380550D01*
X1390547Y974110D01*
X1410541Y883110D02*
X1420537Y893107D01*
X1440531D01*
X1450528Y883110D01*
Y843123D01*
X1440531Y833126D01*
X1420537D01*
X1410541Y843123D01*
X1390547Y833126D02*
X1370553D01*
X1380550D01*
Y893107D01*
X1390547Y883110D01*
D37*
X1114173Y1043307D02*
X1102366D01*
X1108270D01*
Y1078729D01*
X1114173Y1072825D01*
%TF.MD5,a5791de0be5fb2b875da9bfc2e7aaa53*%
M02*
