%TF.GenerationSoftware,Altium Limited,Altium Designer,21.1.1 (26)*%
G04 Layer_Color=128*
%FSLAX26Y26*%
%MOIN*%
%TF.SameCoordinates,4322B393-1088-42A5-AEA8-B349F1DC340A*%
%TF.FilePolarity,Positive*%
%TF.FileFunction,Paste,Bot*%
%TF.Part,Single*%
G01*
G75*
%TA.AperFunction,SMDPad,CuDef*%
%ADD25R,0.051181X0.027559*%
%ADD26R,0.035433X0.062992*%
%ADD27R,0.035433X0.051181*%
%ADD28R,0.027559X0.051181*%
%ADD29R,0.129921X0.129921*%
%ADD30R,0.023622X0.009055*%
%ADD31R,0.009055X0.023622*%
D25*
X893701Y769685D02*
D03*
Y694882D02*
D03*
X984252Y694882D02*
D03*
Y769685D02*
D03*
X1078740Y769685D02*
D03*
Y694882D02*
D03*
X1169291Y694882D02*
D03*
Y769685D02*
D03*
X1259842Y769685D02*
D03*
Y694882D02*
D03*
X1015748Y1139764D02*
D03*
Y1214567D02*
D03*
D26*
X1163386Y854331D02*
D03*
X1285433D02*
D03*
D27*
X1242126Y952756D02*
D03*
X1167323D02*
D03*
X706693Y972441D02*
D03*
X781496D02*
D03*
X1238189Y1177165D02*
D03*
X1163386D02*
D03*
X781496Y791339D02*
D03*
X706693D02*
D03*
X702756Y1169291D02*
D03*
X777559D02*
D03*
X1167323Y1043307D02*
D03*
X1242126D02*
D03*
X1163386Y1291339D02*
D03*
X1238189D02*
D03*
D28*
X616142Y984252D02*
D03*
X541339D02*
D03*
X541339Y1074803D02*
D03*
X616142D02*
D03*
X616142Y1165354D02*
D03*
X541339D02*
D03*
X714567Y881890D02*
D03*
X789370D02*
D03*
X785433Y1078740D02*
D03*
X710630D02*
D03*
X1230315Y1385827D02*
D03*
X1155512D02*
D03*
X616142Y1370079D02*
D03*
X541339D02*
D03*
X616142Y1275591D02*
D03*
X541339D02*
D03*
X1001969Y1291339D02*
D03*
X1076772D02*
D03*
X1001969Y1472441D02*
D03*
X1076772D02*
D03*
X1001969Y1381890D02*
D03*
X1076772D02*
D03*
X1076772Y1562992D02*
D03*
X1001968D02*
D03*
D29*
X984252Y984252D02*
D03*
D30*
X1078740Y1053149D02*
D03*
Y1033465D02*
D03*
Y1013779D02*
D03*
Y994095D02*
D03*
Y974409D02*
D03*
Y954725D02*
D03*
Y935039D02*
D03*
Y915355D02*
D03*
X889764D02*
D03*
Y935039D02*
D03*
Y954725D02*
D03*
Y974409D02*
D03*
Y994095D02*
D03*
Y1013779D02*
D03*
Y1033465D02*
D03*
Y1053149D02*
D03*
D31*
X1053149Y889764D02*
D03*
X1033465D02*
D03*
X1013779D02*
D03*
X994095D02*
D03*
X974409D02*
D03*
X954725D02*
D03*
X935039D02*
D03*
X915355D02*
D03*
Y1078740D02*
D03*
X935039D02*
D03*
X954725D02*
D03*
X974409D02*
D03*
X994095D02*
D03*
X1013779D02*
D03*
X1033465D02*
D03*
X1053149D02*
D03*
%TF.MD5,1c7ceb9c52641f808da6cf08a51f5f49*%
M02*
