%TF.GenerationSoftware,Altium Limited,Altium Designer,21.1.1 (26)*%
G04 Layer_Color=2752767*
%FSLAX26Y26*%
%MOIN*%
%TF.SameCoordinates,4322B393-1088-42A5-AEA8-B349F1DC340A*%
%TF.FilePolarity,Positive*%
%TF.FileFunction,Drawing*%
%TF.Part,Single*%
G01*
G75*
%TA.AperFunction,NonConductor*%
%ADD55C,0.005000*%
%ADD56C,0.006667*%
D55*
X1751654Y767402D02*
Y807402D01*
X1791654D01*
Y767402D01*
X1751654D01*
Y531181D02*
Y571181D01*
X1791654D01*
Y531181D01*
X1751654D01*
Y1397323D02*
Y1437323D01*
X1791654D01*
Y1397323D01*
X1751654D01*
Y1161102D02*
Y1201102D01*
X1791654D01*
Y1161102D01*
X1751654D01*
X176850D02*
Y1201102D01*
X216850D01*
Y1161102D01*
X176850D01*
Y767402D02*
Y807402D01*
X216850D01*
Y767402D01*
X176850D01*
D56*
X1409764Y1456693D02*
G03*
X1409764Y1456693I-20000J0D01*
G01*
X1033780Y1108268D02*
G03*
X1033780Y1108268I-20000J0D01*
G01*
X1008189Y1110236D02*
G03*
X1008189Y1110236I-20000J0D01*
G01*
X937323Y1275591D02*
G03*
X937323Y1275591I-20000J0D01*
G01*
X941260Y1145669D02*
G03*
X941260Y1145669I-20000J0D01*
G01*
X791654Y1460630D02*
G03*
X791654Y1460630I-20000J0D01*
G01*
X797559Y1218504D02*
G03*
X797559Y1218504I-20000J0D01*
G01*
X866457Y1043307D02*
G03*
X866457Y1043307I-20000J0D01*
G01*
X870394Y976378D02*
G03*
X870394Y976378I-20000J0D01*
G01*
Y935039D02*
G03*
X870394Y935039I-20000J0D01*
G01*
X801496Y740158D02*
G03*
X801496Y740158I-20000J0D01*
G01*
X791654Y607283D02*
G03*
X791654Y607283I-20000J0D01*
G01*
X492638Y1460433D02*
G03*
X492638Y1460433I-20000J0D01*
G01*
Y1610433D02*
G03*
X492638Y1610433I-20000J0D01*
G01*
Y515551D02*
G03*
X492638Y515551I-20000J0D01*
G01*
Y665551D02*
G03*
X492638Y665551I-20000J0D01*
G01*
X933386Y846457D02*
G03*
X933386Y846457I-20000J0D01*
G01*
X531811Y1370079D02*
G03*
X531811Y1370079I-20000J0D01*
G01*
Y1275591D02*
G03*
X531811Y1275591I-20000J0D01*
G01*
Y1165354D02*
G03*
X531811Y1165354I-20000J0D01*
G01*
Y1125984D02*
G03*
X531811Y1125984I-20000J0D01*
G01*
Y984252D02*
G03*
X531811Y984252I-20000J0D01*
G01*
X913701Y665354D02*
G03*
X913701Y665354I-20000J0D01*
G01*
X1004252D02*
G03*
X1004252Y665354I-20000J0D01*
G01*
X1098740D02*
G03*
X1098740Y665354I-20000J0D01*
G01*
X1329055Y769685D02*
G03*
X1329055Y769685I-20000J0D01*
G01*
X1130236Y1381890D02*
G03*
X1130236Y1381890I-20000J0D01*
G01*
X1175512Y1425197D02*
G03*
X1175512Y1425197I-20000J0D01*
G01*
X1183386Y1216535D02*
G03*
X1183386Y1216535I-20000J0D01*
G01*
X1220787Y992126D02*
G03*
X1220787Y992126I-20000J0D01*
G01*
X1183386Y901575D02*
G03*
X1183386Y901575I-20000J0D01*
G01*
X1114488Y870079D02*
G03*
X1114488Y870079I-20000J0D01*
G01*
X976693Y826772D02*
G03*
X976693Y826772I-20000J0D01*
G01*
X1189291Y799213D02*
G03*
X1189291Y799213I-20000J0D01*
G01*
X1382205Y511811D02*
G03*
X1382205Y511811I-20000J0D01*
G01*
X1126299Y1562992D02*
G03*
X1126299Y1562992I-20000J0D01*
G01*
X1287716Y1307087D02*
G03*
X1287716Y1307087I-20000J0D01*
G01*
X1035748Y1244094D02*
G03*
X1035748Y1244094I-20000J0D01*
G01*
X673543Y976378D02*
G03*
X673543Y976378I-20000J0D01*
G01*
X968819Y1019685D02*
G03*
X968819Y1019685I-20000J0D01*
G01*
X1035748D02*
G03*
X1035748Y1019685I-20000J0D01*
G01*
Y956693D02*
G03*
X1035748Y956693I-20000J0D01*
G01*
X968819D02*
G03*
X968819Y956693I-20000J0D01*
G01*
X1122362Y1070866D02*
G03*
X1122362Y1070866I-20000J0D01*
G01*
X791654Y1767716D02*
G03*
X791654Y1767716I-20000J0D01*
G01*
Y1732284D02*
G03*
X791654Y1732284I-20000J0D01*
G01*
Y1696850D02*
G03*
X791654Y1696850I-20000J0D01*
G01*
X602677Y822835D02*
G03*
X602677Y822835I-20000J0D01*
G01*
Y787402D02*
G03*
X602677Y787402I-20000J0D01*
G01*
Y751969D02*
G03*
X602677Y751969I-20000J0D01*
G01*
X1582992Y1228347D02*
G03*
X1582992Y1228347I-20000J0D01*
G01*
Y1161417D02*
G03*
X1582992Y1161417I-20000J0D01*
G01*
X1551496Y1102362D02*
G03*
X1551496Y1102362I-20000J0D01*
G01*
X1480630D02*
G03*
X1480630Y1102362I-20000J0D01*
G01*
X1449134Y1161417D02*
G03*
X1449134Y1161417I-20000J0D01*
G01*
Y1228347D02*
G03*
X1449134Y1228347I-20000J0D01*
G01*
X1582992Y740157D02*
G03*
X1582992Y740157I-20000J0D01*
G01*
Y807087D02*
G03*
X1582992Y807087I-20000J0D01*
G01*
X1551496Y866142D02*
G03*
X1551496Y866142I-20000J0D01*
G01*
X1480630D02*
G03*
X1480630Y866142I-20000J0D01*
G01*
X1449134Y807087D02*
G03*
X1449134Y807087I-20000J0D01*
G01*
Y740157D02*
G03*
X1449134Y740157I-20000J0D01*
G01*
X1287716Y1275591D02*
G03*
X1287716Y1275591I-20000J0D01*
G01*
X1287716Y1161417D02*
G03*
X1287716Y1161417I-20000J0D01*
G01*
Y1192913D02*
G03*
X1287716Y1192913I-20000J0D01*
G01*
X1291653Y1027559D02*
G03*
X1291653Y1027559I-20000J0D01*
G01*
Y1059055D02*
G03*
X1291653Y1059055I-20000J0D01*
G01*
X1291653Y937008D02*
G03*
X1291653Y937008I-20000J0D01*
G01*
Y968504D02*
G03*
X1291653Y968504I-20000J0D01*
G01*
X1334961Y874016D02*
G03*
X1334961Y874016I-20000J0D01*
G01*
Y834646D02*
G03*
X1334961Y834646I-20000J0D01*
G01*
X693228Y960630D02*
G03*
X693228Y960630I-20000J0D01*
G01*
X500315Y1559055D02*
G03*
X500315Y1559055I-20000J0D01*
G01*
Y1515748D02*
G03*
X500315Y1515748I-20000J0D01*
G01*
X334961Y1614173D02*
G03*
X334961Y1614173I-20000J0D01*
G01*
X413701D02*
G03*
X413701Y1614173I-20000J0D01*
G01*
Y1535433D02*
G03*
X413701Y1535433I-20000J0D01*
G01*
X334961D02*
G03*
X334961Y1535433I-20000J0D01*
G01*
Y1456693D02*
G03*
X334961Y1456693I-20000J0D01*
G01*
X413701D02*
G03*
X413701Y1456693I-20000J0D01*
G01*
X374331Y1496063D02*
G03*
X374331Y1496063I-20000J0D01*
G01*
Y1574803D02*
G03*
X374331Y1574803I-20000J0D01*
G01*
Y1417323D02*
G03*
X374331Y1417323I-20000J0D01*
G01*
X334961Y1377953D02*
G03*
X334961Y1377953I-20000J0D01*
G01*
X413701D02*
G03*
X413701Y1377953I-20000J0D01*
G01*
X374331Y1338583D02*
G03*
X374331Y1338583I-20000J0D01*
G01*
X334961Y1299213D02*
G03*
X334961Y1299213I-20000J0D01*
G01*
X413701D02*
G03*
X413701Y1299213I-20000J0D01*
G01*
Y354331D02*
G03*
X413701Y354331I-20000J0D01*
G01*
X334961D02*
G03*
X334961Y354331I-20000J0D01*
G01*
X374331Y393701D02*
G03*
X374331Y393701I-20000J0D01*
G01*
X413701Y433071D02*
G03*
X413701Y433071I-20000J0D01*
G01*
X334961D02*
G03*
X334961Y433071I-20000J0D01*
G01*
X374331Y472441D02*
G03*
X374331Y472441I-20000J0D01*
G01*
Y629921D02*
G03*
X374331Y629921I-20000J0D01*
G01*
Y551181D02*
G03*
X374331Y551181I-20000J0D01*
G01*
X413701Y511811D02*
G03*
X413701Y511811I-20000J0D01*
G01*
X334961D02*
G03*
X334961Y511811I-20000J0D01*
G01*
Y590551D02*
G03*
X334961Y590551I-20000J0D01*
G01*
X405827D02*
G03*
X405827Y590551I-20000J0D01*
G01*
Y669291D02*
G03*
X405827Y669291I-20000J0D01*
G01*
X334961D02*
G03*
X334961Y669291I-20000J0D01*
G01*
X500315Y570866D02*
G03*
X500315Y570866I-20000J0D01*
G01*
Y614173D02*
G03*
X500315Y614173I-20000J0D01*
G01*
%TF.MD5,8e401abef9f2eae6a499d727f8d1fd84*%
M02*
