M48
;Layer_Color=9474304
;FILE_FORMAT=2:5
INCH,LZ
;TYPE=PLATED
T1F00S00C0.00787
T2F00S00C0.00984
T3F00S00C0.01575
T5F00S00C0.03543
T6F00S00C0.04370
T7F00S00C0.04535
T8F00S00C0.10000
T9F00S00C0.12598
;TYPE=NON_PLATED
T10F00S00C0.04201
%
T01
X0365561Y0310413
X0369892
X0374223
X0378553
X0382884
Y0314743
X0378553
Y0319074
X0382884
Y0323405
X0378553
Y0327735
X0382884
X0374223
Y0323405
X0369892
Y0327735
X0365561
Y0323405
Y0319074
Y0314743
X0369892
X0374223
Y0319074
X0369892
X0349606Y0352165
Y0356496
X0345276
Y0352165
T02
X0340256Y0293701
X033061Y0306004
X0330512Y0311319
X0374606Y029439
X0385236Y0295571
X0385827Y029065
X0389764Y0286417
X0392717Y0301158
X0420177Y0293307
X0418504Y0287795
X0430118Y0281102
X0438878Y0282382
X0436614Y0285827
Y0306201
X0375591Y0267126
X0395276Y031565
X0405315Y0316437
X0405074Y0328822
X0398622Y0334646
X0409449Y0338583
X0436713Y0334843
X0433465Y032687
X0433071Y0316043
X0436811Y0357185
X0395669Y0368996
X0387795Y0363484
X0366142Y0364173
Y0353346
X0365157Y0346654
X0350689Y0340059
X0338583Y0339567
X0328613Y0339636
X0329331Y0349508
X0329134Y035748
X0344685Y0324803
X0353445Y0317618
X0351476Y0312697
T03
X032126Y0262992
X0317126Y0270374
X0323524Y0274902
X0333268Y0274016
X0334744Y0282283
X032874Y0267028
X0331693Y0258169
X0334252Y0250591
X0376181Y0261319
X0382874Y0266732
X0395669Y0294291
X0429035Y0293602
X0446555Y0294291
X0446457Y0284252
X0446654Y0274016
X0445276Y0347244
X0445374Y0358858
X0427264Y0361024
X0427461Y0352067
X0427165Y0370177
X0431791Y037687
X0422441Y0376969
X0417815Y033622
X0370079Y0377165
X035748Y0376476
X0345079Y0376673
X033376Y0376476
X0331201Y0324409
Y0317323
T05
X0349744Y0248538
X0359744
X0369744
X0379744
X0389744
X0399744
X0377854Y027563
Y028563
T06
X0300787Y0280276
Y0290276
Y0300276
Y0310276
Y0320276
Y0330276
Y0340276
T07
X0314961Y0360236
T08
X0250787Y0270276
Y0350276
T09
X0440945Y0251969
X0242913Y0248425
X0243209Y0371457
X0440945Y0370079
T10
X0389606Y0349346
Y0357346
X0409606Y0353346
M30
