M48
;Layer_Color=9474304
;FILE_FORMAT=2:5
INCH,LZ
;TYPE=PLATED
T1F00S00C0.01400
T2F00S00C0.01575
T3F00S00C0.03150
T4F00S00C0.03543
T5F00S00C0.04764
;TYPE=NON_PLATED
T6F00S00C0.02559
T7F00S00C0.04528
%
T01
X00265Y0038
X00465
X00565Y0018
X00965
X00865Y0038
X00965Y0058
X01265Y0038
X01465
X01365Y0018
X01405Y01105
X01365Y0138
X01165Y0098
X00765
X00865Y0118
X00565Y0138
X00165
X00265Y0118
X00465Y0078
X00365Y0058
X01565
X01665Y0038
X01865
X01765Y0018
X01865Y0078
Y0118
X01665
X01765Y0138
T02
X0041976Y0121323
X0043551Y0124079
X0046701
X004985
X0051425Y0121323
X0054575
X0057724
X0059299Y0124079
X0062449
X0064024Y0121323
X005615Y0124079
X0048276Y0121323
X0128976Y0122823
X0130551Y0125579
X0133701
X013685
X0135276Y0122823
X0138425
X0141575
X0144724
X014315Y0125579
X0146299
X0149449
X0151024Y0122823
T03
X00345Y0010866
Y0020866
Y0030866
T04
X0010126Y0027
X0018
T05
X00365Y01245
X0035323Y0140969
X0070677
X006926Y0123685
X01235Y0126
X0122323Y0142469
X0157677
X015626Y0125185
T06
X0067173Y0118764
X0154173Y0120264
T07
X0038827Y0118764
X0125827Y0120264
M30
