%TF.GenerationSoftware,Altium Limited,Altium Designer,21.1.1 (26)*%
G04 Layer_Color=65535*
%FSLAX26Y26*%
%MOIN*%
%TF.SameCoordinates,4322B393-1088-42A5-AEA8-B349F1DC340A*%
%TF.FilePolarity,Positive*%
%TF.FileFunction,Legend,Top*%
%TF.Part,Single*%
G01*
G75*
%TA.AperFunction,NonConductor*%
%ADD35C,0.007874*%
%ADD36C,0.010000*%
%ADD46C,0.011811*%
D35*
X617421Y688976D02*
G03*
X642421Y688976I12500J0D01*
G01*
X617421Y1633858D02*
G03*
X642421Y1633858I12500J0D01*
G01*
X814961Y1208661D02*
X1311024D01*
X814961Y1704724D02*
X1311024D01*
X814961Y1208661D02*
Y1330709D01*
X1311024Y1208661D02*
Y1330709D01*
Y1582677D02*
Y1704724D01*
X814961Y1582677D02*
Y1704724D01*
Y759842D02*
X1311024D01*
X814961Y263779D02*
X1311024D01*
Y637795D02*
Y759842D01*
X814961Y637795D02*
Y759842D01*
Y263779D02*
Y385827D01*
X1311024Y263779D02*
Y385827D01*
X551181Y688976D02*
X617421D01*
X642421D02*
X708662D01*
X551181Y492126D02*
X708662D01*
X551181Y1633858D02*
X617421D01*
X642421D02*
X708662D01*
X551181Y1437008D02*
X708662D01*
X582677Y724409D02*
Y850394D01*
X771654D01*
Y724409D02*
Y850394D01*
X582677Y724409D02*
X771654D01*
Y1669291D02*
Y1795276D01*
X582677Y1669291D02*
X771654D01*
X582677D02*
Y1795276D01*
X771654D01*
X1385827Y468504D02*
Y870079D01*
X1606299D01*
X1385827Y448819D02*
X1606299D01*
Y468504D02*
Y870079D01*
X1385827Y468504D02*
X1606299D01*
X1385827Y448819D02*
Y468504D01*
X1606299Y448819D02*
Y468504D01*
Y1098425D02*
Y1500000D01*
X1385827Y1098425D02*
X1606299D01*
X1385827Y1519685D02*
X1606299D01*
X1385827Y1098425D02*
Y1500000D01*
X1606299D01*
Y1519685D01*
X1385827Y1500000D02*
Y1519685D01*
D36*
X468504Y716535D02*
Y700793D01*
Y708664D01*
X515733D01*
X507861Y716535D01*
X476378Y1673228D02*
Y1657485D01*
Y1665357D01*
X523607D01*
X515735Y1673228D01*
X1707156Y437933D02*
X1687162D01*
X1677165Y427937D01*
Y387950D01*
X1687162Y377953D01*
X1707156D01*
X1717152Y387950D01*
Y427937D01*
X1707156Y437933D01*
X1737146D02*
Y387950D01*
X1747143Y377953D01*
X1767136D01*
X1777133Y387950D01*
Y437933D01*
X1797127D02*
X1837114D01*
X1817120D01*
Y377953D01*
X1857107D02*
X1877101D01*
X1867104D01*
Y437933D01*
X1857107Y427937D01*
X1695345Y1583603D02*
X1675351D01*
X1665354Y1573606D01*
Y1533619D01*
X1675351Y1523622D01*
X1695345D01*
X1705341Y1533619D01*
Y1573606D01*
X1695345Y1583603D01*
X1725335D02*
Y1533619D01*
X1735332Y1523622D01*
X1755325D01*
X1765322Y1533619D01*
Y1583603D01*
X1785315D02*
X1825303D01*
X1805309D01*
Y1523622D01*
X1885283D02*
X1845296D01*
X1885283Y1563609D01*
Y1573606D01*
X1875286Y1583603D01*
X1855293D01*
X1845296Y1573606D01*
X1740774Y943685D02*
X1730778Y953681D01*
X1710784D01*
X1700787Y943685D01*
Y903698D01*
X1710784Y893701D01*
X1730778D01*
X1740774Y903698D01*
Y923691D01*
X1720781D01*
X1760768Y893701D02*
Y953681D01*
X1800755Y893701D01*
Y953681D01*
X1820748D02*
Y893701D01*
X1850739D01*
X1860736Y903698D01*
Y943685D01*
X1850739Y953681D01*
X1820748D01*
X1736837Y1065732D02*
X1726841Y1075729D01*
X1706847D01*
X1696850Y1065732D01*
Y1025745D01*
X1706847Y1015748D01*
X1726841D01*
X1736837Y1025745D01*
Y1045738D01*
X1716844D01*
X1756831Y1015748D02*
Y1075729D01*
X1796818Y1015748D01*
Y1075729D01*
X1816812D02*
Y1015748D01*
X1846802D01*
X1856799Y1025745D01*
Y1065732D01*
X1846802Y1075729D01*
X1816812D01*
X158097Y672031D02*
X148101Y682028D01*
X128107D01*
X118110Y672031D01*
Y632044D01*
X128107Y622047D01*
X148101D01*
X158097Y632044D01*
Y652038D01*
X138104D01*
X178091Y622047D02*
Y682028D01*
X218078Y622047D01*
Y682028D01*
X238071D02*
Y622047D01*
X268062D01*
X278058Y632044D01*
Y672031D01*
X268062Y682028D01*
X238071D01*
X66929Y1313455D02*
X106916D01*
X86923Y1333448D02*
Y1293461D01*
X126910Y1343445D02*
Y1303458D01*
X146903Y1283465D01*
X166897Y1303458D01*
Y1343445D01*
X186890D02*
X206884D01*
X196887D01*
Y1283465D01*
X186890D01*
X206884D01*
X236874D02*
Y1343445D01*
X276861Y1283465D01*
Y1343445D01*
X626601Y1340706D02*
Y1380693D01*
X616605Y1390689D01*
X596611D01*
X586614Y1380693D01*
Y1340706D01*
X596611Y1330709D01*
X616605D01*
X606608Y1350702D02*
X626601Y1330709D01*
X616605D02*
X626601Y1340706D01*
X686582Y1330709D02*
X646595D01*
X686582Y1370696D01*
Y1380693D01*
X676585Y1390689D01*
X656592D01*
X646595Y1380693D01*
X634475Y407635D02*
Y447622D01*
X624479Y457618D01*
X604485D01*
X594488Y447622D01*
Y407635D01*
X604485Y397638D01*
X624479D01*
X614482Y417631D02*
X634475Y397638D01*
X624479D02*
X634475Y407635D01*
X654469Y397638D02*
X674462D01*
X664466D01*
Y457618D01*
X654469Y447622D01*
X1031496Y1792264D02*
Y1732284D01*
X1071483D01*
X1131464D02*
X1091477D01*
X1131464Y1772271D01*
Y1782267D01*
X1121467Y1792264D01*
X1101474D01*
X1091477Y1782267D01*
X1031496Y859193D02*
Y799213D01*
X1071483D01*
X1091477D02*
X1111470D01*
X1101474D01*
Y859193D01*
X1091477Y849196D01*
X1901565Y1208646D02*
X1885822D01*
X1893693D01*
Y1169289D01*
X1885822Y1161417D01*
X1877950D01*
X1870079Y1169289D01*
X1948793Y1208646D02*
X1933050Y1200775D01*
X1917307Y1185032D01*
Y1169289D01*
X1925179Y1161417D01*
X1940922D01*
X1948793Y1169289D01*
Y1177160D01*
X1940922Y1185032D01*
X1917307D01*
X1901565Y807071D02*
X1885822D01*
X1893693D01*
Y767714D01*
X1885822Y759842D01*
X1877950D01*
X1870079Y767714D01*
X1948793Y807071D02*
X1917307D01*
Y783457D01*
X1933050Y791328D01*
X1940922D01*
X1948793Y783457D01*
Y767714D01*
X1940922Y759842D01*
X1925179D01*
X1917307Y767714D01*
X1901565Y1444867D02*
X1885822D01*
X1893693D01*
Y1405509D01*
X1885822Y1397638D01*
X1877950D01*
X1870079Y1405509D01*
X1940922Y1397638D02*
Y1444867D01*
X1917308Y1421252D01*
X1948793D01*
X1901565Y574788D02*
X1885822D01*
X1893693D01*
Y535431D01*
X1885822Y527559D01*
X1877950D01*
X1870079Y535431D01*
X1917307Y566917D02*
X1925179Y574788D01*
X1940922D01*
X1948793Y566917D01*
Y559045D01*
X1940922Y551173D01*
X1933050D01*
X1940922D01*
X1948793Y543302D01*
Y535431D01*
X1940922Y527559D01*
X1925179D01*
X1917307Y535431D01*
X55108Y807071D02*
X39365D01*
X47236D01*
Y767714D01*
X39365Y759842D01*
X31494D01*
X23622Y767714D01*
X102337Y759842D02*
X70851D01*
X102337Y791328D01*
Y799200D01*
X94465Y807071D01*
X78722D01*
X70851Y799200D01*
X55108Y1200772D02*
X39365D01*
X47236D01*
Y1161415D01*
X39365Y1153543D01*
X31494D01*
X23622Y1161415D01*
X70851Y1153543D02*
X86594D01*
X78722D01*
Y1200772D01*
X70851Y1192901D01*
X1431475Y1603472D02*
X1421478Y1613469D01*
X1401485D01*
X1391488Y1603472D01*
Y1563485D01*
X1401485Y1553488D01*
X1421478D01*
X1431475Y1563485D01*
X1451469Y1553488D02*
X1471462D01*
X1461466D01*
Y1613469D01*
X1451469Y1603472D01*
X1501453D02*
X1511449Y1613469D01*
X1531443D01*
X1541440Y1603472D01*
Y1563485D01*
X1531443Y1553488D01*
X1511449D01*
X1501453Y1563485D01*
Y1603472D01*
X1431475Y954472D02*
X1421478Y964469D01*
X1401485D01*
X1391488Y954472D01*
Y914485D01*
X1401485Y904488D01*
X1421478D01*
X1431475Y914485D01*
X1451469D02*
X1461466Y904488D01*
X1481459D01*
X1491456Y914485D01*
Y954472D01*
X1481459Y964469D01*
X1461466D01*
X1451469Y954472D01*
Y944475D01*
X1461466Y934479D01*
X1491456D01*
X628475Y1879472D02*
X618479Y1889469D01*
X598485D01*
X588488Y1879472D01*
Y1839485D01*
X598485Y1829488D01*
X618479D01*
X628475Y1839485D01*
X688456Y1889469D02*
X668462Y1879472D01*
X648469Y1859478D01*
Y1839485D01*
X658466Y1829488D01*
X678459D01*
X688456Y1839485D01*
Y1849482D01*
X678459Y1859478D01*
X648469D01*
X628475Y934472D02*
X618479Y944469D01*
X598485D01*
X588488Y934472D01*
Y894485D01*
X598485Y884488D01*
X618479D01*
X628475Y894485D01*
X688456Y944469D02*
X648469D01*
Y914479D01*
X668462Y924475D01*
X678459D01*
X688456Y914479D01*
Y894485D01*
X678459Y884488D01*
X658466D01*
X648469Y894485D01*
D46*
X78740Y149583D02*
X102355D01*
X90547D01*
Y78740D01*
X78740D01*
X102355D01*
X185005Y137776D02*
X173198Y149583D01*
X149583D01*
X137776Y137776D01*
Y125969D01*
X149583Y114162D01*
X173198D01*
X185005Y102355D01*
Y90547D01*
X173198Y78740D01*
X149583D01*
X137776Y90547D01*
X208619Y149583D02*
Y78740D01*
X255848D01*
X326691Y149583D02*
X303077Y137776D01*
X279463Y114162D01*
Y90547D01*
X291270Y78740D01*
X314884D01*
X326691Y90547D01*
Y102355D01*
X314884Y114162D01*
X279463D01*
X397535Y78740D02*
X350306D01*
X397535Y125969D01*
Y137776D01*
X385727Y149583D01*
X362113D01*
X350306Y137776D01*
X421149D02*
X432956Y149583D01*
X456571D01*
X468378Y137776D01*
Y125969D01*
X456571Y114162D01*
X444763D01*
X456571D01*
X468378Y102355D01*
Y90547D01*
X456571Y78740D01*
X432956D01*
X421149Y90547D01*
X539221Y149583D02*
X515607Y137776D01*
X491992Y114162D01*
Y90547D01*
X503799Y78740D01*
X527414D01*
X539221Y90547D01*
Y102355D01*
X527414Y114162D01*
X491992D01*
X562835Y78740D02*
Y125969D01*
X586450Y149583D01*
X610064Y125969D01*
Y78740D01*
Y114162D01*
X562835D01*
X633679Y78740D02*
X657293D01*
X645486D01*
Y149583D01*
X633679Y137776D01*
X810787D02*
X798979Y149583D01*
X775365D01*
X763558Y137776D01*
Y90547D01*
X775365Y78740D01*
X798979D01*
X810787Y90547D01*
X846208Y78740D02*
X869823D01*
X881630Y90547D01*
Y114162D01*
X869823Y125969D01*
X846208D01*
X834401Y114162D01*
Y90547D01*
X846208Y78740D01*
X905244D02*
Y125969D01*
X940666D01*
X952473Y114162D01*
Y78740D01*
X976087Y125969D02*
X999702Y78740D01*
X1023316Y125969D01*
X1082352Y78740D02*
X1058738D01*
X1046931Y90547D01*
Y114162D01*
X1058738Y125969D01*
X1082352D01*
X1094159Y114162D01*
Y102355D01*
X1046931D01*
X1117774Y125969D02*
Y78740D01*
Y102355D01*
X1129581Y114162D01*
X1141388Y125969D01*
X1153195D01*
X1200424Y137776D02*
Y125969D01*
X1188617D01*
X1212231D01*
X1200424D01*
Y90547D01*
X1212231Y78740D01*
X1283075D02*
X1259460D01*
X1247653Y90547D01*
Y114162D01*
X1259460Y125969D01*
X1283075D01*
X1294882Y114162D01*
Y102355D01*
X1247653D01*
X1318496Y125969D02*
Y78740D01*
Y102355D01*
X1330303Y114162D01*
X1342111Y125969D01*
X1353918D01*
%TF.MD5,6bfa55130f0e9d8c47b45c2485fd2988*%
M02*
