%TF.GenerationSoftware,Altium Limited,Altium Designer,21.1.1 (26)*%
G04 Layer_Color=8421504*
%FSLAX26Y26*%
%MOIN*%
%TF.SameCoordinates,4322B393-1088-42A5-AEA8-B349F1DC340A*%
%TF.FilePolarity,Positive*%
%TF.FileFunction,Paste,Top*%
%TF.Part,Single*%
G01*
G75*
%TA.AperFunction,SMDPad,CuDef*%
%ADD10R,0.151575X0.216535*%
%ADD11R,0.047008X0.022008*%
%ADD12R,0.035433X0.098425*%
%ADD13R,0.100394X0.147638*%
D10*
X867126Y1456693D02*
D03*
X1258858D02*
D03*
X1258858Y511811D02*
D03*
X867126D02*
D03*
D11*
X530433Y665551D02*
D03*
Y615551D02*
D03*
Y565551D02*
D03*
Y515551D02*
D03*
X729409Y665551D02*
D03*
Y615551D02*
D03*
Y565551D02*
D03*
Y515551D02*
D03*
X530433Y1610433D02*
D03*
Y1560433D02*
D03*
Y1510433D02*
D03*
Y1460433D02*
D03*
X729409Y1610433D02*
D03*
Y1560433D02*
D03*
Y1510433D02*
D03*
Y1460433D02*
D03*
D12*
X738189Y787402D02*
D03*
X616142D02*
D03*
Y1732284D02*
D03*
X738189D02*
D03*
D13*
X1496063Y775591D02*
D03*
Y562992D02*
D03*
Y1192913D02*
D03*
Y1405512D02*
D03*
%TF.MD5,8eac834bde43758d9d1daeeacb8a6118*%
M02*
