M48
;Layer_Color=9474304
;FILE_FORMAT=2:5
INCH,LZ
;TYPE=PLATED
T1F00S00C0.01181
T3F00S00C0.02756
T4F00S00C0.03543
T5F00S00C0.04331
;TYPE=NON_PLATED
T6F00S00C0.04201
%
T01
X03435Y02428
X03582Y02373
Y02658
X03525Y02715
X03406Y02728
X03238Y03009
X03084Y02887
X0310465Y02808
X03083Y02778
X029225Y0275
X0292406Y0280906
X02958Y028615
X02993Y02917
X02888Y029355
X028065Y02959
X0276181Y029625
X02716Y02968
X0261144Y02992
X025605Y02949
X02571Y02892
X02539Y028175
X02533Y02771
X0249235
X02425Y02744
X02422Y02697
X02364Y0275717
X02268Y02794
X02213Y02745
X02191Y02828
X02195Y02885
X0231Y02919
X02387Y02912
X0244435Y02867
X02466Y028425
X0248622Y0297065
X02537Y03079
X02612Y03099
X02706
X02936Y03014
X02923Y026475
X0291309Y02616
X02843Y02436
X0281299Y024
X0268Y02494
X0262Y02447
X0264325Y0233125
X02445Y02321
X02432Y02394
X02366Y024
X02361Y02347
X023065Y02459
X02319Y02484
X0233Y0253388
X02217Y02457
X02162Y0237
X02142Y0234
Y0229935
X02094Y02246
X01992Y0226
X0205906Y02508
X01828Y02506
X0169Y02382
X0167988Y02112
X01624
X01645Y02717
X01795Y02758
X0190965Y02918
X01967Y02927
X0196512Y029595
X02007Y02949
X0205825Y0308325
X0219Y03036
X02581Y02744
X02513Y01986
X02686Y020085
X03081Y02345
X01496Y0246339
X01512Y02532
X01395Y02426
X01406Y02273
X01319Y02599
X01395Y02679
X01451Y02755
X01429Y03266
X01542Y03281
X01529Y03476
X0152525Y0361575
X02263Y03639
X0229647Y0363
X02302Y03541
X02361Y03515
X02429Y03569
X025136Y036186
X02726Y0359
X02683Y03497
X02712Y03466
X027845Y03427
X02807Y03401
X02815Y0323323
X02837Y0315
X02946Y0318
X02971Y03295
X02993Y03369
X0312Y0333
X03119Y03266
X0302Y03621
X02924Y03531
X02859Y03865
X02776Y03815
X02767Y03784
X0273Y03835
X02604Y03796
X022505Y03742
X02216Y03751
X02074Y03976
X0232Y03424
X02337Y03248
X02529Y03281
X0266102Y0324198
X02646Y03151
X0260729Y0316929
X02074Y03164
X02021Y03155
X0322835Y0334724
X03237Y03531
X0315492Y03795
T03
X017874Y0254134
Y0266339
T04
X0313622Y0193701
X0323622
X0303622
X0293622
X0283622
X0273622
X0263622
X0253622
X0243622
X0233622
X0236457Y0393701
X0246457
X0256457
X0266457
X0276457
X0286457
X0296457
X0306457
X0316457
X0326457
T05
X0124409Y0270236
Y0280236
Y0290236
Y0310236
T06
X0261102Y033222
Y034022
X0281102Y033622
M30
