%TF.GenerationSoftware,Altium Limited,Altium Designer,21.1.1 (26)*%
G04 Layer_Color=0*
%FSLAX26Y26*%
%MOIN*%
%TF.SameCoordinates,4322B393-1088-42A5-AEA8-B349F1DC340A*%
%TF.FilePolarity,Positive*%
%TF.FileFunction,Plated,1,6,PTH,Drill*%
%TF.Part,Single*%
G01*
G75*
%TA.AperFunction,ComponentDrill*%
%ADD52C,0.059055*%
%TA.AperFunction,ViaDrill,NotFilled*%
%ADD53C,0.007874*%
D52*
X1771654Y787402D02*
D03*
Y551181D02*
D03*
Y1417323D02*
D03*
Y1181102D02*
D03*
X196850D02*
D03*
Y787402D02*
D03*
D53*
X1389764Y1456693D02*
D03*
X1013779Y1108268D02*
D03*
X988189Y1110236D02*
D03*
X917323Y1275591D02*
D03*
X921260Y1145669D02*
D03*
X771654Y1460630D02*
D03*
X777559Y1218504D02*
D03*
X846457Y1043307D02*
D03*
X850394Y976378D02*
D03*
Y935039D02*
D03*
X781496Y740158D02*
D03*
X771654Y607283D02*
D03*
X472638Y1460433D02*
D03*
Y1610433D02*
D03*
Y515551D02*
D03*
Y665551D02*
D03*
X913386Y846457D02*
D03*
X511811Y1370079D02*
D03*
Y1275591D02*
D03*
Y1165354D02*
D03*
Y1125984D02*
D03*
Y984252D02*
D03*
X893701Y665354D02*
D03*
X984252D02*
D03*
X1078740D02*
D03*
X1309055Y769685D02*
D03*
X1110236Y1381890D02*
D03*
X1155512Y1425197D02*
D03*
X1163386Y1216535D02*
D03*
X1200787Y992126D02*
D03*
X1163386Y901575D02*
D03*
X1094488Y870079D02*
D03*
X956693Y826772D02*
D03*
X1169291Y799213D02*
D03*
X1362205Y511811D02*
D03*
X1106299Y1562992D02*
D03*
X1267716Y1307087D02*
D03*
X1015748Y1244094D02*
D03*
X653543Y976378D02*
D03*
X948819Y1019685D02*
D03*
X1015748D02*
D03*
Y956693D02*
D03*
X948819D02*
D03*
X1102362Y1070866D02*
D03*
X771654Y1767716D02*
D03*
Y1732284D02*
D03*
Y1696850D02*
D03*
X582677Y822835D02*
D03*
Y787402D02*
D03*
Y751969D02*
D03*
X1562992Y1228347D02*
D03*
Y1161417D02*
D03*
X1531496Y1102362D02*
D03*
X1460630D02*
D03*
X1429134Y1161417D02*
D03*
Y1228347D02*
D03*
X1562992Y740157D02*
D03*
Y807087D02*
D03*
X1531496Y866142D02*
D03*
X1460630D02*
D03*
X1429134Y807087D02*
D03*
Y740157D02*
D03*
X1267716Y1275591D02*
D03*
X1267716Y1161417D02*
D03*
Y1192913D02*
D03*
X1271653Y1027559D02*
D03*
Y1059055D02*
D03*
X1271653Y937008D02*
D03*
Y968504D02*
D03*
X1314961Y874016D02*
D03*
Y834646D02*
D03*
X673228Y960630D02*
D03*
X480315Y1559055D02*
D03*
Y1515748D02*
D03*
X314961Y1614173D02*
D03*
X393701D02*
D03*
Y1535433D02*
D03*
X314961D02*
D03*
Y1456693D02*
D03*
X393701D02*
D03*
X354331Y1496063D02*
D03*
Y1574803D02*
D03*
Y1417323D02*
D03*
X314961Y1377953D02*
D03*
X393701D02*
D03*
X354331Y1338583D02*
D03*
X314961Y1299213D02*
D03*
X393701D02*
D03*
Y354331D02*
D03*
X314961D02*
D03*
X354331Y393701D02*
D03*
X393701Y433071D02*
D03*
X314961D02*
D03*
X354331Y472441D02*
D03*
Y629921D02*
D03*
Y551181D02*
D03*
X393701Y511811D02*
D03*
X314961D02*
D03*
Y590551D02*
D03*
X385827D02*
D03*
Y669291D02*
D03*
X314961D02*
D03*
X480315Y570866D02*
D03*
Y614173D02*
D03*
%TF.MD5,a18b340114f4c4bf82ec08f97c272123*%
M02*
