%TF.GenerationSoftware,Altium Limited,Altium Designer,21.1.1 (26)*%
G04 Layer_Physical_Order=5*
G04 Layer_Color=128*
%FSLAX26Y26*%
%MOIN*%
%TF.SameCoordinates,4322B393-1088-42A5-AEA8-B349F1DC340A*%
%TF.FilePolarity,Negative*%
%TF.FileFunction,Copper,L5,Inr,Plane*%
%TF.Part,Single*%
G01*
G75*
%TA.AperFunction,NonConductor*%
%ADD17C,0.040000*%
%TA.AperFunction,ComponentPad*%
G04:AMPARAMS|DCode=18|XSize=118.425mil|YSize=118.425mil|CornerRadius=0mil|HoleSize=0mil|Usage=FLASHONLY|Rotation=0.000|XOffset=0mil|YOffset=0mil|HoleType=Round|Shape=Relief|Width=39.37mil|Gap=10mil|Entries=4|*
%AMTHD18*
7,0,0,0.118425,0.098425,0.039370,45*
%
%ADD18THD18*%
%ADD19C,0.099055*%
%TA.AperFunction,ViaPad*%
%ADD20C,0.047874*%
D17*
X0Y0D02*
Y1968504D01*
X1968504D01*
Y0D02*
Y1968504D01*
X0Y0D02*
X1968504D01*
D18*
X1771654Y787402D02*
D03*
Y1181102D02*
D03*
X196850Y787402D02*
D03*
D19*
X1771654Y551181D02*
D03*
Y1417323D02*
D03*
X196850Y1181102D02*
D03*
D20*
X1389764Y1456693D02*
D03*
X1013779Y1108268D02*
D03*
X917323Y1275591D02*
D03*
X921260Y1145669D02*
D03*
X771654Y1460630D02*
D03*
X777559Y1218504D02*
D03*
X846457Y1043307D02*
D03*
X850394Y976378D02*
D03*
Y935039D02*
D03*
X781496Y740158D02*
D03*
X771654Y607283D02*
D03*
X472638Y1460433D02*
D03*
Y1610433D02*
D03*
Y515551D02*
D03*
Y665551D02*
D03*
X913386Y846457D02*
D03*
X511811Y1370079D02*
D03*
Y1275591D02*
D03*
Y1165354D02*
D03*
Y1125984D02*
D03*
Y984252D02*
D03*
X893701Y665354D02*
D03*
X1078740D02*
D03*
X1110236Y1381890D02*
D03*
X1155512Y1425197D02*
D03*
X1163386Y1216535D02*
D03*
X1200787Y992126D02*
D03*
X1163386Y901575D02*
D03*
X956693Y826772D02*
D03*
X1169291Y799213D02*
D03*
X1362205Y511811D02*
D03*
X1102362Y1070866D02*
D03*
%TF.MD5,7b2c0dedbede6008a8e8d964b1625f46*%
M02*
