%TF.GenerationSoftware,Altium Limited,Altium Designer,21.1.1 (26)*%
G04 Layer_Color=32896*
%FSLAX45Y45*%
%MOMM*%
%TF.SameCoordinates,A571FDB6-1603-443E-89CE-D3154019B6F4*%
%TF.FilePolarity,Positive*%
%TF.FileFunction,Legend,Bot*%
%TF.Part,Single*%
G01*
G75*
%TA.AperFunction,NonConductor*%
%ADD55C,0.20000*%
D55*
X6922471Y7005255D02*
Y7035245D01*
Y7020250D01*
X6832500D01*
Y7005255D01*
Y7035245D01*
Y7080231D02*
X6922471D01*
X6892480Y7110221D01*
X6922471Y7140211D01*
X6832500D01*
X6847495Y7170202D02*
X6832500Y7185197D01*
Y7215187D01*
X6847495Y7230182D01*
X6922471D01*
Y7170202D02*
X6847495D01*
Y7350143D02*
X6862490D01*
X6877485Y7365138D01*
X6892480Y7350143D01*
X6907476D01*
X6922471Y7365138D01*
Y7380134D01*
X6907476Y7395129D01*
X6892480D01*
X6877485Y7380134D01*
X6862490Y7395129D01*
X6847495D01*
X6832500Y7380134D01*
Y7365138D01*
X6847495Y7350143D01*
X6877485Y7365138D02*
Y7380134D01*
Y7410124D02*
X6862490Y7395129D01*
X6877485Y7530085D02*
Y7575070D01*
Y7530085D01*
X6922471D02*
X6832500D01*
Y7575070D01*
X6847495Y7590066D01*
X6862490D01*
X6877485Y7575070D01*
X6892480Y7590066D01*
X6907476D01*
X6922471Y7575070D01*
Y7530085D01*
X7000000Y7510096D02*
X7089971D01*
Y7555082D01*
X7074976Y7570077D01*
X7044985D01*
X7029990Y7555082D01*
Y7510096D01*
Y7480106D02*
X7074976D01*
X7089971Y7465111D01*
X7074976Y7450116D01*
X7029990D01*
X7074976D01*
X7089971Y7435121D01*
Y7420126D01*
X7029990D01*
Y7375140D02*
Y7345150D01*
Y7360145D01*
X7119961D01*
Y7375140D01*
Y7345150D01*
X7089971Y7615062D02*
Y7645053D01*
X7074976Y7660048D01*
X7029990D01*
Y7615062D01*
X7044985Y7600067D01*
X7059981Y7615062D01*
Y7660048D01*
X7074976Y7690038D02*
X7044985D01*
X7029990Y7705033D01*
Y7750019D01*
X7089971D02*
Y7705033D01*
X7074976Y7690038D01*
X7089971Y7780009D02*
Y7809999D01*
Y7795004D01*
Y7780009D01*
Y7795004D02*
X7044985D01*
X7029990Y7809999D01*
Y7854985D02*
X7119961D01*
X7029990Y7914965D01*
X7119961D01*
Y8094907D02*
X7029990D01*
Y8049922D01*
X7044985Y8034927D01*
X7074976D01*
X7089971Y8049922D01*
Y8094907D01*
X7074976Y8124897D02*
X7089971Y8139893D01*
Y8169883D01*
X7074976Y8184878D01*
X7059981D01*
Y8124897D01*
X7044985D02*
X7074976D01*
X7044985D02*
X7029990Y8139893D01*
Y8169883D01*
X6922471Y8159881D02*
X6832500D01*
Y8204866D01*
X6847495Y8219862D01*
X6862490D01*
X6877485Y8204866D01*
Y8159881D01*
Y8204866D01*
X6892480Y8219862D01*
X6907476D01*
X6922471Y8204866D01*
Y8159881D01*
X6892480Y8264847D02*
X6877485Y8249852D01*
X6847495D01*
X6832500Y8264847D01*
Y8294837D01*
X6847495Y8309833D01*
X6877485D01*
X6892480Y8294837D01*
Y8264847D01*
Y8354818D02*
Y8384808D01*
X6877485Y8399803D01*
X6832500D01*
Y8354818D01*
X6847495Y8339823D01*
X6862490Y8354818D01*
Y8399803D01*
Y8429794D02*
X6877485Y8444789D01*
X6892480Y8459784D01*
Y8474779D01*
Y8429794D02*
X6832500D01*
X6862490D01*
X6877485Y8519765D02*
X6892480Y8534760D01*
Y8579745D01*
X6922471D02*
X6832500D01*
Y8534760D01*
X6847495Y8519765D01*
X6877485D01*
X6847495Y8039920D02*
X6832500Y8024925D01*
Y7994934D01*
X6847495Y7979939D01*
X6907476D01*
X6922471Y7994934D01*
Y8024925D01*
X6907476Y8039920D01*
X6847495D01*
Y7949949D02*
X6832500Y7934954D01*
Y7904964D01*
X6847495Y7889968D01*
X6862490D01*
X6877485Y7904964D01*
X6892480Y7889968D01*
X6907476D01*
X6922471Y7904964D01*
Y7934954D01*
X6907476Y7949949D01*
X6892480D01*
X6877485Y7934954D01*
X6862490Y7949949D01*
X6847495D01*
X6654978Y7951617D02*
X6643315Y7939954D01*
Y7916629D02*
X6596663D01*
X6585000Y7904966D01*
Y7881640D01*
X6596663Y7869977D01*
X6643315D01*
X6654978Y7881640D01*
Y7904966D01*
X6643315Y7916629D01*
X6654978Y7951617D02*
Y7974943D01*
X6643315Y7986606D01*
X6631652D01*
X6585000Y7939954D01*
Y7986606D01*
X6596663Y8009932D02*
X6585000Y8021595D01*
Y8044921D01*
X6596663Y8056584D01*
X6608326D01*
X6619989Y8044921D01*
Y8009932D01*
X6596663D01*
X6585000Y7846651D02*
Y7799999D01*
X6631652Y7846651D01*
X6643315D01*
X6654978Y7834988D01*
Y7811662D01*
X6643315Y7799999D01*
X6631652Y7695033D02*
X6654978Y7671707D01*
X6631652Y7648381D02*
Y7613393D01*
X6619989Y7601730D01*
X6596663D01*
X6585000Y7613393D01*
Y7648381D01*
Y7671707D02*
X6608326Y7695033D01*
X6631652D01*
X6832500Y7710027D02*
X6922471D01*
Y7755012D01*
X6907476Y7770007D01*
X6877485D01*
X6862490Y7755012D01*
Y7710027D01*
X6892480Y7650046D02*
X6922471Y7680036D01*
X6832500D01*
Y7620056D02*
X6922471D01*
X6892480Y7650046D01*
X6907476Y7799998D02*
X6922471Y7814993D01*
Y7844983D01*
X6907476Y7859978D01*
X6892480D01*
X6832500Y7799998D01*
Y7859978D01*
Y7410124D02*
X6847495Y7395129D01*
X6631652Y7543415D02*
X6654978Y7566741D01*
X6631652Y7543415D02*
X6608326D01*
X6585000Y7566741D01*
X7089971Y7795004D02*
X7104966D01*
X7089971Y7959951D02*
X7074976Y7944956D01*
X7044985D01*
X7029990Y7959951D01*
Y7989941D01*
X7044985Y8004936D01*
X7074976D01*
X7089971Y7989941D01*
Y7959951D01*
X6877485Y7934954D02*
Y7904964D01*
X6643315Y8033258D02*
X6619989Y8009932D01*
X6643315Y8033258D02*
X6654978Y8056584D01*
X8845000Y6592517D02*
Y6577522D01*
X8859995D01*
Y6592517D01*
X8845000D01*
X8859995Y6547531D02*
X8845000Y6532536D01*
Y6502546D01*
X8859995Y6487551D01*
X8889985Y6517541D02*
Y6532536D01*
Y6517541D01*
Y6532536D02*
X8874990Y6547531D01*
X8859995D01*
X8889985Y6532536D02*
X8904980Y6547531D01*
X8919975D01*
X8934970Y6532536D01*
Y6502546D01*
X8919975Y6487551D01*
X9105000Y6510039D02*
X9194971D01*
Y6555024D01*
X9179976Y6570019D01*
X9149985D01*
X9134990Y6555024D01*
Y6510039D01*
X9105000Y6600010D02*
X9164980D01*
X9194971Y6630000D01*
X9164980Y6659990D01*
X9105000D01*
X9149985D01*
Y6600010D01*
X9345000Y6595009D02*
X9404980D01*
X9434970Y6625000D01*
X9404980Y6654990D01*
X9345000D01*
X9389985D01*
Y6595009D01*
Y6565019D02*
X9374990Y6550024D01*
Y6505039D01*
X9345000D02*
X9434970D01*
Y6550024D01*
X9419975Y6565019D01*
X9389985D01*
X9610000Y6585009D02*
X9669980D01*
X9699971Y6614999D01*
X9669980Y6644990D01*
X9610000D01*
X9654985D01*
Y6585009D01*
Y6555019D02*
X9639990Y6540024D01*
Y6495038D01*
X9610000D02*
X9699971D01*
Y6540024D01*
X9684976Y6555019D01*
X9654985D01*
X9855000Y6590010D02*
X9914980D01*
X9944971Y6620000D01*
X9914980Y6649990D01*
X9855000D01*
X9899985D01*
Y6590010D01*
Y6560019D02*
X9884990Y6545024D01*
Y6500039D01*
X9855000D02*
X9944971D01*
Y6545024D01*
X9929976Y6560019D01*
X9899985D01*
X10120000Y6545024D02*
X10134995Y6560019D01*
X10164986D01*
Y6530029D01*
X10194976Y6560019D02*
X10209971Y6545024D01*
Y6515034D01*
X10194976Y6500039D01*
X10134995D01*
X10120000Y6515034D01*
Y6545024D01*
Y6590009D02*
X10209971D01*
X10120000Y6649990D01*
X10209971D01*
Y6679980D02*
X10120000D01*
Y6724966D01*
X10134995Y6739961D01*
X10194976D01*
X10209971Y6724966D01*
Y6679980D01*
X9944971Y6679981D02*
Y6739961D01*
X9929976D01*
X9869995Y6679981D01*
X9855000D01*
X9684976Y6704970D02*
X9654985Y6674980D01*
X9624995D01*
X9610000Y6689975D01*
Y6719965D01*
X9624995Y6734961D01*
X9639990D01*
X9654985Y6719965D01*
Y6674980D01*
X9684976Y6704970D02*
X9699971Y6734961D01*
X9434970Y6744961D02*
Y6684980D01*
X9389985D01*
X9404980Y6714971D01*
Y6729966D01*
X9389985Y6744961D01*
X9359995D01*
X9345000Y6729966D01*
Y6699975D01*
X9359995Y6684980D01*
X9194971Y6734966D02*
X9149985Y6689981D01*
Y6749961D01*
X9194971Y6734966D02*
X9105000D01*
X8934970Y6742468D02*
X8874990D01*
X8845000Y6772458D01*
X8874990Y6802449D01*
X8934970D01*
Y6697483D02*
X8919975Y6712478D01*
X8904980D01*
X8889985Y6697483D01*
Y6682488D01*
Y6697483D01*
X8874990Y6712478D01*
X8859995D01*
X8845000Y6697483D01*
Y6667492D01*
X8859995Y6652497D01*
X8919975D02*
X8934970Y6667492D01*
Y6697483D01*
%TF.MD5,5d363bb7580103c33d78c039af83ac2c*%
M02*
