%TF.GenerationSoftware,Altium Limited,Altium Designer,21.1.1 (26)*%
G04 Layer_Color=16711935*
%FSLAX45Y45*%
%MOMM*%
%TF.SameCoordinates,A571FDB6-1603-443E-89CE-D3154019B6F4*%
%TF.FilePolarity,Negative*%
%TF.FileFunction,Soldermask,Bot*%
%TF.Part,Single*%
G01*
G75*
%TA.AperFunction,ComponentPad*%
%ADD56C,4.01320*%
%ADD57C,1.86820*%
%ADD58R,1.86820X1.86820*%
G04:AMPARAMS|DCode=59|XSize=1mm|YSize=1.8mm|CornerRadius=0mm|HoleSize=0mm|Usage=FLASHONLY|Rotation=90.000|XOffset=0mm|YOffset=0mm|HoleType=Round|Shape=RoundedRectangle|*
%AMROUNDEDRECTD59*
21,1,1.00000,1.80000,0,0,90.0*
21,1,1.00000,1.80000,0,0,90.0*
1,1,0.00000,0.90000,0.50000*
1,1,0.00000,0.90000,-0.50000*
1,1,0.00000,-0.90000,-0.50000*
1,1,0.00000,-0.90000,0.50000*
%
%ADD59ROUNDEDRECTD59*%
G04:AMPARAMS|DCode=60|XSize=1mm|YSize=2.2mm|CornerRadius=0mm|HoleSize=0mm|Usage=FLASHONLY|Rotation=90.000|XOffset=0mm|YOffset=0mm|HoleType=Round|Shape=RoundedRectangle|*
%AMROUNDEDRECTD60*
21,1,1.00000,2.20000,0,0,90.0*
21,1,1.00000,2.20000,0,0,90.0*
1,1,0.00000,1.10000,0.50000*
1,1,0.00000,1.10000,-0.50000*
1,1,0.00000,-1.10000,-0.50000*
1,1,0.00000,-1.10000,0.50000*
%
%ADD60ROUNDEDRECTD60*%
%ADD61C,1.70320*%
%ADD62R,1.70320X1.70320*%
%ADD63R,1.70320X1.70320*%
%TA.AperFunction,ViaPad*%
%ADD64C,3.40320*%
%TA.AperFunction,ComponentPad*%
%ADD65C,1.27020*%
%TA.AperFunction,ViaPad*%
%ADD66C,1.35520*%
%ADD67C,0.20320*%
%ADD68C,0.80320*%
D56*
X6370000Y6865000D02*
D03*
Y8897000D02*
D03*
D57*
X7640000Y7373000D02*
D03*
Y7627000D02*
D03*
Y7881000D02*
D03*
Y8135000D02*
D03*
Y8389000D02*
D03*
Y8643000D02*
D03*
D58*
X7640000Y7119000D02*
D03*
D59*
X10905002Y7720503D02*
D03*
Y8584499D02*
D03*
D60*
X11305002Y7720503D02*
D03*
Y8584499D02*
D03*
D61*
X9137498Y6312860D02*
D03*
X9391498D02*
D03*
X9645498D02*
D03*
X9899498D02*
D03*
X10153498D02*
D03*
X9597502Y7255002D02*
D03*
D62*
X8883498Y6312860D02*
D03*
D63*
X9597502Y7001002D02*
D03*
D64*
X6170000Y6310000D02*
D03*
X6177498Y9434998D02*
D03*
X11199998Y6400002D02*
D03*
Y9400002D02*
D03*
D65*
X9896003Y8873399D02*
D03*
Y9076599D02*
D03*
X10404003Y8974999D02*
D03*
D66*
X7999999Y9149999D02*
D03*
D67*
X8055000Y6867500D02*
D03*
X8159999Y6680002D02*
D03*
X8350001Y6782501D02*
D03*
X8425002Y6557498D02*
D03*
X8490001Y6365001D02*
D03*
X8465002Y6960001D02*
D03*
X8502498Y7169998D02*
D03*
X8642502Y7460000D02*
D03*
X8397499Y7772502D02*
D03*
X8395000Y7907503D02*
D03*
X8412500Y8059999D02*
D03*
X8754999Y8250001D02*
D03*
X8927501Y7942499D02*
D03*
X9285254Y7994482D02*
D03*
Y8104480D02*
D03*
X9395257D02*
D03*
Y7994482D02*
D03*
Y7884480D02*
D03*
X9285254D02*
D03*
X9505254D02*
D03*
Y7994482D02*
D03*
Y8104480D02*
D03*
X9615256D02*
D03*
Y7994482D02*
D03*
Y7884480D02*
D03*
X9725254D02*
D03*
Y7994482D02*
D03*
Y8104480D02*
D03*
X9975002Y7649423D02*
D03*
X10050003Y7475002D02*
D03*
X9784999Y7507498D02*
D03*
X9515003Y7477501D02*
D03*
X9540001Y6785000D02*
D03*
X9555002Y6637503D02*
D03*
X9725000Y6774998D02*
D03*
X10630002Y7309998D02*
D03*
X10672501Y7449998D02*
D03*
X10897499Y7457501D02*
D03*
X10925002Y7140001D02*
D03*
X11147501Y7172498D02*
D03*
X11090001Y7260001D02*
D03*
X11345001Y6960001D02*
D03*
X11339998Y7220001D02*
D03*
X11342502Y7475002D02*
D03*
X10612501Y8539998D02*
D03*
X10462500Y8497500D02*
D03*
X10332500Y8082500D02*
D03*
X9725254Y8214482D02*
D03*
Y8324479D02*
D03*
X9615256D02*
D03*
Y8214482D02*
D03*
X9505254D02*
D03*
Y8324479D02*
D03*
X9395257D02*
D03*
Y8214482D02*
D03*
X9285254D02*
D03*
Y8324479D02*
D03*
X9274998Y8805001D02*
D03*
X8907501Y8637499D02*
D03*
X8879997Y8945001D02*
D03*
X8770000D02*
D03*
Y9054998D02*
D03*
X8879997D02*
D03*
X9080002Y9562501D02*
D03*
X8765002Y9567499D02*
D03*
X8477499Y9562501D02*
D03*
X8359999Y9080002D02*
D03*
X8365002Y8877498D02*
D03*
X8412500Y8239999D02*
D03*
X8217499Y6982501D02*
D03*
X9849998Y9232499D02*
D03*
X9400002Y9580001D02*
D03*
X10857499Y8942502D02*
D03*
X11094999Y9072499D02*
D03*
X11310000Y8819998D02*
D03*
X11312500Y9114998D02*
D03*
X10967502Y9572498D02*
D03*
X10730001Y9575002D02*
D03*
X10850001Y9402501D02*
D03*
X10852501Y9169999D02*
D03*
D68*
X8599998Y8625002D02*
D03*
X8346760Y8626759D02*
D03*
X8977498Y8067502D02*
D03*
X9900001Y7275002D02*
D03*
X9800001Y7382500D02*
D03*
X10040000Y8017500D02*
D03*
X10400000Y8599998D02*
D03*
X10124999Y8499998D02*
D03*
X10049998Y9372498D02*
D03*
X9300002Y9249999D02*
D03*
Y8974999D02*
D03*
X11090001Y7777500D02*
D03*
X10999998Y8027502D02*
D03*
X11010001Y8302498D02*
D03*
X11092500Y8505002D02*
D03*
%TF.MD5,6b0aba7743d6968152a1ea6678c70338*%
M02*
