%TF.GenerationSoftware,Altium Limited,Altium Designer,21.1.1 (26)*%
G04 Layer_Physical_Order=3*
G04 Layer_Color=16440176*
%FSLAX45Y45*%
%MOMM*%
%TF.SameCoordinates,A571FDB6-1603-443E-89CE-D3154019B6F4*%
%TF.FilePolarity,Positive*%
%TF.FileFunction,Copper,L3,Inr,Signal*%
%TF.Part,Single*%
G01*
G75*
%TA.AperFunction,ComponentPad*%
G04:AMPARAMS|DCode=45|XSize=1mm|YSize=1.8mm|CornerRadius=0.5mm|HoleSize=0mm|Usage=FLASHONLY|Rotation=90.000|XOffset=0mm|YOffset=0mm|HoleType=Round|Shape=RoundedRectangle|*
%AMROUNDEDRECTD45*
21,1,1.00000,0.80000,0,0,90.0*
21,1,0.00000,1.80000,0,0,90.0*
1,1,1.00000,0.40000,0.00000*
1,1,1.00000,0.40000,0.00000*
1,1,1.00000,-0.40000,0.00000*
1,1,1.00000,-0.40000,0.00000*
%
%ADD45ROUNDEDRECTD45*%
%ADD46C,1.50000*%
%TA.AperFunction,ViaPad*%
%ADD48C,0.60000*%
%ADD49C,0.50000*%
%TA.AperFunction,ComponentPad*%
%ADD50C,3.81000*%
%ADD51C,1.66500*%
G04:AMPARAMS|DCode=52|XSize=1mm|YSize=2.2mm|CornerRadius=0.5mm|HoleSize=0mm|Usage=FLASHONLY|Rotation=90.000|XOffset=0mm|YOffset=0mm|HoleType=Round|Shape=RoundedRectangle|*
%AMROUNDEDRECTD52*
21,1,1.00000,1.20000,0,0,90.0*
21,1,0.00000,2.20000,0,0,90.0*
1,1,1.00000,0.60000,0.00000*
1,1,1.00000,0.60000,0.00000*
1,1,1.00000,-0.60000,0.00000*
1,1,1.00000,-0.60000,0.00000*
%
%ADD52ROUNDEDRECTD52*%
%ADD53R,1.50000X1.50000*%
%TA.AperFunction,ViaPad*%
%ADD54C,0.90000*%
G36*
X11300000Y9600000D02*
X11309849D01*
X11329169Y9596157D01*
X11347367Y9588619D01*
X11363746Y9577675D01*
X11377675Y9563746D01*
X11388619Y9547367D01*
X11396157Y9529169D01*
X11400000Y9509849D01*
Y9500000D01*
X11400000Y6300000D01*
X11400000Y6300000D01*
X11400000Y6298773D01*
X11399939Y6296319D01*
X11399819Y6293867D01*
X11399638Y6291419D01*
X11399518Y6290198D01*
X11400000Y6170000D01*
X11405000Y6165000D01*
X11370000Y6130000D01*
X6238991D01*
X6236465Y6142700D01*
X6255262Y6150486D01*
X6284744Y6170185D01*
X6309815Y6195257D01*
X6329514Y6224738D01*
X6343083Y6257496D01*
X6350000Y6292272D01*
Y6327729D01*
X6343083Y6362504D01*
X6329514Y6395262D01*
X6309815Y6424743D01*
X6284744Y6449815D01*
X6255262Y6469514D01*
X6222504Y6483083D01*
X6187729Y6490000D01*
X6152272D01*
X6117496Y6483083D01*
X6084738Y6469514D01*
X6055257Y6449815D01*
X6030185Y6424743D01*
X6010487Y6395262D01*
X6007700Y6388535D01*
X5995000Y6391061D01*
Y9372038D01*
X6007700Y9374565D01*
X6017985Y9349736D01*
X6037683Y9320254D01*
X6062755Y9295183D01*
X6092236Y9275484D01*
X6124994Y9261915D01*
X6159770Y9254998D01*
X6195227D01*
X6230003Y9261915D01*
X6262760Y9275484D01*
X6292242Y9295183D01*
X6317314Y9320254D01*
X6337012Y9349736D01*
X6350581Y9382494D01*
X6357498Y9417269D01*
Y9452726D01*
X6350581Y9487502D01*
X6337012Y9520260D01*
X6317314Y9549741D01*
X6292242Y9574813D01*
X6274274Y9586818D01*
X6278127Y9599518D01*
X8077768D01*
X8090198Y9599518D01*
Y9599518D01*
X8090215Y9599519D01*
X8091429Y9599566D01*
X8102844Y9600000D01*
X11300000Y9600000D01*
Y9600000D01*
D02*
G37*
%LPC*%
G36*
X10056462Y9404998D02*
X10043533D01*
X10031588Y9400051D01*
X10022446Y9390908D01*
X10017498Y9378963D01*
Y9366034D01*
X10022446Y9354089D01*
X10031588Y9344946D01*
X10043533Y9339999D01*
X10056462D01*
X10068407Y9344946D01*
X10077550Y9354089D01*
X10082497Y9366034D01*
Y9378963D01*
X10077550Y9390908D01*
X10068407Y9400051D01*
X10056462Y9404998D01*
D02*
G37*
G36*
X11217726Y9580001D02*
X11182269D01*
X11147494Y9573084D01*
X11114736Y9559515D01*
X11085255Y9539817D01*
X11060183Y9514745D01*
X11040484Y9485263D01*
X11026915Y9452506D01*
X11019998Y9417730D01*
Y9382273D01*
X11026915Y9347497D01*
X11040484Y9314740D01*
X11060183Y9285258D01*
X11085255Y9260186D01*
X11114736Y9240488D01*
X11147494Y9226919D01*
X11182269Y9220002D01*
X11217726D01*
X11252502Y9226919D01*
X11285260Y9240488D01*
X11314741Y9260186D01*
X11339813Y9285258D01*
X11359512Y9314740D01*
X11373081Y9347497D01*
X11379998Y9382273D01*
Y9417730D01*
X11373081Y9452506D01*
X11359512Y9485263D01*
X11339813Y9514745D01*
X11314741Y9539817D01*
X11285260Y9559515D01*
X11252502Y9573084D01*
X11217726Y9580001D01*
D02*
G37*
G36*
X9306466Y9282499D02*
X9293537D01*
X9281592Y9277551D01*
X9272450Y9268409D01*
X9267502Y9256464D01*
Y9243535D01*
X9272450Y9231590D01*
X9281592Y9222447D01*
X9293537Y9217499D01*
X9306466D01*
X9318411Y9222447D01*
X9327554Y9231590D01*
X9332502Y9243535D01*
Y9256464D01*
X9327554Y9268409D01*
X9318411Y9277551D01*
X9306466Y9282499D01*
D02*
G37*
G36*
X8010215Y9227599D02*
X7989783D01*
X7970047Y9222311D01*
X7952352Y9212095D01*
X7937904Y9197647D01*
X7927688Y9179952D01*
X7922399Y9160216D01*
Y9139783D01*
X7927688Y9120047D01*
X7937904Y9102352D01*
X7952352Y9087904D01*
X7970047Y9077688D01*
X7989783Y9072400D01*
X8010215D01*
X8029952Y9077688D01*
X8047647Y9087904D01*
X8062094Y9102352D01*
X8072311Y9120047D01*
X8077599Y9139783D01*
Y9160216D01*
X8072311Y9179952D01*
X8062094Y9197647D01*
X8047647Y9212095D01*
X8029952Y9222311D01*
X8010215Y9227599D01*
D02*
G37*
G36*
X9905659Y9149948D02*
X9886346D01*
X9867690Y9144950D01*
X9850965Y9135293D01*
X9837308Y9121637D01*
X9827651Y9104911D01*
X9822653Y9086255D01*
Y9066942D01*
X9827651Y9048286D01*
X9837308Y9031561D01*
X9850965Y9017904D01*
X9867690Y9008247D01*
X9886346Y9003249D01*
X9905659D01*
X9924315Y9008247D01*
X9941041Y9017904D01*
X9954697Y9031561D01*
X9964354Y9048286D01*
X9969352Y9066942D01*
Y9086255D01*
X9964354Y9104911D01*
X9954697Y9121637D01*
X9941041Y9135293D01*
X9924315Y9144950D01*
X9905659Y9149948D01*
D02*
G37*
G36*
X9306466Y9007498D02*
X9293537D01*
X9281592Y9002551D01*
X9272450Y8993408D01*
X9267502Y8981463D01*
Y8968534D01*
X9272450Y8956589D01*
X9281592Y8947446D01*
X9293537Y8942499D01*
X9306466D01*
X9318411Y8947446D01*
X9327554Y8956589D01*
X9332502Y8968534D01*
Y8981463D01*
X9327554Y8993408D01*
X9318411Y9002551D01*
X9306466Y9007498D01*
D02*
G37*
G36*
X10413659Y9048348D02*
X10394346D01*
X10375690Y9043350D01*
X10358965Y9033693D01*
X10345308Y9020037D01*
X10335651Y9003311D01*
X10330653Y8984655D01*
Y8965342D01*
X10335651Y8946686D01*
X10345308Y8929961D01*
X10358965Y8916304D01*
X10375690Y8906647D01*
X10394346Y8901649D01*
X10413659D01*
X10432315Y8906647D01*
X10449041Y8916304D01*
X10462697Y8929961D01*
X10472354Y8946686D01*
X10477352Y8965342D01*
Y8984655D01*
X10472354Y9003311D01*
X10462697Y9020037D01*
X10449041Y9033693D01*
X10432315Y9043350D01*
X10413659Y9048348D01*
D02*
G37*
G36*
X9905659Y8946748D02*
X9886346D01*
X9867690Y8941750D01*
X9850965Y8932093D01*
X9837308Y8918437D01*
X9827651Y8901711D01*
X9822653Y8883055D01*
Y8863742D01*
X9827651Y8845086D01*
X9837308Y8828361D01*
X9850965Y8814704D01*
X9867690Y8805047D01*
X9886346Y8800049D01*
X9905659D01*
X9924315Y8805047D01*
X9941041Y8814704D01*
X9954697Y8828361D01*
X9964354Y8845086D01*
X9969352Y8863742D01*
Y8883055D01*
X9964354Y8901711D01*
X9954697Y8918437D01*
X9941041Y8932093D01*
X9924315Y8941750D01*
X9905659Y8946748D01*
D02*
G37*
G36*
X8353225Y8659259D02*
X8340295D01*
X8328350Y8654312D01*
X8319208Y8645169D01*
X8314260Y8633224D01*
Y8620295D01*
X8319208Y8608350D01*
X8328350Y8599207D01*
X8340295Y8594260D01*
X8353225D01*
X8365170Y8599207D01*
X8374312Y8608350D01*
X8379260Y8620295D01*
Y8633224D01*
X8374312Y8645169D01*
X8365170Y8654312D01*
X8353225Y8659259D01*
D02*
G37*
G36*
X8606463Y8657502D02*
X8593533D01*
X8581588Y8652554D01*
X8572446Y8643411D01*
X8567498Y8631466D01*
Y8618537D01*
X8572446Y8606592D01*
X8581588Y8597450D01*
X8593533Y8592502D01*
X8606463D01*
X8618408Y8597450D01*
X8627550Y8606592D01*
X8632498Y8618537D01*
Y8631466D01*
X8627550Y8643411D01*
X8618408Y8652554D01*
X8606463Y8657502D01*
D02*
G37*
G36*
X7649940Y8718500D02*
X7630060D01*
X7610858Y8713355D01*
X7593642Y8703415D01*
X7579585Y8689358D01*
X7569645Y8672142D01*
X7564500Y8652940D01*
Y8633060D01*
X7569645Y8613858D01*
X7579585Y8596642D01*
X7593642Y8582585D01*
X7610858Y8572646D01*
X7630060Y8567500D01*
X7649940D01*
X7669142Y8572646D01*
X7686358Y8582585D01*
X7700415Y8596642D01*
X7710355Y8613858D01*
X7715500Y8633060D01*
Y8652940D01*
X7710355Y8672142D01*
X7700415Y8689358D01*
X7686358Y8703415D01*
X7669142Y8713355D01*
X7649940Y8718500D01*
D02*
G37*
G36*
X10406464Y8632498D02*
X10393535D01*
X10381590Y8627550D01*
X10372447Y8618408D01*
X10367500Y8606463D01*
Y8593533D01*
X10372447Y8581588D01*
X10381590Y8572446D01*
X10393535Y8567498D01*
X10406464D01*
X10418409Y8572446D01*
X10427552Y8581588D01*
X10432499Y8593533D01*
Y8606463D01*
X10427552Y8618408D01*
X10418409Y8627550D01*
X10406464Y8632498D01*
D02*
G37*
G36*
X11098965Y8537502D02*
X11086035D01*
X11074090Y8532554D01*
X11064948Y8523412D01*
X11060000Y8511467D01*
Y8498537D01*
X11064948Y8486592D01*
X11074090Y8477450D01*
X11086035Y8472502D01*
X11098965D01*
X11110910Y8477450D01*
X11120052Y8486592D01*
X11125000Y8498537D01*
Y8511467D01*
X11120052Y8523412D01*
X11110910Y8532554D01*
X11098965Y8537502D01*
D02*
G37*
G36*
X10131463Y8532498D02*
X10118534D01*
X10106589Y8527550D01*
X10097447Y8518408D01*
X10092499Y8506463D01*
Y8493534D01*
X10097447Y8481589D01*
X10106589Y8472446D01*
X10118534Y8467498D01*
X10131463D01*
X10143408Y8472446D01*
X10152551Y8481589D01*
X10157499Y8493534D01*
Y8506463D01*
X10152551Y8518408D01*
X10143408Y8527550D01*
X10131463Y8532498D01*
D02*
G37*
G36*
X7649940Y8464500D02*
X7630060D01*
X7610858Y8459355D01*
X7593642Y8449415D01*
X7579585Y8435358D01*
X7569645Y8418142D01*
X7564500Y8398940D01*
Y8379060D01*
X7569645Y8359858D01*
X7579585Y8342642D01*
X7593642Y8328585D01*
X7610858Y8318646D01*
X7630060Y8313500D01*
X7649940D01*
X7669142Y8318646D01*
X7686358Y8328585D01*
X7700415Y8342642D01*
X7710355Y8359858D01*
X7715500Y8379060D01*
Y8398940D01*
X7710355Y8418142D01*
X7700415Y8435358D01*
X7686358Y8449415D01*
X7669142Y8459355D01*
X7649940Y8464500D01*
D02*
G37*
G36*
X11016465Y8334998D02*
X11003536D01*
X10991591Y8330050D01*
X10982449Y8320908D01*
X10977501Y8308963D01*
Y8296033D01*
X10982449Y8284088D01*
X10991591Y8274946D01*
X11003536Y8269998D01*
X11016465D01*
X11028411Y8274946D01*
X11037553Y8284088D01*
X11042501Y8296033D01*
Y8308963D01*
X11037553Y8320908D01*
X11028411Y8330050D01*
X11016465Y8334998D01*
D02*
G37*
G36*
X8983962Y8100002D02*
X8971033D01*
X8959088Y8095054D01*
X8949946Y8085912D01*
X8944998Y8073967D01*
Y8061038D01*
X8949946Y8049093D01*
X8959088Y8039950D01*
X8971033Y8035002D01*
X8983962D01*
X8995908Y8039950D01*
X9005050Y8049093D01*
X9009998Y8061038D01*
Y8073967D01*
X9005050Y8085912D01*
X8995908Y8095054D01*
X8983962Y8100002D01*
D02*
G37*
G36*
X11006463Y8060002D02*
X10993534D01*
X10981589Y8055055D01*
X10972446Y8045912D01*
X10967499Y8033967D01*
Y8021038D01*
X10972446Y8009093D01*
X10981589Y7999950D01*
X10993534Y7995003D01*
X11006463D01*
X11018408Y7999950D01*
X11027550Y8009093D01*
X11032498Y8021038D01*
Y8033967D01*
X11027550Y8045912D01*
X11018408Y8055055D01*
X11006463Y8060002D01*
D02*
G37*
G36*
X10046465Y8050000D02*
X10033535D01*
X10021590Y8045052D01*
X10012448Y8035910D01*
X10007500Y8023965D01*
Y8011036D01*
X10012448Y7999090D01*
X10021590Y7989948D01*
X10033535Y7985000D01*
X10046465D01*
X10058410Y7989948D01*
X10067552Y7999090D01*
X10072500Y8011036D01*
Y8023965D01*
X10067552Y8035910D01*
X10058410Y8045052D01*
X10046465Y8050000D01*
D02*
G37*
G36*
X7649940Y7956500D02*
X7630060D01*
X7610858Y7951355D01*
X7593642Y7941415D01*
X7579585Y7927358D01*
X7569645Y7910142D01*
X7564500Y7890940D01*
Y7871060D01*
X7569645Y7851858D01*
X7579585Y7834642D01*
X7593642Y7820585D01*
X7610858Y7810646D01*
X7630060Y7805500D01*
X7649940D01*
X7669142Y7810646D01*
X7686358Y7820585D01*
X7700415Y7834642D01*
X7710355Y7851858D01*
X7715500Y7871060D01*
Y7890940D01*
X7710355Y7910142D01*
X7700415Y7927358D01*
X7686358Y7941415D01*
X7669142Y7951355D01*
X7649940Y7956500D01*
D02*
G37*
G36*
X11096465Y7810000D02*
X11083536D01*
X11071591Y7805052D01*
X11062449Y7795910D01*
X11057501Y7783965D01*
Y7771036D01*
X11062449Y7759091D01*
X11071591Y7749948D01*
X11083536Y7745001D01*
X11096465D01*
X11108410Y7749948D01*
X11117553Y7759091D01*
X11122500Y7771036D01*
Y7783965D01*
X11117553Y7795910D01*
X11108410Y7805052D01*
X11096465Y7810000D01*
D02*
G37*
G36*
X9806464Y7414998D02*
X9793535D01*
X9781590Y7410050D01*
X9772447Y7400908D01*
X9767500Y7388963D01*
Y7376034D01*
X9772447Y7364089D01*
X9781590Y7354946D01*
X9793535Y7349999D01*
X9806464D01*
X9818409Y7354946D01*
X9827552Y7364089D01*
X9832499Y7376034D01*
Y7388963D01*
X9827552Y7400908D01*
X9818409Y7410050D01*
X9806464Y7414998D01*
D02*
G37*
G36*
X7649940Y7448500D02*
X7630060D01*
X7610858Y7443355D01*
X7593642Y7433415D01*
X7579585Y7419358D01*
X7569645Y7402142D01*
X7564500Y7382940D01*
Y7363060D01*
X7569645Y7343858D01*
X7579585Y7326642D01*
X7593642Y7312585D01*
X7610858Y7302646D01*
X7630060Y7297500D01*
X7649940D01*
X7669142Y7302646D01*
X7686358Y7312585D01*
X7700415Y7326642D01*
X7710355Y7343858D01*
X7715500Y7363060D01*
Y7382940D01*
X7710355Y7402142D01*
X7700415Y7419358D01*
X7686358Y7433415D01*
X7669142Y7443355D01*
X7649940Y7448500D01*
D02*
G37*
G36*
X9909946Y7325002D02*
X9890055D01*
X9871678Y7317390D01*
X9857612Y7303325D01*
X9850001Y7284948D01*
Y7265056D01*
X9857612Y7246679D01*
X9871678Y7232614D01*
X9890055Y7225002D01*
X9909946D01*
X9928323Y7232614D01*
X9942389Y7246679D01*
X9950000Y7265056D01*
Y7284948D01*
X9942389Y7303325D01*
X9928323Y7317390D01*
X9909946Y7325002D01*
D02*
G37*
G36*
X9606059Y7320002D02*
X9588944D01*
X9572413Y7315572D01*
X9557591Y7307015D01*
X9545489Y7294913D01*
X9536932Y7280091D01*
X9532502Y7263560D01*
Y7246444D01*
X9536932Y7229913D01*
X9545489Y7215091D01*
X9557591Y7202989D01*
X9572413Y7194432D01*
X9588944Y7190002D01*
X9606059D01*
X9622591Y7194432D01*
X9637413Y7202989D01*
X9649515Y7215091D01*
X9658072Y7229913D01*
X9662502Y7246444D01*
Y7263560D01*
X9658072Y7280091D01*
X9649515Y7294913D01*
X9637413Y7307015D01*
X9622591Y7315572D01*
X9606059Y7320002D01*
D02*
G37*
G36*
X7649940Y7194500D02*
X7630060D01*
X7610858Y7189355D01*
X7593642Y7179415D01*
X7579585Y7165358D01*
X7569645Y7148142D01*
X7564500Y7128940D01*
Y7109060D01*
X7569645Y7089858D01*
X7579585Y7072642D01*
X7593642Y7058585D01*
X7610858Y7048646D01*
X7630060Y7043500D01*
X7649940D01*
X7669142Y7048646D01*
X7686358Y7058585D01*
X7700415Y7072642D01*
X7710355Y7089858D01*
X7715500Y7109060D01*
Y7128940D01*
X7710355Y7148142D01*
X7700415Y7165358D01*
X7686358Y7179415D01*
X7669142Y7189355D01*
X7649940Y7194500D01*
D02*
G37*
G36*
X9908055Y6377860D02*
X9890940D01*
X9874408Y6373430D01*
X9859587Y6364873D01*
X9847485Y6352771D01*
X9838927Y6337949D01*
X9834498Y6321418D01*
Y6304303D01*
X9838927Y6287771D01*
X9847485Y6272949D01*
X9859587Y6260847D01*
X9874408Y6252290D01*
X9890940Y6247860D01*
X9908055D01*
X9924587Y6252290D01*
X9939408Y6260847D01*
X9951510Y6272949D01*
X9960068Y6287771D01*
X9964497Y6304303D01*
Y6321418D01*
X9960068Y6337949D01*
X9951510Y6352771D01*
X9939408Y6364873D01*
X9924587Y6373430D01*
X9908055Y6377860D01*
D02*
G37*
G36*
X9654055D02*
X9636940D01*
X9620408Y6373430D01*
X9605587Y6364873D01*
X9593485Y6352771D01*
X9584927Y6337949D01*
X9580498Y6321418D01*
Y6304303D01*
X9584927Y6287771D01*
X9593485Y6272949D01*
X9605587Y6260847D01*
X9620408Y6252290D01*
X9636940Y6247860D01*
X9654055D01*
X9670587Y6252290D01*
X9685408Y6260847D01*
X9697510Y6272949D01*
X9706068Y6287771D01*
X9710497Y6304303D01*
Y6321418D01*
X9706068Y6337949D01*
X9697510Y6352771D01*
X9685408Y6364873D01*
X9670587Y6373430D01*
X9654055Y6377860D01*
D02*
G37*
G36*
X9400055D02*
X9382940D01*
X9366408Y6373430D01*
X9351587Y6364873D01*
X9339485Y6352771D01*
X9330927Y6337949D01*
X9326498Y6321418D01*
Y6304303D01*
X9330927Y6287771D01*
X9339485Y6272949D01*
X9351587Y6260847D01*
X9366408Y6252290D01*
X9382940Y6247860D01*
X9400055D01*
X9416587Y6252290D01*
X9431408Y6260847D01*
X9443510Y6272949D01*
X9452068Y6287771D01*
X9456497Y6304303D01*
Y6321418D01*
X9452068Y6337949D01*
X9443510Y6352771D01*
X9431408Y6364873D01*
X9416587Y6373430D01*
X9400055Y6377860D01*
D02*
G37*
G36*
X9146055D02*
X9128940D01*
X9112408Y6373430D01*
X9097587Y6364873D01*
X9085485Y6352771D01*
X9076927Y6337949D01*
X9072498Y6321418D01*
Y6304303D01*
X9076927Y6287771D01*
X9085485Y6272949D01*
X9097587Y6260847D01*
X9112408Y6252290D01*
X9128940Y6247860D01*
X9146055D01*
X9162587Y6252290D01*
X9177408Y6260847D01*
X9189510Y6272949D01*
X9198068Y6287771D01*
X9202497Y6304303D01*
Y6321418D01*
X9198068Y6337949D01*
X9189510Y6352771D01*
X9177408Y6364873D01*
X9162587Y6373430D01*
X9146055Y6377860D01*
D02*
G37*
G36*
X8892055D02*
X8874940D01*
X8858408Y6373430D01*
X8843587Y6364873D01*
X8831485Y6352771D01*
X8822927Y6337949D01*
X8818498Y6321418D01*
Y6304303D01*
X8822927Y6287771D01*
X8831485Y6272949D01*
X8843587Y6260847D01*
X8858408Y6252290D01*
X8874940Y6247860D01*
X8892055D01*
X8908587Y6252290D01*
X8923408Y6260847D01*
X8935510Y6272949D01*
X8944068Y6287771D01*
X8948497Y6304303D01*
Y6321418D01*
X8944068Y6337949D01*
X8935510Y6352771D01*
X8923408Y6364873D01*
X8908587Y6373430D01*
X8892055Y6377860D01*
D02*
G37*
G36*
X11217726Y6580002D02*
X11182269D01*
X11147494Y6573085D01*
X11114736Y6559516D01*
X11085255Y6539818D01*
X11060183Y6514746D01*
X11040484Y6485264D01*
X11026915Y6452507D01*
X11019998Y6417731D01*
Y6382274D01*
X11026915Y6347498D01*
X11040484Y6314740D01*
X11060183Y6285259D01*
X11085255Y6260187D01*
X11114736Y6240489D01*
X11147494Y6226920D01*
X11182269Y6220003D01*
X11217726D01*
X11252502Y6226920D01*
X11285260Y6240489D01*
X11314741Y6260187D01*
X11339813Y6285259D01*
X11359512Y6314740D01*
X11373081Y6347498D01*
X11379998Y6382274D01*
Y6417731D01*
X11373081Y6452507D01*
X11359512Y6485264D01*
X11339813Y6514746D01*
X11314741Y6539818D01*
X11285260Y6559516D01*
X11252502Y6573085D01*
X11217726Y6580002D01*
D02*
G37*
%LPD*%
D45*
X10905002Y7720503D02*
D03*
Y8584499D02*
D03*
D46*
X10153498Y6312860D02*
D03*
D48*
X8397499Y7772502D02*
D03*
X8642502Y7460000D02*
D03*
X8927501Y7942499D02*
D03*
X8754999Y8250001D02*
D03*
X8395000Y7907503D02*
D03*
X9274998Y8805001D02*
D03*
X8907501Y8637499D02*
D03*
X9849998Y9232499D02*
D03*
X10462500Y8497500D02*
D03*
X10332500Y8082500D02*
D03*
X9975002Y7649423D02*
D03*
X9784999Y7507498D02*
D03*
X9900001Y7275002D02*
D03*
X9515003Y7477501D02*
D03*
X9540001Y6785000D02*
D03*
X10630002Y7309998D02*
D03*
X10672501Y7449998D02*
D03*
X10925002Y7140001D02*
D03*
X11147501Y7172498D02*
D03*
X11090001Y7260001D02*
D03*
X11094999Y9072499D02*
D03*
X8359999Y9080002D02*
D03*
X8365002Y8877498D02*
D03*
D49*
X8770000Y8945001D02*
D03*
Y9054998D02*
D03*
X8879997D02*
D03*
Y8945001D02*
D03*
X9285254Y8324479D02*
D03*
Y8214482D02*
D03*
X9395257D02*
D03*
Y8324479D02*
D03*
Y8104480D02*
D03*
Y7994482D02*
D03*
X9285254D02*
D03*
Y8104480D02*
D03*
Y7884480D02*
D03*
X9395257D02*
D03*
X9505254D02*
D03*
Y7994482D02*
D03*
Y8104480D02*
D03*
X9615256D02*
D03*
Y7994482D02*
D03*
Y7884480D02*
D03*
X9725254D02*
D03*
Y7994482D02*
D03*
Y8104480D02*
D03*
Y8214482D02*
D03*
Y8324479D02*
D03*
X9615256D02*
D03*
Y8214482D02*
D03*
X9505254D02*
D03*
Y8324479D02*
D03*
D50*
X6370000Y6865000D02*
D03*
Y8897000D02*
D03*
D51*
X7640000Y7627000D02*
D03*
Y8135000D02*
D03*
D52*
X11305002Y7720503D02*
D03*
Y8584499D02*
D03*
D53*
X9597502Y7001002D02*
D03*
D54*
X8055000Y6867500D02*
D03*
X8159999Y6680002D02*
D03*
X8350001Y6782501D02*
D03*
X8425002Y6557498D02*
D03*
X8490001Y6365001D02*
D03*
X8465002Y6960001D02*
D03*
X8502498Y7169998D02*
D03*
X8217499Y6982501D02*
D03*
X8412500Y8059999D02*
D03*
Y8239999D02*
D03*
X9400002Y9580001D02*
D03*
X9080002Y9562501D02*
D03*
X8765002Y9567499D02*
D03*
X8477499Y9562501D02*
D03*
X10050003Y7475002D02*
D03*
X9555002Y6637503D02*
D03*
X9725000Y6774998D02*
D03*
X10897499Y7457501D02*
D03*
X11345001Y6960001D02*
D03*
X11339998Y7220001D02*
D03*
X11342502Y7475002D02*
D03*
X10612501Y8539998D02*
D03*
X10857499Y8942502D02*
D03*
X10852501Y9169999D02*
D03*
X10967502Y9572498D02*
D03*
X10730001Y9575002D02*
D03*
X10850001Y9402501D02*
D03*
X11312500Y9114998D02*
D03*
X11310000Y8819998D02*
D03*
%TF.MD5,2481c54694794127e9137ab06bdd2753*%
M02*
