%TF.GenerationSoftware,Altium Limited,Altium Designer,21.1.1 (26)*%
G04 Layer_Physical_Order=4*
G04 Layer_Color=16711680*
%FSLAX45Y45*%
%MOMM*%
%TF.SameCoordinates,A571FDB6-1603-443E-89CE-D3154019B6F4*%
%TF.FilePolarity,Positive*%
%TF.FileFunction,Copper,L4,Bot,Signal*%
%TF.Part,Single*%
G01*
G75*
%TA.AperFunction,Conductor*%
%ADD10C,0.25000*%
%ADD36C,0.30000*%
%ADD38C,0.50000*%
%TA.AperFunction,ViaPad*%
%ADD48C,0.60000*%
G36*
X9892617Y7453902D02*
X9829269Y7389079D01*
X9806580Y7411768D01*
X9807445Y7412352D01*
X9809558Y7414215D01*
X9859304Y7463031D01*
X9871403Y7475116D01*
X9892617Y7453902D01*
D02*
G37*
G36*
X10025000Y7901520D02*
X10023957Y7992150D01*
X10056043D01*
X10055845Y7991125D01*
X10055667Y7988314D01*
X10055010Y7918621D01*
X10055000Y7901520D01*
X10025000D01*
D02*
G37*
G36*
X8992498Y8183483D02*
X8993541Y8092852D01*
X8961455D01*
X8961653Y8093877D01*
X8961830Y8096689D01*
X8962488Y8166382D01*
X8962498Y8183483D01*
X8992498D01*
D02*
G37*
G36*
X9934017Y9387498D02*
X10024648Y9388541D01*
Y9356456D01*
X10023623Y9356654D01*
X10020811Y9356831D01*
X9951118Y9357488D01*
X9934017Y9357498D01*
Y9387498D01*
D02*
G37*
G36*
X11102501Y7894772D02*
X11106044Y7802850D01*
X11073958D01*
X11074631Y7804173D01*
X11075233Y7807245D01*
X11075765Y7812065D01*
X11076615Y7826952D01*
X11077501Y7894772D01*
X11102501D01*
D02*
G37*
G36*
X11074083Y7935740D02*
X11006579Y7998233D01*
X11029268Y8020922D01*
X11029727Y8019510D01*
X11031473Y8016912D01*
X11034506Y8013128D01*
X11044431Y8002000D01*
X11091761Y7953418D01*
X11074083Y7935740D01*
D02*
G37*
G36*
X11107870Y8478329D02*
X11107268Y8475258D01*
X11106736Y8470437D01*
X11105886Y8455551D01*
X11105000Y8387730D01*
X11089772D01*
X11101339Y8376164D01*
X11039454Y8308201D01*
X11015702Y8331951D01*
X11017297Y8332393D01*
X11020048Y8334112D01*
X11023955Y8337108D01*
X11035236Y8346931D01*
X11079905Y8390202D01*
X11076457Y8479652D01*
X11108543D01*
X11107870Y8478329D01*
D02*
G37*
D10*
X11090001Y7777500D02*
Y7937500D01*
X10999998Y8027502D01*
X11010001Y8302498D02*
X11092500Y8385002D01*
Y8505002D01*
D36*
X8977498Y8067502D02*
Y8240309D01*
X8965001Y8252811D01*
Y8417499D01*
X9087500Y8539998D01*
X9527499D01*
X9722500Y8734999D01*
Y9222501D01*
X9872502Y9372498D01*
X10049998D01*
X10040000Y8017500D02*
Y7622499D01*
X9800001Y7382500D01*
D38*
X8599119Y8625881D02*
X8599998Y8625002D01*
X8599119Y8625881D02*
X8347639D01*
X8346760Y8626759D01*
X9300002Y8974999D02*
Y9249999D01*
X10123084Y8498083D02*
X10224999Y8599998D01*
X10400000D01*
X10124999Y8499998D02*
X10126914Y8498083D01*
Y8491017D01*
X10127498Y8490428D01*
Y7352502D01*
X10060000Y7284999D01*
X9912706D01*
X9902708Y7275002D01*
X9900001D01*
D48*
X8599998Y8625002D02*
D03*
X8346760Y8626759D02*
D03*
X8977498Y8067502D02*
D03*
X9900001Y7275002D02*
D03*
X9800001Y7382500D02*
D03*
X10040000Y8017500D02*
D03*
X10400000Y8599998D02*
D03*
X10124999Y8499998D02*
D03*
X10049998Y9372498D02*
D03*
X9300002Y9249999D02*
D03*
Y8974999D02*
D03*
X11090001Y7777500D02*
D03*
X10999998Y8027502D02*
D03*
X11010001Y8302498D02*
D03*
X11092500Y8505002D02*
D03*
%TF.MD5,42eccc389e08e957f3e8479df7fdfe2d*%
M02*
