%TF.GenerationSoftware,Altium Limited,Altium Designer,21.1.1 (26)*%
G04 Layer_Color=16711935*
%FSLAX45Y45*%
%MOMM*%
%TF.SameCoordinates,A571FDB6-1603-443E-89CE-D3154019B6F4*%
%TF.FilePolarity,Positive*%
%TF.FileFunction,Other,Top_Assembly*%
%TF.Part,Single*%
G01*
G75*
%TA.AperFunction,NonConductor*%
%ADD55C,0.20000*%
G36*
X11156392Y8220084D02*
X11106373D01*
X11106465Y8219992D01*
X11106835Y8219529D01*
X11107390Y8218975D01*
X11108037Y8218050D01*
X11108869Y8217033D01*
X11109794Y8215739D01*
X11110811Y8214259D01*
X11111828Y8212595D01*
Y8212503D01*
X11111920Y8212410D01*
X11112290Y8211856D01*
X11112752Y8210931D01*
X11113307Y8209822D01*
X11113954Y8208527D01*
X11114602Y8207140D01*
X11115249Y8205753D01*
X11115804Y8204367D01*
X11108222D01*
Y8204459D01*
X11108037Y8204644D01*
X11107945Y8205014D01*
X11107667Y8205476D01*
X11107390Y8206031D01*
X11107020Y8206678D01*
X11106096Y8208250D01*
X11105079Y8210099D01*
X11103784Y8211948D01*
X11102305Y8213890D01*
X11100733Y8215831D01*
X11100641Y8215924D01*
X11100548Y8216016D01*
X11100271Y8216293D01*
X11099994Y8216663D01*
X11099069Y8217495D01*
X11097960Y8218605D01*
X11096665Y8219714D01*
X11095186Y8220916D01*
X11093707Y8221933D01*
X11092135Y8222858D01*
Y8227943D01*
X11156392D01*
Y8220084D01*
D02*
G37*
G36*
X11138085Y8187632D02*
X11138825D01*
X11140582Y8187447D01*
X11142616Y8187262D01*
X11144742Y8186892D01*
X11146684Y8186338D01*
X11148533Y8185691D01*
X11148625D01*
X11148718Y8185598D01*
X11149273Y8185321D01*
X11150012Y8184858D01*
X11151029Y8184211D01*
X11152046Y8183287D01*
X11153156Y8182270D01*
X11154265Y8180975D01*
X11155190Y8179496D01*
X11155282Y8179311D01*
X11155560Y8178756D01*
X11155929Y8177924D01*
X11156299Y8176722D01*
X11156762Y8175243D01*
X11157131Y8173579D01*
X11157409Y8171730D01*
X11157501Y8169696D01*
Y8168864D01*
X11157409Y8168309D01*
X11157316Y8167569D01*
X11157224Y8166829D01*
X11156854Y8164888D01*
X11156299Y8162854D01*
X11155467Y8160727D01*
X11154912Y8159618D01*
X11154265Y8158601D01*
X11153526Y8157676D01*
X11152693Y8156752D01*
X11152601Y8156659D01*
X11152509Y8156567D01*
X11152139Y8156382D01*
X11151769Y8156105D01*
X11151307Y8155735D01*
X11150659Y8155365D01*
X11149920Y8154995D01*
X11149088Y8154533D01*
X11148163Y8154163D01*
X11147054Y8153793D01*
X11145944Y8153423D01*
X11144650Y8153054D01*
X11143263Y8152869D01*
X11141691Y8152591D01*
X11140119Y8152499D01*
X11138363D01*
X11137253Y8160173D01*
X11137346D01*
X11137531D01*
X11137901D01*
X11138455Y8160265D01*
X11139010Y8160358D01*
X11139657D01*
X11141229Y8160635D01*
X11142893Y8160912D01*
X11144557Y8161467D01*
X11146037Y8162022D01*
X11146684Y8162392D01*
X11147239Y8162854D01*
X11147331Y8162946D01*
X11147608Y8163316D01*
X11148071Y8163871D01*
X11148533Y8164611D01*
X11149088Y8165628D01*
X11149458Y8166737D01*
X11149827Y8168124D01*
X11149920Y8169603D01*
Y8170158D01*
X11149827Y8170713D01*
X11149735Y8171545D01*
X11149550Y8172377D01*
X11149365Y8173301D01*
X11148995Y8174226D01*
X11148533Y8175151D01*
X11148440Y8175243D01*
X11148256Y8175520D01*
X11147886Y8175890D01*
X11147516Y8176445D01*
X11146869Y8176907D01*
X11146222Y8177462D01*
X11145482Y8177924D01*
X11144557Y8178294D01*
X11144465D01*
X11144095Y8178479D01*
X11143448Y8178571D01*
X11142616Y8178756D01*
X11141506Y8178941D01*
X11140119Y8179034D01*
X11138455Y8179219D01*
X11136514D01*
X11092412D01*
Y8187725D01*
X11136051D01*
X11136144D01*
X11136421D01*
X11136791D01*
X11137346D01*
X11138085Y8187632D01*
D02*
G37*
G36*
X10465088Y6866495D02*
X10428105D01*
X10428013D01*
X10427736D01*
X10427273D01*
X10426719D01*
X10426071Y6866403D01*
X10425239D01*
X10423483Y6866310D01*
X10421449Y6866125D01*
X10419415Y6865848D01*
X10417473Y6865478D01*
X10416641Y6865293D01*
X10415809Y6865016D01*
X10415624Y6864923D01*
X10415162Y6864738D01*
X10414514Y6864276D01*
X10413590Y6863721D01*
X10412665Y6863074D01*
X10411648Y6862150D01*
X10410631Y6861040D01*
X10409799Y6859746D01*
X10409707Y6859561D01*
X10409429Y6859099D01*
X10409152Y6858266D01*
X10408782Y6857157D01*
X10408320Y6855863D01*
X10408042Y6854198D01*
X10407765Y6852442D01*
X10407673Y6850500D01*
Y6849576D01*
X10407765Y6849021D01*
Y6848189D01*
X10407858Y6847357D01*
X10408227Y6845323D01*
X10408690Y6843104D01*
X10409429Y6840977D01*
X10410446Y6838943D01*
X10411093Y6838019D01*
X10411833Y6837186D01*
X10411926Y6837094D01*
X10412018Y6837002D01*
X10412295Y6836817D01*
X10412665Y6836539D01*
X10413220Y6836262D01*
X10413775Y6835892D01*
X10414607Y6835522D01*
X10415439Y6835152D01*
X10416456Y6834783D01*
X10417658Y6834505D01*
X10419045Y6834135D01*
X10420524Y6833858D01*
X10422188Y6833581D01*
X10423945Y6833396D01*
X10425979Y6833211D01*
X10428105D01*
X10465088D01*
Y6824705D01*
X10428105D01*
X10428013D01*
X10427643D01*
X10427181D01*
X10426534D01*
X10425702Y6824797D01*
X10424777D01*
X10423667Y6824890D01*
X10422558Y6824982D01*
X10420062Y6825260D01*
X10417473Y6825629D01*
X10414977Y6826184D01*
X10413775Y6826554D01*
X10412665Y6826924D01*
X10412573D01*
X10412388Y6827016D01*
X10412110Y6827201D01*
X10411741Y6827386D01*
X10410724Y6827941D01*
X10409429Y6828773D01*
X10407950Y6829882D01*
X10406471Y6831177D01*
X10404899Y6832841D01*
X10403512Y6834875D01*
Y6834968D01*
X10403327Y6835152D01*
X10403235Y6835430D01*
X10402957Y6835892D01*
X10402680Y6836447D01*
X10402403Y6837186D01*
X10402125Y6837926D01*
X10401755Y6838851D01*
X10401386Y6839868D01*
X10401108Y6840977D01*
X10400831Y6842179D01*
X10400553Y6843566D01*
X10400369Y6844953D01*
X10400184Y6846432D01*
X10399999Y6849760D01*
Y6850593D01*
X10400091Y6851240D01*
Y6851979D01*
X10400184Y6852904D01*
X10400276Y6853921D01*
X10400369Y6854938D01*
X10400738Y6857249D01*
X10401293Y6859746D01*
X10402033Y6862150D01*
X10403050Y6864461D01*
Y6864553D01*
X10403235Y6864738D01*
X10403420Y6865016D01*
X10403605Y6865386D01*
X10404344Y6866403D01*
X10405361Y6867605D01*
X10406656Y6868991D01*
X10408135Y6870286D01*
X10409984Y6871580D01*
X10412018Y6872597D01*
X10412110D01*
X10412295Y6872690D01*
X10412665Y6872782D01*
X10413128Y6872967D01*
X10413682Y6873152D01*
X10414422Y6873337D01*
X10415254Y6873614D01*
X10416271Y6873799D01*
X10417380Y6873984D01*
X10418582Y6874261D01*
X10419877Y6874446D01*
X10421264Y6874631D01*
X10422835Y6874816D01*
X10424500Y6874909D01*
X10426256Y6875001D01*
X10428105D01*
X10465088D01*
Y6866495D01*
D02*
G37*
G36*
X10402865Y6814812D02*
X10403697Y6814720D01*
X10404622Y6814535D01*
X10405546Y6814350D01*
X10406563Y6813980D01*
X10406656D01*
X10406748Y6813888D01*
X10407303Y6813703D01*
X10408135Y6813333D01*
X10409244Y6812778D01*
X10410539Y6812038D01*
X10412018Y6811114D01*
X10413497Y6810097D01*
X10415069Y6808802D01*
X10415162D01*
X10415254Y6808618D01*
X10415809Y6808155D01*
X10416641Y6807323D01*
X10417843Y6806121D01*
X10419230Y6804734D01*
X10420894Y6802978D01*
X10422743Y6800851D01*
X10424685Y6798540D01*
X10424777Y6798447D01*
X10425054Y6798078D01*
X10425517Y6797523D01*
X10426071Y6796876D01*
X10426811Y6796044D01*
X10427643Y6795027D01*
X10428568Y6794010D01*
X10429585Y6792808D01*
X10431804Y6790496D01*
X10434023Y6788185D01*
X10435132Y6787075D01*
X10436242Y6786058D01*
X10437259Y6785134D01*
X10438276Y6784394D01*
X10438368D01*
X10438460Y6784209D01*
X10438738Y6784024D01*
X10439108Y6783839D01*
X10440125Y6783192D01*
X10441327Y6782453D01*
X10442806Y6781805D01*
X10444378Y6781158D01*
X10446134Y6780788D01*
X10447799Y6780603D01*
X10447891D01*
X10447983D01*
X10448538Y6780696D01*
X10449463Y6780788D01*
X10450480Y6781066D01*
X10451774Y6781436D01*
X10453069Y6782083D01*
X10454363Y6782915D01*
X10455657Y6784024D01*
X10455842Y6784209D01*
X10456212Y6784671D01*
X10456674Y6785319D01*
X10457321Y6786336D01*
X10457876Y6787630D01*
X10458431Y6789109D01*
X10458801Y6790866D01*
X10458893Y6792808D01*
Y6793362D01*
X10458801Y6793732D01*
X10458708Y6794842D01*
X10458431Y6796136D01*
X10458061Y6797523D01*
X10457414Y6799095D01*
X10456582Y6800574D01*
X10455472Y6801961D01*
X10455287Y6802146D01*
X10454825Y6802515D01*
X10454086Y6803070D01*
X10452976Y6803625D01*
X10451682Y6804272D01*
X10450017Y6804827D01*
X10448168Y6805197D01*
X10446042Y6805382D01*
X10446874Y6813425D01*
X10446966D01*
X10447244Y6813333D01*
X10447706D01*
X10448353Y6813240D01*
X10449093Y6813055D01*
X10449925Y6812871D01*
X10450942Y6812593D01*
X10451959Y6812316D01*
X10454178Y6811576D01*
X10456397Y6810467D01*
X10457506Y6809820D01*
X10458616Y6808987D01*
X10459633Y6808155D01*
X10460557Y6807231D01*
X10460650Y6807138D01*
X10460742Y6806953D01*
X10461020Y6806676D01*
X10461297Y6806214D01*
X10461667Y6805659D01*
X10462037Y6805012D01*
X10462499Y6804272D01*
X10462961Y6803348D01*
X10463424Y6802331D01*
X10463886Y6801221D01*
X10464256Y6800019D01*
X10464626Y6798725D01*
X10464903Y6797338D01*
X10465180Y6795859D01*
X10465273Y6794287D01*
X10465365Y6792623D01*
Y6791698D01*
X10465273Y6791051D01*
X10465180Y6790311D01*
X10465088Y6789387D01*
X10464903Y6788370D01*
X10464718Y6787353D01*
X10464071Y6784949D01*
X10463146Y6782545D01*
X10462591Y6781343D01*
X10461944Y6780141D01*
X10461112Y6779032D01*
X10460188Y6778015D01*
X10460095Y6777922D01*
X10460003Y6777737D01*
X10459633Y6777552D01*
X10459263Y6777183D01*
X10458801Y6776720D01*
X10458154Y6776258D01*
X10457506Y6775796D01*
X10456674Y6775241D01*
X10454918Y6774316D01*
X10452699Y6773392D01*
X10451589Y6773022D01*
X10450295Y6772837D01*
X10449000Y6772652D01*
X10447614Y6772560D01*
X10447429D01*
X10446966D01*
X10446227Y6772652D01*
X10445210Y6772745D01*
X10444100Y6772930D01*
X10442806Y6773299D01*
X10441419Y6773669D01*
X10440032Y6774224D01*
X10439847Y6774316D01*
X10439385Y6774501D01*
X10438645Y6774871D01*
X10437628Y6775426D01*
X10436519Y6776166D01*
X10435132Y6777090D01*
X10433745Y6778200D01*
X10432173Y6779494D01*
X10431989Y6779679D01*
X10431434Y6780141D01*
X10430972Y6780603D01*
X10430509Y6781066D01*
X10429955Y6781620D01*
X10429215Y6782360D01*
X10428475Y6783100D01*
X10427643Y6784024D01*
X10426719Y6784949D01*
X10425702Y6786058D01*
X10424685Y6787260D01*
X10423483Y6788555D01*
X10422281Y6790034D01*
X10420986Y6791513D01*
X10420894Y6791606D01*
X10420709Y6791791D01*
X10420432Y6792160D01*
X10420062Y6792623D01*
X10419507Y6793177D01*
X10418952Y6793825D01*
X10417750Y6795304D01*
X10416363Y6796876D01*
X10414977Y6798355D01*
X10413775Y6799649D01*
X10413312Y6800204D01*
X10412850Y6800666D01*
X10412758Y6800759D01*
X10412480Y6801036D01*
X10412110Y6801406D01*
X10411556Y6801868D01*
X10410909Y6802331D01*
X10410261Y6802885D01*
X10408690Y6803995D01*
Y6772467D01*
X10401108D01*
Y6814905D01*
X10401201D01*
X10401571D01*
X10402125D01*
X10402865Y6814812D01*
D02*
G37*
D55*
X10064750Y6485285D02*
X10735249D01*
Y7264715D01*
X10064750D01*
Y6485285D01*
X10779999Y7660498D02*
X11534999D01*
Y8644499D01*
X10779999D01*
Y7660498D01*
%TF.MD5,e93a491be964b8c1fe7559d2045b871e*%
M02*
