%TF.GenerationSoftware,Altium Limited,Altium Designer,21.1.1 (26)*%
G04 Layer_Color=128*
%FSLAX45Y45*%
%MOMM*%
%TF.SameCoordinates,A571FDB6-1603-443E-89CE-D3154019B6F4*%
%TF.FilePolarity,Positive*%
%TF.FileFunction,Drillmap*%
%TF.Part,Single*%
G01*
G75*
%TA.AperFunction,NonConductor*%
%ADD95C,0.12700*%
D95*
X6170000Y6150000D02*
Y6470000D01*
X6330000Y6310000D02*
X6010000D01*
X6370000Y6738000D02*
Y6992000D01*
X6497000Y6865000D02*
X6243000D01*
X7584500Y7119000D02*
X7695500D01*
X7640000Y7174500D02*
Y7063500D01*
X8055000Y6847500D02*
Y6887500D01*
X8035000Y6867500D02*
X8075000D01*
X8139999Y6680002D02*
X8179999D01*
X8159999Y6660002D02*
Y6700002D01*
X8330001Y6782501D02*
X8370001D01*
X8350001Y6762501D02*
Y6802501D01*
X8405002Y6557498D02*
X8445002D01*
X8425002Y6537498D02*
Y6577498D01*
X8470001Y6365001D02*
X8510001D01*
X8490001Y6385001D02*
Y6345001D01*
X8838498Y6312860D02*
X8928498D01*
X9092498D02*
X9182498D01*
X9346498D02*
X9436498D01*
X9600498D02*
X9690498D01*
X9854498D02*
X9944498D01*
X10108498D02*
X10198498D01*
X10153498Y6357860D02*
Y6267860D01*
X9899498Y6357860D02*
Y6267860D01*
X9645498Y6357860D02*
Y6267860D01*
X9391498Y6357860D02*
Y6267860D01*
X9137498Y6357860D02*
Y6267860D01*
X8883498Y6357860D02*
Y6267860D01*
X9535003Y6637503D02*
X9575002D01*
X9555002Y6617503D02*
Y6657503D01*
X9540001Y6772501D02*
Y6797500D01*
X9527501Y6785000D02*
X9552501D01*
X9705000Y6774998D02*
X9745000D01*
X9725000Y6754998D02*
Y6794998D01*
X9597502Y6956002D02*
Y7046002D01*
X9552502Y7001002D02*
X9642502D01*
X9887501Y7275002D02*
X9912500D01*
X10030003Y7475002D02*
X10070003D01*
X10050003Y7455002D02*
Y7495002D01*
X9975002Y7636924D02*
Y7661923D01*
X9962502Y7649423D02*
X9987501D01*
X10320000Y8082500D02*
X10345000D01*
X10332500Y8070000D02*
Y8095000D01*
X10052500Y8017500D02*
X10027500D01*
X10040000Y8005000D02*
Y8030000D01*
X9725254Y8204482D02*
Y8224482D01*
X9715254Y8214482D02*
X9735254D01*
X9725254Y8314479D02*
Y8334479D01*
X9715254Y8324479D02*
X9735254D01*
Y8104480D02*
X9715254D01*
X9725254Y8094480D02*
Y8114480D01*
Y8004482D02*
Y7984482D01*
X9715254Y7994482D02*
X9735254D01*
Y7884480D02*
X9715254D01*
X9725254Y7874480D02*
Y7894480D01*
X9615256Y8204482D02*
Y8224482D01*
X9605256Y8214482D02*
X9625256D01*
X9615256Y8314479D02*
Y8334479D01*
X9605256Y8324479D02*
X9625256D01*
X9515254D02*
X9495254D01*
X9505254Y8314479D02*
Y8334479D01*
X9405257Y8324479D02*
X9385257D01*
X9395257Y8314479D02*
Y8334479D01*
Y8224482D02*
Y8204482D01*
X9385257Y8214482D02*
X9405257D01*
X9495254D02*
X9515254D01*
X9505254Y8204482D02*
Y8224482D01*
Y8114480D02*
Y8094480D01*
X9495254Y8104480D02*
X9515254D01*
X9605256D02*
X9625256D01*
X9615256Y8094480D02*
Y8114480D01*
Y8004482D02*
Y7984482D01*
X9605256Y7994482D02*
X9625256D01*
X9515254D02*
X9495254D01*
X9505254Y7984482D02*
Y8004482D01*
X9405257Y7994482D02*
X9385257D01*
X9395257Y7984482D02*
Y8004482D01*
Y8094480D02*
Y8114480D01*
X9385257Y8104480D02*
X9405257D01*
Y7884480D02*
X9385257D01*
X9395257Y7874480D02*
Y7894480D01*
X9295254Y7884480D02*
X9275254D01*
X9285254Y7874480D02*
Y7894480D01*
Y7984482D02*
Y8004482D01*
X9275254Y7994482D02*
X9295254D01*
X9285254Y8094480D02*
Y8114480D01*
X9275254Y8104480D02*
X9295254D01*
X9495254Y7884480D02*
X9515254D01*
X9505254Y7874480D02*
Y7894480D01*
X9605256Y7884480D02*
X9625256D01*
X9615256Y7874480D02*
Y7894480D01*
X9285254Y8204482D02*
Y8224482D01*
X9275254Y8214482D02*
X9295254D01*
X9285254Y8314479D02*
Y8334479D01*
X9275254Y8324479D02*
X9295254D01*
X8907501Y8624999D02*
Y8649998D01*
X8895001Y8637499D02*
X8920000D01*
X9262498Y8805001D02*
X9287498D01*
X9274998Y8792502D02*
Y8817501D01*
X9287502Y8974999D02*
X9312502D01*
X9300002Y8962499D02*
Y8987498D01*
Y9237499D02*
Y9262499D01*
X9287502Y9249999D02*
X9312502D01*
X9400002Y9560001D02*
Y9600001D01*
X9420001Y9580001D02*
X9380002D01*
X9100002Y9562501D02*
X9060002D01*
X9080002Y9542501D02*
Y9582501D01*
X8785001Y9567499D02*
X8745002D01*
X8765002Y9547499D02*
Y9587499D01*
X8497499Y9562501D02*
X8457499D01*
X8477499Y9542501D02*
Y9582501D01*
X8372498Y9080002D02*
X8347499D01*
X8359999Y9067502D02*
Y9092502D01*
X8365002Y8889998D02*
Y8864998D01*
X8352502Y8877498D02*
X8377502D01*
X8346760Y8639259D02*
Y8614260D01*
X8334260Y8626759D02*
X8359260D01*
X8392500Y8239999D02*
X8432500D01*
X8412500Y8219999D02*
Y8259999D01*
Y8079999D02*
Y8039999D01*
X8392500Y8059999D02*
X8432500D01*
X8407500Y7907503D02*
X8382500D01*
X8395000Y7895003D02*
Y7920002D01*
X8397499Y7785001D02*
Y7760002D01*
X8384999Y7772502D02*
X8409999D01*
X8630003Y7460000D02*
X8655002D01*
X8642502Y7447500D02*
Y7472500D01*
X8522498Y7169998D02*
X8482498D01*
X8502498Y7149998D02*
Y7189998D01*
X8485002Y6960001D02*
X8445002D01*
X8465002Y6940001D02*
Y6980001D01*
X8237499Y6982501D02*
X8197499D01*
X8217499Y6962501D02*
Y7002501D01*
X7695500Y7373000D02*
X7584500D01*
X7640000Y7317500D02*
Y7428500D01*
Y7571500D02*
Y7682500D01*
X7695500Y7627000D02*
X7584500D01*
X7640000Y7825500D02*
Y7936500D01*
X7695500Y7881000D02*
X7584500D01*
X7640000Y8079500D02*
Y8190500D01*
X7695500Y8135000D02*
X7584500D01*
X7640000Y8333500D02*
Y8444500D01*
X7695500Y8389000D02*
X7584500D01*
X7640000Y8587500D02*
Y8698500D01*
X7695500Y8643000D02*
X7584500D01*
X7999999Y9092400D02*
Y9207599D01*
X7942399Y9149999D02*
X8057599D01*
X8599998Y8637502D02*
Y8612502D01*
X8587498Y8625002D02*
X8612498D01*
X8742499Y8250001D02*
X8767499D01*
X8754999Y8237501D02*
Y8262501D01*
X8964998Y8067502D02*
X8989998D01*
X8977498Y8055002D02*
Y8080002D01*
X8940000Y7942499D02*
X8915001D01*
X8927501Y7929999D02*
Y7954999D01*
X9502503Y7477501D02*
X9527502D01*
X9515003Y7465001D02*
Y7490001D01*
X9552502Y7255002D02*
X9642502D01*
X9597502Y7210002D02*
Y7300002D01*
X9900001Y7287502D02*
Y7262502D01*
X9800001Y7370000D02*
Y7395000D01*
X9787501Y7382500D02*
X9812501D01*
X9784999Y7494998D02*
Y7519998D01*
X9772500Y7507498D02*
X9797499D01*
X10617502Y7309998D02*
X10642501D01*
X10630002Y7297498D02*
Y7322498D01*
X10912502Y7140001D02*
X10937502D01*
X10925002Y7127501D02*
Y7152501D01*
X11135001Y7172498D02*
X11160001D01*
X11147501Y7159998D02*
Y7184998D01*
X11090001Y7247501D02*
Y7272501D01*
X11077501Y7260001D02*
X11102501D01*
X11325001Y6960001D02*
X11365001D01*
X11345001Y6940001D02*
Y6980001D01*
X11339998Y7200001D02*
Y7240001D01*
X11319998Y7220001D02*
X11359998D01*
X11342502Y7455002D02*
Y7495002D01*
X11322502Y7475002D02*
X11362502D01*
X11305002Y7630503D02*
Y7810503D01*
X11215002Y7720503D02*
X11395001D01*
X10999998Y8015003D02*
Y8040002D01*
X10987498Y8027502D02*
X11012498D01*
X11077501Y7777500D02*
X11102501D01*
X11090001Y7765000D02*
Y7790000D01*
X10975002Y7720503D02*
X10835002D01*
X10905002Y7650503D02*
Y7790503D01*
X10897499Y7477501D02*
Y7437501D01*
X10877499Y7457501D02*
X10917499D01*
X10685001Y7449998D02*
X10660001D01*
X10672501Y7437498D02*
Y7462498D01*
X10997501Y8302498D02*
X11022501D01*
X11010001Y8289998D02*
Y8314998D01*
X11215002Y8584499D02*
X11395001D01*
X11305002Y8494499D02*
Y8674499D01*
X11310000Y8799998D02*
Y8839998D01*
X11290000Y8819998D02*
X11330000D01*
X11312500Y9094998D02*
Y9134998D01*
X11292500Y9114998D02*
X11332500D01*
X11199998Y9240002D02*
Y9560001D01*
X11359998Y9400002D02*
X11039998D01*
X10967502Y9552498D02*
Y9592498D01*
X10947502Y9572498D02*
X10987502D01*
X10750001Y9575002D02*
X10710001D01*
X10730001Y9555002D02*
Y9595002D01*
X10830001Y9402501D02*
X10870001D01*
X10850001Y9422501D02*
Y9382501D01*
X10852501Y9189999D02*
Y9149999D01*
X10832501Y9169999D02*
X10872500D01*
X10857499Y8962502D02*
Y8922502D01*
X10837499Y8942502D02*
X10877499D01*
X10905002Y8654499D02*
Y8514499D01*
X10835002Y8584499D02*
X10975002D01*
X11080000Y8505002D02*
X11105000D01*
X11092500Y8492502D02*
Y8517502D01*
X11094999Y9059999D02*
Y9084999D01*
X11082500Y9072499D02*
X11107499D01*
X10457352Y8974999D02*
X10350653D01*
X10404003Y8921649D02*
Y9028348D01*
X10049998Y9359999D02*
Y9384998D01*
X10037498Y9372498D02*
X10062498D01*
X9949352Y9076599D02*
X9842653D01*
X9896003Y9023249D02*
Y9129948D01*
Y8926748D02*
Y8820049D01*
X9842653Y8873399D02*
X9949352D01*
X10112499Y8499998D02*
X10137499D01*
X10124999Y8487498D02*
Y8512498D01*
X10387500Y8599998D02*
X10412499D01*
X10400000Y8587498D02*
Y8612498D01*
X10450000Y8497500D02*
X10475000D01*
X10462500Y8485000D02*
Y8510000D01*
X10592501Y8539998D02*
X10632501D01*
X10612501Y8519998D02*
Y8559998D01*
X9849998Y9219999D02*
Y9244999D01*
X9837498Y9232499D02*
X9862498D01*
X8889997Y9054998D02*
X8869997D01*
X8879997Y9044998D02*
Y9064998D01*
X8780000Y9054998D02*
X8760000D01*
X8770000Y9044998D02*
Y9064998D01*
Y8955001D02*
Y8935001D01*
X8760000Y8945001D02*
X8780000D01*
X8869997D02*
X8889997D01*
X8879997Y8935001D02*
Y8955001D01*
X6497000Y8897000D02*
X6243000D01*
X6370000Y8770000D02*
Y9024000D01*
X6177498Y9274998D02*
Y9594998D01*
X6337498Y9434998D02*
X6017499D01*
X11039998Y6400002D02*
X11359998D01*
X11199998Y6560002D02*
Y6240003D01*
%TF.MD5,9f76ce0dddbb136a4db4d864df524d63*%
M02*
