%TF.GenerationSoftware,Altium Limited,Altium Designer,21.1.1 (26)*%
G04 Layer_Color=16711935*
%FSLAX45Y45*%
%MOMM*%
%TF.SameCoordinates,A571FDB6-1603-443E-89CE-D3154019B6F4*%
%TF.FilePolarity,Positive*%
%TF.FileFunction,Other,Mechanical_13*%
%TF.Part,Single*%
G01*
G75*
%TA.AperFunction,NonConductor*%
%ADD69C,0.10000*%
%ADD72C,0.17500*%
%ADD73C,0.25400*%
%ADD96C,0.15000*%
D69*
X8625002Y8799998D02*
Y9200002D01*
X9025001D01*
Y8799998D01*
X8625002D01*
X9290256Y8369480D02*
G03*
X9290256Y8369480I-50000J0D01*
G01*
X9150253Y8459480D02*
X9860255D01*
Y7749479D01*
X9150253D01*
Y8459480D01*
X9893339Y7975000D02*
X9926661D01*
X9910000Y7958339D02*
Y7991661D01*
X11033338Y6660000D02*
X11066660D01*
X11049999Y6643339D02*
Y6676662D01*
D72*
X8415000Y7527498D02*
Y7872755D01*
X8684743D01*
X8677499Y7837500D02*
Y7977500D01*
X8447502D01*
Y7837500D01*
X8677499D01*
X8692500D02*
Y7977500D01*
X8922502D01*
Y7837500D01*
X8692500D01*
X8857244Y7872755D02*
Y7492502D01*
X8450001D01*
X8415000Y7527498D01*
X8857244Y7872755D02*
X8589747D01*
X8692500Y7962499D02*
X8922502D01*
Y8102498D01*
X8692500D01*
Y7962499D01*
X8940002Y7810002D02*
Y8039999D01*
X9080002D01*
Y7810002D01*
X8940002D01*
X9440001Y7517501D02*
Y7682499D01*
X9740001D01*
Y7517501D01*
X9440001D01*
X9720001Y7540000D02*
X9949998D01*
Y7680000D01*
X9720001D01*
Y7540000D01*
X9935002Y7655001D02*
X10164999D01*
Y7795001D01*
X9935002D01*
Y7655001D01*
Y7804998D02*
X10164999D01*
Y7944998D01*
X9935002D01*
Y7804998D01*
X10184100Y7564298D02*
X10615900D01*
Y7335698D01*
X10184100D01*
Y7564298D01*
X10810702Y7090903D02*
X11039302D01*
Y6659103D01*
X10810702D01*
Y7090903D01*
X11079998Y6685001D02*
X11220003D01*
Y6915003D01*
X11079998D01*
Y6685001D01*
X11219998Y6909999D02*
Y7140001D01*
X11079998D01*
Y6909999D01*
X11219998D01*
X10070003Y8295000D02*
Y8525002D01*
X9929998D01*
Y8295000D01*
X10070003D01*
X10499999Y8785001D02*
Y9165001D01*
X9800001D01*
Y8785001D01*
X10499999D01*
X10340000Y9180002D02*
Y9320002D01*
X10110003D01*
Y9180002D01*
X10340000D01*
X10115001D02*
Y9320002D01*
X9884999D01*
Y9180002D01*
X10115001D01*
X9765000Y9045001D02*
Y8905001D01*
X9535003D01*
Y9045001D01*
X9765000D01*
X9565000D02*
X9334998D01*
Y8905001D01*
X9565000D01*
Y9045001D01*
X9495003Y8914999D02*
Y8685002D01*
X9354998D01*
Y8914999D01*
X9495003D01*
X9245001Y8972499D02*
Y8742502D01*
X9105001D01*
Y8972499D01*
X9245001D01*
X9365000Y8670000D02*
X9134998D01*
Y8530001D01*
X9365000D01*
Y8670000D01*
X9070000Y8442498D02*
X8930000D01*
Y8212501D01*
X9070000D01*
Y8442498D01*
X8957498Y8475000D02*
X8792500D01*
Y8175000D01*
X8957498D01*
Y8475000D01*
X8860003Y8707501D02*
Y8567501D01*
X8630001D01*
Y8707501D01*
X8860003D01*
X8534999Y9017498D02*
Y9247500D01*
X8395000D01*
Y9017498D01*
X8534999D01*
X8542503Y9042502D02*
X8402498D01*
Y8812500D01*
X8542503D01*
Y9042502D01*
D73*
X8533680Y7587500D02*
G03*
X8533680Y7587500I-11180J0D01*
G01*
X10048433Y8898824D02*
X10023041Y8924216D01*
Y8949608D01*
X10048433Y8975000D01*
X10073825D01*
X10048433D01*
X10023041Y9000391D01*
Y9025783D01*
X10048433Y9051175D01*
X10099216D01*
X10124608Y9025783D01*
Y8924216D02*
X10099216Y8898824D01*
X10048433D01*
X10175392D02*
X10226175D01*
X10200784D01*
Y9025783D01*
X10226175Y9051175D01*
X10251567D01*
X10276959Y9025783D01*
D96*
X8570855Y7632516D02*
X8637500Y7732484D01*
X8687484D02*
X8670823Y7715823D01*
X8687484Y7732484D02*
Y7632516D01*
X8704145D01*
X8670823D01*
X8637500D02*
X8570855Y7732484D01*
X8570831Y7870216D02*
X8554170D01*
Y7970184D01*
X8537508Y7953522D01*
X8504185D02*
X8487524Y7970184D01*
X8454202D01*
X8437540Y7953522D01*
Y7886877D01*
X8454202Y7870216D01*
X8487524D01*
X8504185Y7886877D01*
X8620815Y7953522D02*
X8637476Y7970184D01*
X8670799D01*
X8687460Y7953522D01*
Y7936861D01*
X8620815Y7870216D01*
X8687460D01*
X8682540Y7861477D02*
Y7878138D01*
X8699202Y7894800D01*
X8715863D01*
X8699202D01*
X8682540Y7911461D01*
Y7928122D01*
X8699202Y7944783D01*
X8732524D01*
X8749185Y7928122D01*
Y7982516D02*
X8715863Y8015839D01*
X8732524D02*
X8682540D01*
Y7982516D02*
Y8082484D01*
X8732524D01*
X8749185Y8065823D01*
Y8032500D01*
X8732524Y8015839D01*
X8782508Y7982516D02*
X8815831D01*
X8799170D01*
Y8082484D01*
X8782508Y8065823D01*
X8865815D02*
X8882476Y8082484D01*
X8915799D01*
X8932460Y8065823D01*
Y7999178D01*
X8915799Y7982516D01*
X8882476D01*
X8865815Y7999178D01*
Y8065823D01*
X8882476Y7944783D02*
X8865815Y7928122D01*
X8882476Y7944783D02*
X8915798D01*
X8932460Y7928122D01*
Y7861477D01*
X8915798Y7844816D01*
X8882476D01*
X8865815Y7861477D01*
X8832492D02*
X8815830Y7844816D01*
Y7944783D01*
X8799169D01*
X8832492D01*
X8749185Y7861477D02*
X8732524Y7844816D01*
X8699202D01*
X8682540Y7861477D01*
X8972716Y7850024D02*
Y7816701D01*
X8989378Y7800040D01*
X9006039D01*
X9022700Y7816701D01*
Y7866685D01*
X8989378D01*
X8972716Y7850024D01*
X9022700Y7866685D02*
X9056023Y7833363D01*
X9072684Y7800040D01*
Y7933330D02*
X9056023Y7949992D01*
Y7983314D02*
X9072684Y7999976D01*
Y8033298D01*
X9056023Y8049960D01*
X8989378D01*
X8972716Y8033298D01*
Y7999976D01*
X8989378Y7983314D01*
X8972716Y7949992D02*
Y7916669D01*
Y7933330D01*
X9072684D01*
X9020623Y8202540D02*
X9037284Y8219202D01*
Y8252524D01*
X9020623Y8269185D01*
X9037284Y8302508D02*
Y8335831D01*
Y8319170D01*
X8937316D01*
X8953978Y8302508D01*
X8924984Y8300008D02*
Y8333331D01*
Y8316670D01*
X8825016D01*
X8841678Y8300008D01*
Y8266686D02*
X8825016Y8250024D01*
Y8216702D01*
X8841678Y8200040D01*
X8908323D01*
X8924984Y8216702D01*
Y8250024D01*
X8908323Y8266686D01*
X8937316Y8252524D02*
Y8219202D01*
X8953978Y8202540D01*
X9020623D01*
X8953978Y8269185D02*
X8937316Y8252524D01*
X9175024Y8537316D02*
X9191685Y8553977D01*
Y8570638D01*
X9175024Y8587300D01*
X9125040D01*
Y8620622D02*
Y8553977D01*
X9141702Y8537316D01*
X9175024D01*
X9258330D02*
X9274992Y8553977D01*
X9308315D02*
X9324976Y8537316D01*
X9358298D01*
X9374960Y8553977D01*
Y8620622D01*
X9358298Y8637283D01*
X9324976D01*
X9308315Y8620622D01*
X9191685D02*
X9175024Y8637283D01*
X9141702D01*
X9125040Y8620622D01*
X9037284Y8435798D02*
Y8402476D01*
X9020623Y8385815D01*
X8987300D02*
X8970639Y8419137D01*
Y8435798D01*
X8987300Y8452460D01*
X9020623D01*
X9037284Y8435798D01*
X8987300Y8385815D02*
X8937316D01*
Y8452460D01*
X8924984Y8433299D02*
X8825016D01*
X8875000Y8383315D01*
Y8449960D01*
X8811645Y8574816D02*
X8828306Y8591477D01*
Y8658122D01*
X8811645Y8674784D01*
X8778323D01*
X8761661Y8658122D01*
X8728339D02*
X8711677Y8674784D01*
X8678355D01*
X8661694Y8658122D01*
Y8624800D01*
X8678355Y8608138D01*
X8695016D01*
X8728339Y8624800D01*
Y8574816D01*
X8661694D01*
X8778323D02*
X8811645D01*
X8778323D02*
X8761661Y8591477D01*
X9112316Y8790855D02*
X9128977Y8774194D01*
X9195622D01*
X9212284Y8790855D01*
Y8824178D01*
X9195622Y8840839D01*
X9162300Y8874162D02*
Y8940807D01*
X9212284Y8924145D02*
X9112316D01*
X9162300Y8874162D01*
X9375016Y8841653D02*
X9408339Y8874976D01*
Y8858314D02*
Y8908298D01*
X9400016Y8941677D02*
X9433339Y8975000D01*
Y9008322D01*
X9416677Y9024983D01*
X9383355D01*
X9366693Y9008322D01*
Y8991661D01*
X9383355Y8975000D01*
X9433339D01*
X9466661D02*
X9483322Y8991661D01*
X9533306D01*
Y9024983D02*
Y8925016D01*
X9483322D01*
X9466661Y8941677D01*
Y8975000D01*
X9499984Y8991661D02*
X9466661Y9024983D01*
X9566694Y9024984D02*
X9616677D01*
X9633339Y9008323D01*
Y8975000D01*
X9616677Y8958339D01*
X9566694D01*
Y8925016D02*
Y9024984D01*
X9600016Y8958339D02*
X9633339Y8925016D01*
X9474984Y8908298D02*
Y8858314D01*
X9458322Y8841653D01*
X9425000D01*
X9408339Y8858314D01*
X9458322Y8808330D02*
X9474984Y8791669D01*
X9375016D01*
Y8775008D01*
Y8808330D01*
Y8725024D02*
Y8691701D01*
Y8708363D01*
X9474984D01*
X9458322Y8725024D01*
X9683323Y8925016D02*
X9666661Y8941678D01*
Y8975000D02*
X9699984Y8991661D01*
X9716645D01*
X9733306Y8975000D01*
Y8941678D01*
X9716645Y8925016D01*
X9683323D01*
X9666661Y8975000D02*
Y9024984D01*
X9733306D01*
X9908363Y9212716D02*
X9941685D01*
X9958347Y9229378D01*
X9991669Y9212716D02*
X10024992D01*
X10008331D01*
Y9312684D01*
X9991669Y9296023D01*
X9958347D02*
X9941685Y9312684D01*
X9908363D01*
X9891702Y9296023D01*
Y9229378D01*
X9908363Y9212716D01*
X10074976D02*
X10108298D01*
X10091637D01*
Y9312684D01*
X10074976Y9296023D01*
X10141694Y9299984D02*
X10191678D01*
X10208339Y9283323D01*
Y9250000D01*
X10191678Y9233339D01*
X10141694D01*
Y9200016D02*
Y9299984D01*
X10175016Y9233339D02*
X10208339Y9200016D01*
X10241662Y9216678D02*
X10258323Y9200016D01*
X10291645D01*
X10308307Y9216678D01*
Y9283323D01*
X10291645Y9299984D01*
X10258323D01*
X10241662Y9283323D01*
Y9266661D01*
X10258323Y9250000D01*
X10308307D01*
X10037284Y8518299D02*
Y8484976D01*
X10020622Y8468315D01*
X10003961D01*
X9987300Y8484976D01*
X9970639Y8468315D01*
X9953977D01*
X9937316Y8484976D01*
Y8518299D01*
X9953977Y8534960D01*
X9970639D01*
X9987300Y8518299D01*
X10003961Y8534960D01*
X10020622D01*
X10037284Y8518299D01*
X9987300D02*
Y8484976D01*
X10037284Y8418331D02*
Y8401670D01*
X9937316D01*
X9953977Y8385008D01*
X10037284D02*
Y8418331D01*
Y8335024D02*
X10020622Y8351686D01*
X10037284Y8335024D02*
Y8301702D01*
X10020622Y8285041D01*
X9953977D01*
X9937316Y8301702D01*
Y8335024D01*
X9953977Y8351686D01*
X9966694Y7937684D02*
Y7837716D01*
X10016677D01*
X10033339Y7854377D01*
Y7921023D01*
X10016677Y7937684D01*
X9966694D01*
X10066661D02*
X10133306D01*
Y7921023D01*
X10066661Y7854377D01*
Y7837716D01*
Y7758323D02*
X10083323Y7774984D01*
X10116645D01*
X10133306Y7758323D01*
Y7741661D01*
X10116645Y7725000D01*
X10133306Y7708339D01*
Y7691678D01*
X10116645Y7675016D01*
X10083323D01*
X10066661Y7691678D01*
Y7708339D01*
X10083323Y7725000D01*
X10066661Y7741661D01*
Y7758323D01*
X10033339D02*
Y7725000D01*
X10016677Y7708339D01*
X9966694D01*
Y7675016D02*
Y7774984D01*
X10016677D01*
X10033339Y7758323D01*
X10000016Y7708339D02*
X10033339Y7675016D01*
X9959960Y7672684D02*
Y7656023D01*
X9893314Y7589378D01*
Y7572716D01*
X9843331D02*
X9826669D01*
Y7672684D01*
X9810008Y7656023D01*
X9776685D02*
X9760024Y7672684D01*
X9726702D01*
X9710040Y7656023D01*
Y7589378D01*
X9726702Y7572716D01*
X9760024D01*
X9776685Y7589378D01*
X9810008Y7572716D02*
X9843331D01*
X9714960Y7566678D02*
X9698299Y7550016D01*
X9664976D01*
X9648315Y7566678D01*
Y7633323D01*
X9664976Y7649984D01*
X9698299D01*
X9714960Y7633323D01*
Y7566678D01*
X9959960Y7672684D02*
X9893314D01*
X10083323Y7725000D02*
X10116645D01*
X10333355Y7499984D02*
X10316694Y7483323D01*
Y7466661D01*
X10333355Y7450000D01*
X10383339D01*
Y7483323D01*
X10366677Y7499984D01*
X10333355D01*
X10350016Y7416678D02*
X10383339Y7450000D01*
X10350016Y7416678D02*
X10316694Y7400016D01*
X10433323D02*
X10466645D01*
X10483306Y7416678D01*
Y7483323D01*
X10466645Y7499984D01*
X10433323D01*
X10416661Y7483323D01*
Y7416678D02*
X10433323Y7400016D01*
X10891677Y6958307D02*
X10875016Y6941645D01*
Y6908323D01*
X10891677Y6891662D01*
Y6858339D02*
X10875016D01*
X10891677D02*
X10958323Y6791694D01*
X10974984D01*
Y6858339D01*
Y6908323D02*
Y6941645D01*
X10958323Y6958307D01*
X10891677D01*
X11103978Y6849984D02*
X11137300Y6816662D01*
X11170623D01*
X11187284Y6833323D01*
Y6866645D01*
X11170623Y6883307D01*
X11153962D01*
X11137300Y6866645D01*
Y6816662D01*
X11103978Y6849984D02*
X11087316Y6883307D01*
X10974984Y6908323D02*
X10958323Y6891662D01*
X11100016Y7008338D02*
X11116678D01*
X11183323Y6941693D01*
X11199984D01*
Y7008338D01*
Y7058322D02*
X11183323Y7041661D01*
X11150000D01*
X11133339Y7058322D01*
Y7108306D01*
X11100016D02*
X11199984D01*
Y7058322D01*
X11187284Y6766678D02*
X11170623Y6783339D01*
X11103978D01*
X11087316Y6766678D01*
Y6716694D01*
X11187284D01*
Y6766678D01*
X11133339Y7074984D02*
X11100016Y7041661D01*
X9581670Y7649984D02*
X9565008Y7633323D01*
X9531686D02*
X9515024Y7649984D01*
X9481702D01*
X9465041Y7633323D01*
Y7566678D01*
X9481702Y7550016D01*
X9515024D01*
X9531686Y7566678D01*
X9565008Y7550016D02*
X9598331D01*
X9581670D01*
Y7649984D01*
X9258330Y8537316D02*
Y8637283D01*
X9241669D01*
X9274992D01*
X9400016Y8941677D02*
X9366693Y8925016D01*
X9375016Y8908298D02*
X9474984D01*
X9128977Y8840839D02*
X9112316Y8824178D01*
Y8790855D01*
X8502284Y9165822D02*
X8485622Y9149161D01*
X8502284Y9165822D02*
Y9199145D01*
X8485622Y9215806D01*
X8468961D01*
X8452300Y9199145D01*
Y9182484D01*
Y9199145D01*
X8435639Y9215806D01*
X8418977D01*
X8402316Y9199145D01*
Y9165822D01*
X8418977Y9149161D01*
Y9115838D02*
X8402316Y9099177D01*
Y9065855D01*
X8418977Y9049193D01*
X8485622D01*
X8502284Y9065855D01*
Y9099177D01*
X8485622Y9115838D01*
X8509784Y9010806D02*
Y8944161D01*
X8443139Y9010806D01*
X8426477D01*
X8409816Y8994145D01*
Y8960823D01*
X8426477Y8944161D01*
Y8910839D02*
X8409816Y8894178D01*
Y8860855D01*
X8426477Y8844194D01*
X8493122D01*
X8509784Y8860855D01*
Y8894178D01*
X8493122Y8910839D01*
X8537508Y7870216D02*
X8570831D01*
%TF.MD5,7af323b6097a7e3418e655692dc4f6c4*%
M02*
