%TF.GenerationSoftware,Altium Limited,Altium Designer,21.1.1 (26)*%
G04 Layer_Color=65535*
%FSLAX45Y45*%
%MOMM*%
%TF.SameCoordinates,A571FDB6-1603-443E-89CE-D3154019B6F4*%
%TF.FilePolarity,Positive*%
%TF.FileFunction,Legend,Top*%
%TF.Part,Single*%
G01*
G75*
%TA.AperFunction,NonConductor*%
%ADD55C,0.20000*%
%ADD69C,0.10000*%
%ADD70C,0.25000*%
%ADD71C,0.15240*%
%ADD72C,0.17500*%
%ADD73C,0.25400*%
D55*
X6116000Y6611000D02*
Y9151000D01*
X7894000D01*
Y6611000D01*
X6116000D01*
X8602497Y6734998D02*
X8802502D01*
Y6854998D01*
X8602497D01*
Y6734998D01*
X8756498Y6439860D02*
X10280498D01*
Y6185860D01*
X8756498D01*
Y6439860D01*
X8801202Y6897599D02*
Y7227799D01*
X8648802D01*
Y6897599D01*
X8801202D01*
Y7202399D02*
X8648802D01*
X8537499Y7493213D02*
X8414426D01*
Y7582499D01*
X9135257Y7734478D02*
Y7776982D01*
Y7734478D02*
X9177757D01*
X9457502Y7395002D02*
X9737501D01*
Y6861002D01*
X9457502D01*
Y7395002D01*
X9832757Y7734478D02*
X9875256D01*
Y7776982D01*
X10074753Y7050253D02*
X10725252D01*
Y6699748D01*
X10074753D01*
Y7050253D01*
X11032500Y7695499D02*
X11157499D01*
X11452499D02*
X11525001D01*
Y8609503D01*
X11452499D01*
X11157499D02*
X11032500D01*
X9875256Y8474481D02*
X9832757D01*
X9875256D02*
Y8431982D01*
X9177757Y8474481D02*
X9135257D01*
Y8431982D01*
X9040002Y8785001D02*
Y8817498D01*
Y8785001D02*
X9007500D01*
X8642502D02*
X8610001D01*
Y8817498D01*
X9007500Y9214998D02*
X9040002D01*
Y9182501D01*
X8642502Y9214998D02*
X8610001D01*
Y9182501D01*
D69*
X7940000Y7119000D02*
G03*
X7950000Y7119000I5000J0D01*
G01*
D02*
G03*
X7940000Y7119000I-5000J0D01*
G01*
D70*
X9082756Y8459480D02*
G03*
X9082756Y8459480I-12500J0D01*
G01*
X8962500Y9295000D02*
G03*
X8962500Y9295000I-12500J0D01*
G01*
X10745000Y7833000D02*
G03*
X10745000Y7833000I-12500J0D01*
G01*
X10762500Y7204500D02*
G03*
X10762500Y7204500I-12500J0D01*
G01*
X9405002Y7001002D02*
G03*
X9405002Y7001002I-12500J0D01*
G01*
D71*
X10311018Y7591659D02*
X10498978D01*
Y7698339D01*
X10311018D01*
Y7591659D01*
X10486238Y7721580D02*
Y7838420D01*
X10328758D01*
Y7721580D01*
X10486238D01*
X10523420Y8041258D02*
Y8198738D01*
X10406580D01*
Y8041258D01*
X10523420D01*
Y8231262D02*
Y8388742D01*
X10406580D01*
Y8231262D01*
X10523420D01*
X11039119Y8788481D02*
X11150879D01*
Y8981521D01*
X11039119D01*
Y8788481D01*
X11034121Y7509022D02*
X11145881D01*
Y7315982D01*
X11034121D01*
Y7509022D01*
D72*
X9800001Y8785001D02*
X10380000D01*
X10499999Y8905001D01*
Y9045001D01*
X10380000Y9165001D01*
X9800001D01*
Y8785001D01*
X10034717Y7939715D02*
X10160000D01*
Y7810287D01*
X10034717D01*
X11085286Y6784716D02*
Y6909999D01*
X11214715D01*
Y6784716D01*
D73*
X10377900Y6257894D02*
X10397894Y6237900D01*
X10437881D01*
X10457874Y6257894D01*
Y6297880D01*
X10417887D01*
X10457874Y6337868D02*
X10437881Y6357861D01*
X10397894D01*
X10377900Y6337868D01*
Y6257894D01*
X10497861Y6277887D02*
X10557842D01*
X10577835Y6297880D01*
Y6337868D01*
X10557842Y6357861D01*
X10497861D01*
Y6237900D01*
X10617822D02*
X10657809D01*
X10637816D02*
X10617822D01*
X10637816D02*
Y6357861D01*
X10657809D01*
X10617822D01*
X10717790Y6337868D02*
Y6257894D01*
X10737784Y6237900D01*
X10777771D01*
X10797764Y6257894D01*
Y6337868D01*
X10777771Y6357861D01*
X10737784D01*
X10717790Y6337868D01*
X10730303Y9222900D02*
X10750297Y9242894D01*
Y9322868D01*
X10730303Y9342861D01*
X10670322D01*
Y9222900D01*
X10730303D01*
X10630335D02*
Y9342861D01*
X10550361D02*
Y9222900D01*
X10590348Y9262887D01*
X10630335Y9222900D01*
X10510374Y9242894D02*
X10490381Y9222900D01*
X10450394D01*
X10430400Y9242894D01*
Y9302874D02*
X10450394Y9282881D01*
X10490381D01*
X10510374Y9262887D01*
Y9242894D01*
Y9322868D02*
X10490381Y9342861D01*
X10450394D01*
X10430400Y9322868D01*
Y9302874D01*
%TF.MD5,3a1e1c4e5d04e557bab26edd3224db2b*%
M02*
