%TF.GenerationSoftware,Altium Limited,Altium Designer,21.1.1 (26)*%
G04 Layer_Physical_Order=1*
G04 Layer_Color=255*
%FSLAX45Y45*%
%MOMM*%
%TF.SameCoordinates,A571FDB6-1603-443E-89CE-D3154019B6F4*%
%TF.FilePolarity,Positive*%
%TF.FileFunction,Copper,L1,Top,Signal*%
%TF.Part,Single*%
G01*
G75*
%TA.AperFunction,Conductor*%
%ADD10C,0.25000*%
%TA.AperFunction,ConnectorPad*%
%ADD11R,1.15000X0.30000*%
%TA.AperFunction,SMDPad,CuDef*%
%ADD12R,0.60000X0.35000*%
%TA.AperFunction,ConnectorPad*%
%ADD13R,1.15000X0.60000*%
%TA.AperFunction,SMDPad,CuDef*%
%ADD14R,0.80000X0.80000*%
%ADD15R,0.50000X0.60000*%
G04:AMPARAMS|DCode=16|XSize=0.6mm|YSize=0.54mm|CornerRadius=0.1431mm|HoleSize=0mm|Usage=FLASHONLY|Rotation=270.000|XOffset=0mm|YOffset=0mm|HoleType=Round|Shape=RoundedRectangle|*
%AMROUNDEDRECTD16*
21,1,0.60000,0.25380,0,0,270.0*
21,1,0.31380,0.54000,0,0,270.0*
1,1,0.28620,-0.12690,-0.15690*
1,1,0.28620,-0.12690,0.15690*
1,1,0.28620,0.12690,0.15690*
1,1,0.28620,0.12690,-0.15690*
%
%ADD16ROUNDEDRECTD16*%
%ADD17R,0.35000X0.60000*%
G04:AMPARAMS|DCode=18|XSize=1.4mm|YSize=1.7mm|CornerRadius=0.175mm|HoleSize=0mm|Usage=FLASHONLY|Rotation=180.000|XOffset=0mm|YOffset=0mm|HoleType=Round|Shape=RoundedRectangle|*
%AMROUNDEDRECTD18*
21,1,1.40000,1.35000,0,0,180.0*
21,1,1.05000,1.70000,0,0,180.0*
1,1,0.35000,-0.52500,0.67500*
1,1,0.35000,0.52500,0.67500*
1,1,0.35000,0.52500,-0.67500*
1,1,0.35000,-0.52500,-0.67500*
%
%ADD18ROUNDEDRECTD18*%
G04:AMPARAMS|DCode=19|XSize=0.6mm|YSize=0.7mm|CornerRadius=0.075mm|HoleSize=0mm|Usage=FLASHONLY|Rotation=0.000|XOffset=0mm|YOffset=0mm|HoleType=Round|Shape=RoundedRectangle|*
%AMROUNDEDRECTD19*
21,1,0.60000,0.55000,0,0,0.0*
21,1,0.45000,0.70000,0,0,0.0*
1,1,0.15000,0.22500,-0.27500*
1,1,0.15000,-0.22500,-0.27500*
1,1,0.15000,-0.22500,0.27500*
1,1,0.15000,0.22500,0.27500*
%
%ADD19ROUNDEDRECTD19*%
%ADD20R,3.50000X1.25000*%
%ADD21R,1.25000X1.25000*%
%ADD22R,5.60000X5.60000*%
%ADD23O,0.25000X0.80000*%
%ADD24O,0.80000X0.25000*%
G04:AMPARAMS|DCode=25|XSize=0.8mm|YSize=1mm|CornerRadius=0.1mm|HoleSize=0mm|Usage=FLASHONLY|Rotation=90.000|XOffset=0mm|YOffset=0mm|HoleType=Round|Shape=RoundedRectangle|*
%AMROUNDEDRECTD25*
21,1,0.80000,0.80000,0,0,90.0*
21,1,0.60000,1.00000,0,0,90.0*
1,1,0.20000,0.40000,0.30000*
1,1,0.20000,0.40000,-0.30000*
1,1,0.20000,-0.40000,-0.30000*
1,1,0.20000,-0.40000,0.30000*
%
%ADD25ROUNDEDRECTD25*%
G04:AMPARAMS|DCode=26|XSize=0.6mm|YSize=0.7mm|CornerRadius=0.075mm|HoleSize=0mm|Usage=FLASHONLY|Rotation=90.000|XOffset=0mm|YOffset=0mm|HoleType=Round|Shape=RoundedRectangle|*
%AMROUNDEDRECTD26*
21,1,0.60000,0.55000,0,0,90.0*
21,1,0.45000,0.70000,0,0,90.0*
1,1,0.15000,0.27500,0.22500*
1,1,0.15000,0.27500,-0.22500*
1,1,0.15000,-0.27500,-0.22500*
1,1,0.15000,-0.27500,0.22500*
%
%ADD26ROUNDEDRECTD26*%
G04:AMPARAMS|DCode=27|XSize=0.8mm|YSize=1mm|CornerRadius=0.1mm|HoleSize=0mm|Usage=FLASHONLY|Rotation=0.000|XOffset=0mm|YOffset=0mm|HoleType=Round|Shape=RoundedRectangle|*
%AMROUNDEDRECTD27*
21,1,0.80000,0.80000,0,0,0.0*
21,1,0.60000,1.00000,0,0,0.0*
1,1,0.20000,0.30000,-0.40000*
1,1,0.20000,-0.30000,-0.40000*
1,1,0.20000,-0.30000,0.40000*
1,1,0.20000,0.30000,0.40000*
%
%ADD27ROUNDEDRECTD27*%
G04:AMPARAMS|DCode=28|XSize=1.3mm|YSize=1.1mm|CornerRadius=0.055mm|HoleSize=0mm|Usage=FLASHONLY|Rotation=0.000|XOffset=0mm|YOffset=0mm|HoleType=Round|Shape=RoundedRectangle|*
%AMROUNDEDRECTD28*
21,1,1.30000,0.99000,0,0,0.0*
21,1,1.19000,1.10000,0,0,0.0*
1,1,0.11000,0.59500,-0.49500*
1,1,0.11000,-0.59500,-0.49500*
1,1,0.11000,-0.59500,0.49500*
1,1,0.11000,0.59500,0.49500*
%
%ADD28ROUNDEDRECTD28*%
%ADD29R,2.60000X2.70000*%
%ADD30R,0.35000X0.80000*%
%ADD31R,0.85000X0.35000*%
G04:AMPARAMS|DCode=32|XSize=1.4mm|YSize=1.7mm|CornerRadius=0.175mm|HoleSize=0mm|Usage=FLASHONLY|Rotation=270.000|XOffset=0mm|YOffset=0mm|HoleType=Round|Shape=RoundedRectangle|*
%AMROUNDEDRECTD32*
21,1,1.40000,1.35000,0,0,270.0*
21,1,1.05000,1.70000,0,0,270.0*
1,1,0.35000,-0.67500,-0.52500*
1,1,0.35000,-0.67500,0.52500*
1,1,0.35000,0.67500,0.52500*
1,1,0.35000,0.67500,-0.52500*
%
%ADD32ROUNDEDRECTD32*%
%TA.AperFunction,BGAPad,CuDef*%
%ADD33C,0.86300*%
%TA.AperFunction,SMDPad,CuDef*%
%ADD34R,0.60000X0.54000*%
%TA.AperFunction,Conductor*%
%ADD35C,0.26017*%
%ADD36C,0.30000*%
%ADD37C,0.35000*%
%ADD38C,0.50000*%
%ADD39C,0.20000*%
%ADD40C,1.00000*%
%ADD41C,0.75000*%
%ADD42C,0.60000*%
%ADD43C,0.56000*%
%ADD44C,0.23500*%
%TA.AperFunction,ComponentPad*%
G04:AMPARAMS|DCode=45|XSize=1mm|YSize=1.8mm|CornerRadius=0.5mm|HoleSize=0mm|Usage=FLASHONLY|Rotation=90.000|XOffset=0mm|YOffset=0mm|HoleType=Round|Shape=RoundedRectangle|*
%AMROUNDEDRECTD45*
21,1,1.00000,0.80000,0,0,90.0*
21,1,0.00000,1.80000,0,0,90.0*
1,1,1.00000,0.40000,0.00000*
1,1,1.00000,0.40000,0.00000*
1,1,1.00000,-0.40000,0.00000*
1,1,1.00000,-0.40000,0.00000*
%
%ADD45ROUNDEDRECTD45*%
%ADD46C,1.50000*%
%ADD47R,1.50000X1.50000*%
%TA.AperFunction,ViaPad*%
%ADD48C,0.60000*%
%ADD49C,0.50000*%
G36*
X8602127Y9370287D02*
X8600503Y9371182D01*
X8598082Y9371984D01*
X8594863Y9372691D01*
X8590847Y9373304D01*
X8580421Y9374247D01*
X8558802Y9374954D01*
X8550001Y9375002D01*
Y9425001D01*
X8558802Y9425049D01*
X8594863Y9427312D01*
X8598082Y9428019D01*
X8600503Y9428821D01*
X8602127Y9429716D01*
Y9370287D01*
D02*
G37*
G36*
X8694502Y9360381D02*
X8693311Y9360784D01*
X8690840Y9361145D01*
X8687090Y9361463D01*
X8659290Y9362311D01*
X8625002Y9362501D01*
Y9437502D01*
X8694502Y9439622D01*
Y9360381D01*
D02*
G37*
G36*
X9599920Y9355625D02*
X9600795Y9354223D01*
X9602190Y9352363D01*
X9606540Y9347269D01*
X9621481Y9331586D01*
X9626516Y9326520D01*
X9573486Y9273484D01*
X9543434Y9300432D01*
X9599566Y9356569D01*
X9599920Y9355625D01*
D02*
G37*
G36*
X10065842Y9346123D02*
X10065665Y9343312D01*
X10065008Y9273619D01*
X10064998Y9256518D01*
X10034998D01*
X10033955Y9347148D01*
X10066041D01*
X10065842Y9346123D01*
D02*
G37*
G36*
X9637656Y9303280D02*
X9638725Y9301040D01*
X9640361Y9298371D01*
X9642563Y9295273D01*
X9648667Y9287790D01*
X9657039Y9278591D01*
X9667677Y9267676D01*
X9632320Y9232323D01*
X9626649Y9237926D01*
X9601628Y9259642D01*
X9598959Y9261278D01*
X9596719Y9262347D01*
X9594909Y9262849D01*
X9637154Y9305090D01*
X9637656Y9303280D01*
D02*
G37*
G36*
X8482309Y9200922D02*
X8484681Y9199680D01*
X8487368Y9198583D01*
X8490370Y9197633D01*
X8493687Y9196829D01*
X8497319Y9196171D01*
X8505529Y9195294D01*
X8510107Y9195074D01*
X8514999Y9195001D01*
Y9170001D01*
X8510107Y9169928D01*
X8497319Y9168832D01*
X8493687Y9168174D01*
X8490370Y9167370D01*
X8487368Y9166419D01*
X8484681Y9165323D01*
X8482309Y9164080D01*
X8480252Y9162691D01*
Y9202312D01*
X8482309Y9200922D01*
D02*
G37*
G36*
X8250178Y9164824D02*
X8187494Y9100732D01*
X8150731Y9137495D01*
X8151620Y9138117D01*
X8153737Y9139994D01*
X8214823Y9200179D01*
X8250178Y9164824D01*
D02*
G37*
G36*
X8952072Y9112931D02*
X8942925Y9103712D01*
X8906371Y9062640D01*
X8905074Y9060124D01*
X8904759Y9058446D01*
X8883445Y9079760D01*
X8885123Y9080075D01*
X8887639Y9081372D01*
X8890993Y9083650D01*
X8895184Y9086909D01*
X8906081Y9096372D01*
X8937930Y9127073D01*
X8952072Y9112931D01*
D02*
G37*
G36*
X8189622Y9030502D02*
X8110381D01*
X8110784Y9031693D01*
X8111145Y9034164D01*
X8111463Y9037914D01*
X8112311Y9065714D01*
X8112501Y9100002D01*
X8187502D01*
X8189622Y9030502D01*
D02*
G37*
G36*
X8905290Y8941691D02*
X8906417Y8938919D01*
X8908352Y8935531D01*
X8911096Y8931529D01*
X8914648Y8926913D01*
X8924177Y8915835D01*
X8944534Y8894607D01*
X8930391Y8880465D01*
X8922701Y8888059D01*
X8893469Y8913903D01*
X8889467Y8916646D01*
X8886080Y8918582D01*
X8883307Y8919709D01*
X8881149Y8920028D01*
X8904971Y8943849D01*
X8905290Y8941691D01*
D02*
G37*
G36*
X9338726Y8839393D02*
X9332391Y8833015D01*
X9305189Y8802260D01*
X9304723Y8800950D01*
X9282410Y8834071D01*
X9283990Y8834023D01*
X9285998Y8834576D01*
X9288436Y8835729D01*
X9291302Y8837482D01*
X9294598Y8839835D01*
X9302477Y8846343D01*
X9312072Y8855252D01*
X9317513Y8860607D01*
X9338726Y8839393D01*
D02*
G37*
G36*
X10605973Y8750356D02*
X10604900Y8749773D01*
X10602854Y8748168D01*
X10595849Y8741887D01*
X10551514Y8698484D01*
X10498482Y8751519D01*
X10550358Y8805975D01*
X10605973Y8750356D01*
D02*
G37*
G36*
X8958839Y8680633D02*
X8953991Y8675683D01*
X8942846Y8662993D01*
X8940263Y8659484D01*
X8938247Y8656334D01*
X8936796Y8653545D01*
X8935912Y8651116D01*
X8935593Y8649047D01*
X8935841Y8647339D01*
X8904022Y8667296D01*
X8905641Y8667752D01*
X8907726Y8668796D01*
X8910277Y8670427D01*
X8913292Y8672647D01*
X8920720Y8678850D01*
X8935353Y8692564D01*
X8941161Y8698311D01*
X8958839Y8680633D01*
D02*
G37*
G36*
X7702177Y8700212D02*
X7708652Y8698698D01*
X7718255Y8697363D01*
X7746845Y8695226D01*
X7857366Y8693277D01*
X7923013Y8693000D01*
Y8593000D01*
X7866020Y8592640D01*
X7698830Y8584097D01*
Y8701904D01*
X7702177Y8700212D01*
D02*
G37*
G36*
X11108543Y8530352D02*
X11076457D01*
X11076655Y8531377D01*
X11076833Y8534188D01*
X11077490Y8603881D01*
X11077500Y8620983D01*
X11107500D01*
X11108543Y8530352D01*
D02*
G37*
G36*
X10857542Y8535665D02*
X10857502Y8515363D01*
X10837502Y8522962D01*
X10837687Y8543203D01*
X10857542Y8535665D01*
D02*
G37*
G36*
X8037109Y8663853D02*
X8061955Y8641007D01*
X8072049Y8632663D01*
X8080590Y8626372D01*
X8087578Y8622134D01*
X8093014Y8619949D01*
X8096896Y8619817D01*
X8099225Y8621737D01*
X8100002Y8625711D01*
X8200001Y8480000D01*
X8100002Y8434289D01*
X8098941Y8440100D01*
X8095759Y8447532D01*
X8090455Y8456585D01*
X8083031Y8467260D01*
X8014088Y8544953D01*
X7993935Y8565355D01*
X8022357Y8678356D01*
X8037109Y8663853D01*
D02*
G37*
G36*
X8631180Y8439423D02*
X8632964Y8439020D01*
X8635519Y8438663D01*
X8642943Y8438094D01*
X8667045Y8437524D01*
X8674998Y8437500D01*
Y8362500D01*
X8630166Y8360126D01*
Y8439874D01*
X8631180Y8439423D01*
D02*
G37*
G36*
X9292805Y8409173D02*
X9296711Y8347469D01*
X9297638Y8346196D01*
X9270756Y8344846D01*
X9267756Y8417334D01*
X9292756Y8423327D01*
X9292805Y8409173D01*
D02*
G37*
G36*
X9824102Y8316978D02*
X9809948Y8316929D01*
X9748243Y8313023D01*
X9746971Y8312095D01*
X9745620Y8338977D01*
X9818108Y8341978D01*
X9824102Y8316978D01*
D02*
G37*
G36*
X8328066Y8506307D02*
X8330999Y8497998D01*
X8338499Y8486748D01*
X8348999Y8476999D01*
X8362499Y8468748D01*
X8378999Y8461998D01*
X8398499Y8456748D01*
X8420999Y8452999D01*
X8446499Y8450748D01*
X8474999Y8449998D01*
X8470709Y8349999D01*
X8441481Y8349270D01*
X8413795Y8347084D01*
X8387653Y8343442D01*
X8363053Y8338342D01*
X8339996Y8331785D01*
X8318482Y8323771D01*
X8298511Y8314300D01*
X8280083Y8303372D01*
X8263198Y8290987D01*
X8247856Y8277145D01*
X8299999Y8399998D01*
X8307868Y8439343D01*
X8269144D01*
X8270256Y8441576D01*
X8271252Y8446438D01*
X8272130Y8453930D01*
X8273535Y8476802D01*
X8274999Y8579998D01*
X8324999D01*
X8328066Y8506307D01*
D02*
G37*
G36*
X8190691Y8405375D02*
X8195836Y8401291D01*
X8200791Y8398103D01*
X8205557Y8395812D01*
X8210134Y8394417D01*
X8214522Y8393918D01*
X8218720Y8394316D01*
X8222729Y8395611D01*
X8226548Y8397802D01*
X8230178Y8400889D01*
X8247854Y8277143D01*
X8230177Y8259467D01*
X8124111Y8294824D01*
X8127198Y8298455D01*
X8129389Y8302274D01*
X8130684Y8306283D01*
X8131082Y8310481D01*
X8130584Y8314868D01*
X8129189Y8319445D01*
X8126898Y8324211D01*
X8123710Y8329166D01*
X8119626Y8334310D01*
X8114646Y8339644D01*
X8185357Y8410355D01*
X8190691Y8405375D01*
D02*
G37*
G36*
X8997878Y8089953D02*
X9000381Y8088913D01*
X9003512Y8087996D01*
X9007271Y8087201D01*
X9011658Y8086529D01*
X9022318Y8085551D01*
X9035491Y8085062D01*
X9043020Y8085000D01*
Y8065000D01*
X9036521Y8064908D01*
X9020636Y8063528D01*
X9016545Y8062700D01*
X9013056Y8061687D01*
X9010169Y8060491D01*
X9007884Y8059111D01*
X9006201Y8057546D01*
X9005120Y8055798D01*
X8996004Y8091114D01*
X8997878Y8089953D01*
D02*
G37*
G36*
X9996786Y8082019D02*
X10031839Y8051386D01*
X10035363Y8049243D01*
X10038225Y8047947D01*
X10040424Y8047497D01*
X10010003Y8017076D01*
X10009553Y8019275D01*
X10008257Y8022137D01*
X10006114Y8025661D01*
X10003125Y8029847D01*
X9994607Y8040207D01*
X9982703Y8053216D01*
X9967413Y8068874D01*
X9988626Y8090087D01*
X9996786Y8082019D01*
D02*
G37*
G36*
X10974648Y8011459D02*
X10973326Y8012133D01*
X10970254Y8012735D01*
X10965434Y8013266D01*
X10950547Y8014117D01*
X10882727Y8015003D01*
Y8040002D01*
X10974648Y8043545D01*
Y8011459D01*
D02*
G37*
G36*
X9065605Y8019396D02*
X9044350Y7998378D01*
X9008624Y8004532D01*
X9008789Y8004755D01*
X9009389Y8005407D01*
X9029836Y8026051D01*
X9065605Y8019396D01*
D02*
G37*
G36*
X8507501Y7924998D02*
Y7889997D01*
X8419249Y7889840D01*
X8419251Y7925163D01*
X8507501Y7924998D01*
D02*
G37*
G36*
X10907500Y7882892D02*
X10779222D01*
X10777804Y7883840D01*
X10770000Y7885392D01*
X10725000D01*
X10717196Y7883840D01*
X10715192Y7882500D01*
X10560000D01*
X10555000Y7877500D01*
X10427500D01*
X10402500Y7852500D01*
Y7828550D01*
X10398660Y7822804D01*
X10397108Y7815000D01*
Y7604608D01*
X10370000Y7577500D01*
Y7365000D01*
X10355000Y7350000D01*
X10315000D01*
X10240000Y7275000D01*
Y7142500D01*
X10232500Y7135000D01*
X10115000D01*
X10100000Y7150000D01*
Y7262500D01*
X10202500Y7365000D01*
Y7540000D01*
X10215000Y7552500D01*
X10280000D01*
X10327500Y7600000D01*
Y7880000D01*
X10372500Y7925000D01*
X10540000D01*
X10557500Y7942500D01*
X10907500D01*
Y7882892D01*
D02*
G37*
G36*
X9033569Y7900693D02*
X9035496Y7899880D01*
X9037881Y7899162D01*
X9040725Y7898540D01*
X9044028Y7898014D01*
X9052010Y7897249D01*
X9061827Y7896866D01*
X9067424Y7896818D01*
Y7866818D01*
X9061827Y7866770D01*
X9044028Y7865622D01*
X9040725Y7865096D01*
X9037881Y7864474D01*
X9035496Y7863757D01*
X9033569Y7862943D01*
X9032101Y7862035D01*
Y7901602D01*
X9033569Y7900693D01*
D02*
G37*
G36*
X10857542Y7769337D02*
X10837687Y7761798D01*
X10837652Y7761988D01*
X10837621Y7762585D01*
X10837502Y7782040D01*
X10857502Y7789639D01*
X10857542Y7769337D01*
D02*
G37*
G36*
X11105845Y7751125D02*
X11105668Y7748314D01*
X11105011Y7678621D01*
X11105001Y7661520D01*
X11075001D01*
X11073958Y7752150D01*
X11106044D01*
X11105845Y7751125D01*
D02*
G37*
G36*
X9026741Y7644744D02*
X8973264D01*
X8973594Y7646453D01*
X8973890Y7651138D01*
X8974985Y7767294D01*
X8975002Y7795796D01*
X9025002D01*
X9026741Y7644744D01*
D02*
G37*
G36*
X8601767Y7642621D02*
X8587626Y7628479D01*
X8573484Y7642621D01*
X8587626Y7656764D01*
X8601767Y7642621D01*
D02*
G37*
G36*
X9007072Y7552997D02*
X9005941Y7552537D01*
X9004197Y7551394D01*
X9001840Y7549568D01*
X8995289Y7543864D01*
X8968185Y7517644D01*
X8915152Y7570677D01*
X8950505Y7609564D01*
X9007072Y7552997D01*
D02*
G37*
G36*
X9794819Y7352949D02*
X9735099Y7288885D01*
X9709428Y7305642D01*
X9721417Y7317705D01*
X9770694Y7372969D01*
X9771025Y7374722D01*
X9794819Y7352949D01*
D02*
G37*
G36*
X11108275Y7283792D02*
X11071726D01*
X11071873Y7284754D01*
X11072005Y7287403D01*
X11072501Y7369302D01*
X11107501D01*
X11108275Y7283792D01*
D02*
G37*
G36*
X9930099Y7268833D02*
X9930889Y7257618D01*
X9931580Y7252573D01*
X9933555Y7243606D01*
X9934839Y7239685D01*
X9936320Y7236138D01*
X9937999Y7232965D01*
X9939875Y7230167D01*
X9860126D01*
X9862002Y7232965D01*
X9863681Y7236138D01*
X9865162Y7239685D01*
X9866446Y7243606D01*
X9867532Y7247902D01*
X9868421Y7252573D01*
X9869606Y7263038D01*
X9869902Y7268833D01*
X9870001Y7275002D01*
X9930000D01*
X9930099Y7268833D01*
D02*
G37*
G36*
X8338797Y7473414D02*
X8361328Y7455382D01*
X8384738Y7439472D01*
X8409027Y7425684D01*
X8434194Y7414016D01*
X8460240Y7404471D01*
X8487165Y7397046D01*
X8514968Y7391743D01*
X8543650Y7388561D01*
X8573211Y7387500D01*
Y7287500D01*
X8543650Y7286439D01*
X8514968Y7283257D01*
X8487165Y7277954D01*
X8460240Y7270529D01*
X8434194Y7260983D01*
X8409027Y7249316D01*
X8384738Y7235528D01*
X8361328Y7219618D01*
X8338797Y7201586D01*
X8317145Y7181434D01*
X8225723Y7231434D01*
X8244815Y7252647D01*
X8259664Y7273860D01*
X8270271Y7295074D01*
X8276635Y7316287D01*
X8278756Y7337500D01*
X8276635Y7358713D01*
X8270271Y7379926D01*
X8259664Y7401140D01*
X8244815Y7422353D01*
X8225723Y7443566D01*
X8317145Y7493566D01*
X8338797Y7473414D01*
D02*
G37*
G36*
X7696777Y7310210D02*
X7695354Y7303220D01*
X7694099Y7292665D01*
X7692092Y7260865D01*
X7690000Y7119000D01*
X7590000D01*
X7581634Y7313637D01*
X7698366D01*
X7696777Y7310210D01*
D02*
G37*
G36*
X11167889Y7149797D02*
X11167021Y7146966D01*
X11166254Y7142939D01*
X11165590Y7137716D01*
X11164568Y7123680D01*
X11163751Y7081251D01*
X11133751D01*
X11133681Y7093262D01*
X11130309Y7141758D01*
X11129256Y7145913D01*
X11128062Y7148945D01*
X11126727Y7150854D01*
X11168860Y7151431D01*
X11167889Y7149797D01*
D02*
G37*
G36*
X10770000Y7862500D02*
X10907500D01*
Y7802500D01*
X10902500Y7797500D01*
X10727500D01*
X10692500Y7762500D01*
X10512500D01*
X10487500Y7737500D01*
Y7592500D01*
X10500000Y7580000D01*
X10557500D01*
X10600000Y7537500D01*
X10667500D01*
X10717500Y7487500D01*
Y7322500D01*
X10840000Y7200000D01*
X10950000D01*
X10967500Y7182500D01*
Y7085000D01*
X10980000Y7072500D01*
X11010000D01*
X11020000Y7062500D01*
Y6930000D01*
X11000000Y6910000D01*
X10847500D01*
X10830000Y6927500D01*
Y7025000D01*
X10717500Y7137500D01*
X10567500D01*
X10557500Y7147500D01*
Y7335000D01*
X10542500Y7350000D01*
X10450000D01*
X10432500Y7367500D01*
Y7575000D01*
X10417500Y7590000D01*
Y7815000D01*
X10425000Y7822500D01*
X10682500D01*
X10725000Y7865000D01*
X10770000D01*
Y7862500D01*
D02*
G37*
G36*
X10470000Y7265000D02*
Y6842500D01*
X10565000Y6747500D01*
X10755000D01*
X10777500Y6770000D01*
Y6800000D01*
X10845000Y6867500D01*
X11020000D01*
X11035000Y6852500D01*
X11035000Y6690000D01*
X11017500Y6672500D01*
X10625000D01*
X10592500Y6640000D01*
Y6497500D01*
X10565000Y6470000D01*
X10227500D01*
X10212500Y6483284D01*
Y6602500D01*
X10232500Y6622500D01*
X10507500D01*
X10522500Y6637500D01*
Y6682500D01*
X10520000D01*
X10440000Y6762500D01*
X10365000D01*
X10330000Y6797500D01*
Y7265000D01*
X10342500Y7277500D01*
X10457500D01*
X10470000Y7265000D01*
D02*
G37*
G36*
X9150274Y6570196D02*
X9159936Y6422314D01*
X9163525Y6404775D01*
X9167666Y6391249D01*
X9172360Y6381736D01*
X9177605Y6376235D01*
X9097390D01*
X9102636Y6381736D01*
X9107329Y6391249D01*
X9111470Y6404775D01*
X9115059Y6422314D01*
X9118096Y6443865D01*
X9122513Y6499005D01*
X9124998Y6611811D01*
X9149997D01*
X9150274Y6570196D01*
D02*
G37*
G36*
X9404351Y6467320D02*
X9407177Y6438220D01*
X9409649Y6425301D01*
X9412828Y6413471D01*
X9416713Y6402728D01*
X9421305Y6393073D01*
X9426603Y6384507D01*
X9432608Y6377028D01*
X9439319Y6370637D01*
X9343677D01*
X9350387Y6377028D01*
X9356392Y6384507D01*
X9361690Y6393073D01*
X9366282Y6402728D01*
X9370167Y6413471D01*
X9373346Y6425301D01*
X9375819Y6438220D01*
X9377585Y6452226D01*
X9378644Y6467320D01*
X9378998Y6483502D01*
X9403997D01*
X9404351Y6467320D01*
D02*
G37*
G36*
X9472570Y6503860D02*
X9583971Y6406123D01*
X9598911Y6396259D01*
X9611403Y6389623D01*
X9621448Y6386214D01*
X9629046Y6386034D01*
X9572325Y6329313D01*
X9572144Y6336913D01*
X9568736Y6346959D01*
X9562100Y6359452D01*
X9552237Y6374392D01*
X9539145Y6391778D01*
X9503279Y6433892D01*
X9425271Y6515414D01*
X9442949Y6533091D01*
X9472570Y6503860D01*
D02*
G37*
G36*
X9793465Y6437135D02*
X9817653Y6417462D01*
X9829571Y6409494D01*
X9841371Y6402772D01*
X9853054Y6397297D01*
X9864620Y6393067D01*
X9876068Y6390083D01*
X9887399Y6388346D01*
X9898612Y6387855D01*
X9824503Y6313746D01*
X9824012Y6324959D01*
X9822274Y6336290D01*
X9819291Y6347738D01*
X9815061Y6359304D01*
X9809586Y6370987D01*
X9802864Y6382787D01*
X9794896Y6394705D01*
X9785682Y6406741D01*
X9775223Y6418893D01*
X9763517Y6431164D01*
X9781194Y6448841D01*
X9793465Y6437135D01*
D02*
G37*
D10*
X8475000Y8574999D02*
Y8722502D01*
X8597499Y8845001D01*
Y8870000D01*
X8602502Y8874999D01*
X8627501D01*
X8525002Y8525002D02*
X8950000D01*
X9122501Y8697498D01*
X9340002D01*
X9369999Y8667501D01*
Y8501360D01*
X9380256Y8491103D01*
Y8444479D01*
X9280256D02*
Y8499744D01*
X9280002Y8499998D01*
X9280256Y8444479D02*
Y8329478D01*
X9285254Y8324479D01*
X9192758Y8379480D02*
Y8397941D01*
X9211793Y8416981D01*
X9230258D01*
Y8444479D01*
Y8511987D01*
X9229999Y8512246D01*
X9192758Y8379480D02*
X9165255D01*
X9105519D01*
X9105001Y8379998D01*
X9097498Y8030002D02*
X9098021Y8029478D01*
X9165255D01*
Y7979481D02*
X9100520D01*
X9100002Y7979999D01*
X9280256Y7764480D02*
Y7650256D01*
X9137498Y7507498D01*
Y6312860D01*
X9391498D02*
Y6483502D01*
X9182501Y6692499D01*
Y7488641D01*
X9329999Y7636139D01*
Y7736723D01*
X9330258Y7736982D01*
Y7764480D01*
X9380256D02*
Y7622758D01*
X9227500Y7469998D01*
Y6730863D01*
X9643821Y6314542D01*
Y6311179D01*
X9895406Y6320680D02*
G03*
X9899496Y6312862I23850J7497D01*
G01*
X9895406Y6320680D02*
G03*
X9899496Y6312862I23850J7497D01*
G01*
X9895406Y6320680D02*
G03*
X9899496Y6312862I23850J7497D01*
G01*
X9895406Y6320680D02*
G03*
X9899496Y6312862I23850J7497D01*
G01*
X9899498Y6312860D02*
X9772355Y6440002D01*
X9600001D01*
X9272499Y6767500D01*
Y7440000D01*
X9430258Y7597755D01*
Y7764480D01*
X9730257D02*
Y7710256D01*
X9729998Y7710002D01*
X9780255Y7707757D02*
Y7764480D01*
Y7707757D02*
X9780001Y7707498D01*
X10100000Y7724999D02*
Y7875001D01*
X10000000D02*
X9995520Y7879481D01*
X9845253D01*
X9909480Y8329478D02*
X9909998Y8330001D01*
X9909480Y8329478D02*
X9845253D01*
X9730257D01*
X9725254Y8324479D01*
X9845253Y8279481D02*
X10071980D01*
X10277003Y8484503D01*
Y8911499D01*
X10175001Y9245001D02*
X10170003Y9249999D01*
X10049998D01*
X10150003Y9220002D02*
X10175001Y9245001D01*
X10150003Y9220002D02*
Y9038499D01*
Y8911499D02*
Y8654999D01*
X10052502Y8557499D01*
X9824999D01*
X9780255Y8512754D01*
Y8444479D01*
X9680255D02*
Y8575253D01*
X9760001Y8654999D01*
X9944999D01*
X10023003Y8732998D01*
Y8911499D01*
X9920000Y8390001D02*
X9909480Y8379480D01*
X9845253D01*
X9530258Y8444479D02*
Y8502757D01*
X9600001Y8572500D01*
Y8974999D01*
Y9077498D01*
X9552498Y9125001D01*
X9022502D01*
Y9074998D02*
X9467499D01*
X9500001Y9042502D01*
Y8974999D01*
X9517502Y8957498D01*
Y8937854D01*
Y8619998D01*
X9480255Y8582757D01*
Y8444479D01*
X9430258D02*
Y8504743D01*
X9422501Y8512500D01*
Y8747501D01*
X9425000Y8750000D01*
X9174998Y8907501D02*
X9102501D01*
X9085001Y8925001D01*
X9022502D01*
X8950000Y8799998D02*
Y8689472D01*
X8907501Y8646973D01*
Y8637499D01*
X8694999D02*
X8697498Y8639998D01*
Y8797498D01*
X8699998Y8799998D01*
X8627501Y8925001D02*
X8539998D01*
X8507501Y8892499D01*
X8505002Y8974999D02*
X8627501D01*
Y9025001D02*
X8557499D01*
X8514319Y9068181D01*
X8479318D01*
X8465002Y9082502D01*
X8534999Y9111539D02*
X8571540Y9074998D01*
X8627501D01*
X8534999Y9111539D02*
Y9162501D01*
X8514999Y9182501D01*
X8465002D01*
X8475000Y8574999D02*
X8525002Y8525002D01*
X10847502Y8027502D02*
X10999998D01*
X11000532Y8302498D02*
X11010001D01*
X11000532D02*
X10975528Y8327502D01*
X10847502D01*
X11150001Y6974997D02*
Y6849999D01*
X10925002Y6760703D02*
X10935701Y6749999D01*
D11*
X10847502Y8027502D02*
D03*
Y8077500D02*
D03*
Y8127502D02*
D03*
Y8177500D02*
D03*
Y8227502D02*
D03*
Y8327502D02*
D03*
D12*
X10465000Y8087496D02*
D03*
Y8152500D02*
D03*
Y8277500D02*
D03*
Y8342504D02*
D03*
D13*
X10847502Y7832501D02*
D03*
Y7912501D02*
D03*
Y8392500D02*
D03*
Y8472500D02*
D03*
D14*
X8725002Y6969999D02*
D03*
Y7129998D02*
D03*
D15*
X8652500Y6794998D02*
D03*
X8752500D02*
D03*
D16*
X10362001Y7644999D02*
D03*
X10448000D02*
D03*
D17*
X10375001Y7780000D02*
D03*
X10439999D02*
D03*
D18*
X10285700Y7449998D02*
D03*
X10514300D02*
D03*
D19*
X8512500Y7907498D02*
D03*
X8612500D02*
D03*
X8757498Y7907503D02*
D03*
X8857498D02*
D03*
Y8032501D02*
D03*
X8757498D02*
D03*
X9200002Y8599998D02*
D03*
X9300002D02*
D03*
X9700001Y8974999D02*
D03*
X9949998Y9249999D02*
D03*
X10049998D02*
D03*
X10175001D02*
D03*
X10275001D02*
D03*
X9600001Y8974999D02*
D03*
X9500001D02*
D03*
X9400002D02*
D03*
X8794999Y8637499D02*
D03*
X8694999D02*
D03*
X9784999Y7610003D02*
D03*
X9884999D02*
D03*
X10000000Y7724999D02*
D03*
X10100000D02*
D03*
Y7875001D02*
D03*
X10000000D02*
D03*
D20*
X10400000Y6545499D02*
D03*
D21*
X10170998Y7204502D02*
D03*
X10400000D02*
D03*
X10629001D02*
D03*
D22*
X9505254Y8104480D02*
D03*
D23*
X9280256Y7764480D02*
D03*
X9330258D02*
D03*
X9380256D02*
D03*
X9430258D02*
D03*
X9680255D02*
D03*
X9730257D02*
D03*
X9780255D02*
D03*
Y8444479D02*
D03*
X9680255D02*
D03*
X9530258D02*
D03*
X9480255D02*
D03*
X9430258D02*
D03*
X9380256D02*
D03*
X9280256D02*
D03*
X9230258D02*
D03*
D24*
X9165255Y7979481D02*
D03*
Y8029478D02*
D03*
Y8079481D02*
D03*
Y8129478D02*
D03*
Y8179481D02*
D03*
Y8379480D02*
D03*
X9845253Y8079481D02*
D03*
Y7879481D02*
D03*
Y8179481D02*
D03*
Y8229478D02*
D03*
Y8279481D02*
D03*
Y8329478D02*
D03*
Y8379480D02*
D03*
D25*
X8874999Y8250001D02*
D03*
Y8399998D02*
D03*
D26*
X8472500Y8877498D02*
D03*
Y8977498D02*
D03*
X8465002Y9082502D02*
D03*
Y9182501D02*
D03*
X9174998Y8807501D02*
D03*
X9425000Y8850000D02*
D03*
Y8750000D02*
D03*
X9174998Y8907501D02*
D03*
X9000002Y8377499D02*
D03*
Y8277499D02*
D03*
X9010000Y7975001D02*
D03*
Y7875001D02*
D03*
X10000000Y8359999D02*
D03*
Y8459998D02*
D03*
X11150001Y7075002D02*
D03*
Y6974997D02*
D03*
Y6849999D02*
D03*
Y6749999D02*
D03*
D27*
X9515003Y7600000D02*
D03*
X9665000D02*
D03*
D28*
X8522503Y7587498D02*
D03*
X8752500D02*
D03*
Y7777500D02*
D03*
X8522503D02*
D03*
D29*
X8825001Y9000002D02*
D03*
D30*
X8699998Y8799998D02*
D03*
X8950000D02*
D03*
Y9200002D02*
D03*
D31*
X8627501Y8874999D02*
D03*
Y8925001D02*
D03*
Y8974999D02*
D03*
Y9025001D02*
D03*
Y9074998D02*
D03*
X9022502D02*
D03*
Y9125001D02*
D03*
Y8925001D02*
D03*
D32*
X10925002Y6760703D02*
D03*
Y6989303D02*
D03*
D33*
X10023003Y8911499D02*
D03*
Y9038499D02*
D03*
X10150003D02*
D03*
Y8911499D02*
D03*
X10277003D02*
D03*
Y9038499D02*
D03*
D34*
X11090001Y7369302D02*
D03*
Y7455703D02*
D03*
X11094999Y8841801D02*
D03*
Y8928202D02*
D03*
D35*
X9845253Y8179481D02*
X9871736D01*
X9873567Y8181311D01*
X10173035D01*
X10183555Y8191832D01*
X10432768D01*
X10448009Y8176591D01*
Y8156992D01*
X10452500Y8152500D01*
X10465000D01*
X10477500D01*
X10481991Y8156992D01*
Y8176591D01*
X10497232Y8191832D01*
X10653976D01*
X10666476Y8179332D01*
X10845669D01*
X10847502Y8177500D01*
X10849491Y8129491D02*
X10918674D01*
X10938010Y8148827D01*
Y8206172D01*
X10918672Y8225511D01*
X10849493D01*
X10845669Y8225669D02*
X10847502Y8227502D01*
X10845669Y8225669D02*
X10685669D01*
X10673170Y8238169D01*
X10497232D01*
X10481991Y8253409D01*
Y8273009D01*
X10477500Y8277500D01*
X10465000D01*
X10452500D01*
X10448009Y8273009D01*
Y8253409D01*
X10432768Y8238169D01*
X10164362D01*
X10153842Y8227648D01*
X9873566D01*
X9871736Y8229478D01*
X9845253D01*
X10756993Y8098830D02*
Y8156175D01*
X10776329Y8175511D01*
X10849491Y8129491D02*
X10847502Y8127502D01*
X10845510Y8079491D02*
X10847502Y8077500D01*
X10845510Y8079491D02*
X10791407D01*
X10791405Y8079494D01*
X10776329D01*
X10756993Y8098830D01*
D36*
X8652500Y6794998D02*
Y6897502D01*
X8725002Y6969999D01*
X9597502Y7255002D02*
X9611106Y7268606D01*
X9693605D01*
X9802500Y7377501D01*
X9784999Y7615001D02*
X9729998Y7670002D01*
Y7710002D01*
X9780001Y7707498D02*
X9802500Y7684999D01*
X9856668D01*
X9876211Y7665456D01*
Y7618791D01*
X9884999Y7610003D01*
X9685000Y7620000D02*
X9680001Y7624999D01*
Y7700000D01*
X9978019Y8079481D02*
X10040000Y8017500D01*
X9978019Y8079481D02*
X9845253D01*
X9909998Y8330001D02*
X9930709D01*
X9945710Y8344997D01*
X9984999D01*
X10000000Y8359999D01*
X9984999Y8444997D02*
X10000000Y8459998D01*
X9984999Y8444997D02*
X9974997D01*
X9954997Y8424997D01*
X9954895D01*
X9920000Y8390103D01*
Y8390001D01*
X9700001Y8974999D02*
X9685000Y8990000D01*
Y9040002D01*
X9649998Y9074998D01*
Y9174998D01*
X9328120Y8850000D02*
X9425000D01*
X9328120D02*
X9283116Y8805001D01*
X9274998D01*
X9280002Y8510001D02*
X9300002Y8530001D01*
X9280002Y8510001D02*
Y8499998D01*
X9229999Y8512246D02*
Y8512500D01*
X9200002Y8542503D01*
X9105001Y8379998D02*
X9080002D01*
X9097498Y8030002D02*
X9054998D01*
X9000002Y7975001D01*
X9010000D02*
X8994999Y7959999D01*
X8953119D01*
X8935618Y7942499D01*
X8927501D01*
X9016817Y7881818D02*
X9067424D01*
X9085001Y7899395D01*
Y7964998D01*
X9100002Y7979999D01*
X8472500Y8877498D02*
X8487501Y8892499D01*
X8507501D01*
X10049998Y9249999D02*
Y9372498D01*
X11092500Y8505002D02*
Y8841801D01*
X11090001Y7777500D02*
Y7455703D01*
X11147501Y7172498D02*
X11148751Y7171248D01*
Y7081251D01*
X11152500Y7077502D01*
D37*
X8502498Y7169998D02*
X8542498Y7129998D01*
X8725002D01*
X8512500Y7902499D02*
X8507501Y7907498D01*
X8395000D01*
Y7907503D01*
X9000002Y8377499D02*
X9002502Y8379998D01*
X9080002D01*
X9200002Y8542503D02*
Y8599998D01*
X9300002D02*
Y8530001D01*
X9685000Y7620000D02*
X9665000Y7600000D01*
X10332500Y8082500D02*
X10415000D01*
X10419996Y8087496D01*
X10465000D01*
Y8342504D02*
X10462500D01*
Y8497500D01*
X11094999Y8928202D02*
Y9072499D01*
X11090001Y7369302D02*
Y7260001D01*
X11150001Y6749999D02*
X10935701D01*
D38*
X8397499Y7772502D02*
X8400207D01*
X8405205Y7777500D01*
X8522503D01*
X8644412Y7489414D02*
X8742502Y7587498D01*
X8752500D01*
X8644412Y7489414D02*
Y7461915D01*
X8642502Y7460000D01*
X9000002Y7602494D02*
Y7864998D01*
X9010000Y7875001D01*
X9016817Y7881818D01*
X8927501Y7942499D02*
X8887501D01*
X8857498Y7912501D01*
Y7907503D01*
X8907501Y8272501D02*
X8994999D01*
X9000002Y8277499D01*
X8907501Y8272501D02*
X8885001Y8250001D01*
X8874999D01*
X8754999D01*
X8994999Y8377499D02*
X9000002D01*
X8994999D02*
X8987500Y8385002D01*
X8890000D01*
X8874999Y8399998D01*
X8674999D01*
X8694999Y8637499D02*
X8612500D01*
X8599998Y8625002D01*
X8346760Y8626759D02*
X8299999Y8579998D01*
Y8399998D01*
X8463752Y9081252D02*
X8465002Y9082502D01*
X8463752Y9081252D02*
X8361248D01*
X8359999Y9080002D01*
X8150001Y9100002D02*
X8232501Y9182501D01*
X8465002D01*
Y9314998D01*
X8550001Y9400002D01*
X8625002D01*
X9300002Y8974999D02*
X9400002D01*
X9849998Y9232499D02*
X9867499Y9249999D01*
X9949998D01*
Y9161689D01*
X10016053Y9095633D01*
Y9043944D01*
X10020000Y9040002D01*
X10021499D01*
X10023003Y9038499D01*
X10276002Y9039499D02*
Y9248999D01*
X10275001Y9249999D01*
Y9425000D01*
X10200000Y9500001D01*
X10276002Y9039499D02*
X10277003Y9038499D01*
X10524998Y8725002D02*
X10400000Y8599998D01*
X10124999Y8499998D02*
X10084999Y8459998D01*
X10000000D01*
Y7724999D02*
X9995002Y7720000D01*
Y7672131D01*
X9975002Y7652131D01*
Y7649423D01*
X9884999Y7610003D02*
Y7292711D01*
X9900001Y7277710D01*
Y7275002D01*
X9784999Y7507498D02*
Y7610003D01*
X9515003Y7600000D02*
Y7477501D01*
X9537502Y6785000D02*
X9540001D01*
X10627502Y7205000D02*
Y7312497D01*
X10630002Y7309998D01*
X10629001Y7204502D02*
Y7203501D01*
X10630002Y7202500D02*
X10627502Y7205000D01*
X10672501Y7449998D02*
X10514300D01*
X10922498Y6989999D02*
Y7137502D01*
X10925002Y7140001D01*
Y6989303D02*
X10923199D01*
X10922498Y6989999D01*
X11150001Y7075002D02*
X11152500Y7077502D01*
X11107501Y7959999D02*
Y8345002D01*
X11059998Y8392500D01*
X10847502D01*
Y7912501D02*
X11059998D01*
X11107501Y7959999D01*
X9649998Y9174998D02*
Y9249999D01*
X9600001Y9300002D01*
D39*
X8522503Y7587498D02*
X8532500D01*
X8634999Y7690002D01*
Y7842499D01*
X8622767Y7854732D01*
Y7897236D01*
X8612500Y7907498D01*
Y8137500D01*
X8654481Y8179481D01*
X9165255D01*
Y8129478D02*
X8929482D01*
X8876518Y8076514D01*
Y8051516D01*
X8857498Y8032501D01*
X8762502D02*
Y7907503D01*
Y7907498D01*
Y7787498D01*
X8752500Y7777500D01*
X8977498Y8067502D02*
X8985001Y8075000D01*
X9043020D01*
X9047500Y8079481D01*
X9165255D01*
X8950000Y8799998D02*
X8947501Y8802502D01*
Y8852428D01*
X8937462Y8862461D01*
Y8887536D01*
X8879997Y8945001D01*
Y9054998D02*
X8945001Y9120002D01*
Y9145072D01*
X8947501Y9147576D01*
Y9197503D01*
X8950000Y9200002D01*
X10847502Y7832501D02*
Y7759649D01*
X10886648Y7720503D01*
X10905002D01*
X10847502Y8472500D02*
Y8545352D01*
X10886648Y8584499D01*
X10905002D01*
D40*
X7640000Y7119000D02*
Y7373000D01*
Y7119000D02*
X8184002D01*
X8402498Y7337501D01*
X8760003D01*
X8852499Y7429998D01*
X9000002Y7602494D02*
Y7042501D01*
X8752500Y6794998D01*
X8792500D01*
X8880003Y6707500D01*
Y6320363D01*
X8887501Y6312860D01*
X9900001Y6754998D02*
Y7200001D01*
Y6754998D02*
X10122002Y6533002D01*
X10866420D01*
X10925002Y6591579D01*
Y6760703D01*
X10599999Y8799998D02*
Y9425000D01*
X10519999Y9505000D01*
X10499999Y9525000D01*
X10224999D01*
X9625000D01*
X9500001Y9400002D01*
X9549999Y9349999D01*
X9500001Y9400002D02*
X9300002D01*
X8725002D01*
X8150001Y9000002D02*
Y8479998D01*
Y8375000D01*
X8212501Y8312501D01*
X8299999Y8399998D01*
X8599998D01*
X8150001Y8479998D02*
X7987000Y8643000D01*
X7640000D01*
X8124998Y8225003D02*
X8212501Y8312501D01*
X8124998Y8225003D02*
Y7615001D01*
X8402498Y7337501D01*
D41*
X8599998Y8399998D02*
X8674999D01*
X8150001Y9000002D02*
Y9100002D01*
X8725002Y9400002D02*
X8625002D01*
X9300002Y9249999D02*
Y9400002D01*
X9549999Y9349999D02*
X9600001Y9300002D01*
X10524998Y8725002D02*
X10599999Y8799998D01*
X9000002Y7602494D02*
X8941669Y7544161D01*
X8941659D01*
X8852499Y7455002D01*
Y7429998D01*
D42*
X9900001Y7200001D02*
Y7275002D01*
D43*
X8794999Y8637499D02*
X8907501D01*
X9174998Y8807501D02*
X9271417D01*
X9273916Y8805001D01*
X9274998D01*
X8472500Y8877498D02*
X8365002D01*
D44*
X9680001Y7700000D02*
X9680255Y7700254D01*
Y7764480D01*
D45*
X10905002Y7720503D02*
D03*
Y8584499D02*
D03*
D46*
X9137498Y6312860D02*
D03*
X9391498D02*
D03*
X9645498D02*
D03*
X9899498D02*
D03*
X9597502Y7255002D02*
D03*
D47*
X8883498Y6312860D02*
D03*
D48*
X8397499Y7772502D02*
D03*
X8642502Y7460000D02*
D03*
X8927501Y7942499D02*
D03*
X8977498Y8067502D02*
D03*
X8754999Y8250001D02*
D03*
X8599998Y8625002D02*
D03*
X8365002Y8877498D02*
D03*
X8346760Y8626759D02*
D03*
X8395000Y7907503D02*
D03*
X9274998Y8805001D02*
D03*
X9300002Y8974999D02*
D03*
Y9249999D02*
D03*
X8907501Y8637499D02*
D03*
X9849998Y9232499D02*
D03*
X10049998Y9372498D02*
D03*
X10124999Y8499998D02*
D03*
X10400000Y8599998D02*
D03*
X10462500Y8497500D02*
D03*
X10332500Y8082500D02*
D03*
X10040000Y8017500D02*
D03*
X9975002Y7649423D02*
D03*
X9784999Y7507498D02*
D03*
X9800001Y7382500D02*
D03*
X9900001Y7275002D02*
D03*
X9515003Y7477501D02*
D03*
X9540001Y6785000D02*
D03*
X10630002Y7309998D02*
D03*
X10672501Y7449998D02*
D03*
X10925002Y7140001D02*
D03*
X11147501Y7172498D02*
D03*
X11090001Y7260001D02*
D03*
Y7777500D02*
D03*
X10999998Y8027502D02*
D03*
X11010001Y8302498D02*
D03*
X11092500Y8505002D02*
D03*
X11094999Y9072499D02*
D03*
X8359999Y9080002D02*
D03*
D49*
X8770000Y8945001D02*
D03*
Y9054998D02*
D03*
X8879997D02*
D03*
Y8945001D02*
D03*
X9285254Y8324479D02*
D03*
Y8214482D02*
D03*
X9395257D02*
D03*
Y8324479D02*
D03*
Y8104480D02*
D03*
Y7994482D02*
D03*
X9285254D02*
D03*
Y8104480D02*
D03*
Y7884480D02*
D03*
X9395257D02*
D03*
X9505254D02*
D03*
Y7994482D02*
D03*
Y8104480D02*
D03*
X9615256D02*
D03*
Y7994482D02*
D03*
Y7884480D02*
D03*
X9725254D02*
D03*
Y7994482D02*
D03*
Y8104480D02*
D03*
Y8214482D02*
D03*
Y8324479D02*
D03*
X9615256D02*
D03*
Y8214482D02*
D03*
X9505254D02*
D03*
Y8324479D02*
D03*
%TF.MD5,c12677013e12045f2800943a99f8b1b4*%
M02*
