%TF.GenerationSoftware,Altium Limited,Altium Designer,21.1.1 (26)*%
G04 Layer_Color=8421504*
%FSLAX45Y45*%
%MOMM*%
%TF.SameCoordinates,A571FDB6-1603-443E-89CE-D3154019B6F4*%
%TF.FilePolarity,Positive*%
%TF.FileFunction,Paste,Top*%
%TF.Part,Single*%
G01*
G75*
%TA.AperFunction,ConnectorPad*%
%ADD11R,1.15000X0.30000*%
%TA.AperFunction,SMDPad,CuDef*%
%ADD12R,0.60000X0.35000*%
%TA.AperFunction,ConnectorPad*%
%ADD13R,1.15000X0.60000*%
%TA.AperFunction,SMDPad,CuDef*%
%ADD14R,0.80000X0.80000*%
%ADD15R,0.50000X0.60000*%
G04:AMPARAMS|DCode=16|XSize=0.6mm|YSize=0.54mm|CornerRadius=0.1431mm|HoleSize=0mm|Usage=FLASHONLY|Rotation=270.000|XOffset=0mm|YOffset=0mm|HoleType=Round|Shape=RoundedRectangle|*
%AMROUNDEDRECTD16*
21,1,0.60000,0.25380,0,0,270.0*
21,1,0.31380,0.54000,0,0,270.0*
1,1,0.28620,-0.12690,-0.15690*
1,1,0.28620,-0.12690,0.15690*
1,1,0.28620,0.12690,0.15690*
1,1,0.28620,0.12690,-0.15690*
%
%ADD16ROUNDEDRECTD16*%
%ADD17R,0.35000X0.60000*%
G04:AMPARAMS|DCode=18|XSize=1.4mm|YSize=1.7mm|CornerRadius=0.175mm|HoleSize=0mm|Usage=FLASHONLY|Rotation=180.000|XOffset=0mm|YOffset=0mm|HoleType=Round|Shape=RoundedRectangle|*
%AMROUNDEDRECTD18*
21,1,1.40000,1.35000,0,0,180.0*
21,1,1.05000,1.70000,0,0,180.0*
1,1,0.35000,-0.52500,0.67500*
1,1,0.35000,0.52500,0.67500*
1,1,0.35000,0.52500,-0.67500*
1,1,0.35000,-0.52500,-0.67500*
%
%ADD18ROUNDEDRECTD18*%
G04:AMPARAMS|DCode=19|XSize=0.6mm|YSize=0.7mm|CornerRadius=0.075mm|HoleSize=0mm|Usage=FLASHONLY|Rotation=0.000|XOffset=0mm|YOffset=0mm|HoleType=Round|Shape=RoundedRectangle|*
%AMROUNDEDRECTD19*
21,1,0.60000,0.55000,0,0,0.0*
21,1,0.45000,0.70000,0,0,0.0*
1,1,0.15000,0.22500,-0.27500*
1,1,0.15000,-0.22500,-0.27500*
1,1,0.15000,-0.22500,0.27500*
1,1,0.15000,0.22500,0.27500*
%
%ADD19ROUNDEDRECTD19*%
%ADD20R,3.50000X1.25000*%
%ADD21R,1.25000X1.25000*%
%ADD22R,5.60000X5.60000*%
%ADD23O,0.25000X0.80000*%
%ADD24O,0.80000X0.25000*%
G04:AMPARAMS|DCode=25|XSize=0.8mm|YSize=1mm|CornerRadius=0.1mm|HoleSize=0mm|Usage=FLASHONLY|Rotation=90.000|XOffset=0mm|YOffset=0mm|HoleType=Round|Shape=RoundedRectangle|*
%AMROUNDEDRECTD25*
21,1,0.80000,0.80000,0,0,90.0*
21,1,0.60000,1.00000,0,0,90.0*
1,1,0.20000,0.40000,0.30000*
1,1,0.20000,0.40000,-0.30000*
1,1,0.20000,-0.40000,-0.30000*
1,1,0.20000,-0.40000,0.30000*
%
%ADD25ROUNDEDRECTD25*%
G04:AMPARAMS|DCode=26|XSize=0.6mm|YSize=0.7mm|CornerRadius=0.075mm|HoleSize=0mm|Usage=FLASHONLY|Rotation=90.000|XOffset=0mm|YOffset=0mm|HoleType=Round|Shape=RoundedRectangle|*
%AMROUNDEDRECTD26*
21,1,0.60000,0.55000,0,0,90.0*
21,1,0.45000,0.70000,0,0,90.0*
1,1,0.15000,0.27500,0.22500*
1,1,0.15000,0.27500,-0.22500*
1,1,0.15000,-0.27500,-0.22500*
1,1,0.15000,-0.27500,0.22500*
%
%ADD26ROUNDEDRECTD26*%
G04:AMPARAMS|DCode=27|XSize=0.8mm|YSize=1mm|CornerRadius=0.1mm|HoleSize=0mm|Usage=FLASHONLY|Rotation=0.000|XOffset=0mm|YOffset=0mm|HoleType=Round|Shape=RoundedRectangle|*
%AMROUNDEDRECTD27*
21,1,0.80000,0.80000,0,0,0.0*
21,1,0.60000,1.00000,0,0,0.0*
1,1,0.20000,0.30000,-0.40000*
1,1,0.20000,-0.30000,-0.40000*
1,1,0.20000,-0.30000,0.40000*
1,1,0.20000,0.30000,0.40000*
%
%ADD27ROUNDEDRECTD27*%
G04:AMPARAMS|DCode=28|XSize=1.3mm|YSize=1.1mm|CornerRadius=0.055mm|HoleSize=0mm|Usage=FLASHONLY|Rotation=0.000|XOffset=0mm|YOffset=0mm|HoleType=Round|Shape=RoundedRectangle|*
%AMROUNDEDRECTD28*
21,1,1.30000,0.99000,0,0,0.0*
21,1,1.19000,1.10000,0,0,0.0*
1,1,0.11000,0.59500,-0.49500*
1,1,0.11000,-0.59500,-0.49500*
1,1,0.11000,-0.59500,0.49500*
1,1,0.11000,0.59500,0.49500*
%
%ADD28ROUNDEDRECTD28*%
%ADD29R,2.60000X2.70000*%
%ADD30R,0.35000X0.80000*%
%ADD31R,0.85000X0.35000*%
G04:AMPARAMS|DCode=32|XSize=1.4mm|YSize=1.7mm|CornerRadius=0.175mm|HoleSize=0mm|Usage=FLASHONLY|Rotation=270.000|XOffset=0mm|YOffset=0mm|HoleType=Round|Shape=RoundedRectangle|*
%AMROUNDEDRECTD32*
21,1,1.40000,1.35000,0,0,270.0*
21,1,1.05000,1.70000,0,0,270.0*
1,1,0.35000,-0.67500,-0.52500*
1,1,0.35000,-0.67500,0.52500*
1,1,0.35000,0.67500,0.52500*
1,1,0.35000,0.67500,-0.52500*
%
%ADD32ROUNDEDRECTD32*%
%ADD34R,0.60000X0.54000*%
D11*
X10847502Y8027502D02*
D03*
Y8077500D02*
D03*
Y8127502D02*
D03*
Y8177500D02*
D03*
Y8227502D02*
D03*
Y8327502D02*
D03*
D12*
X10465000Y8087496D02*
D03*
Y8152500D02*
D03*
Y8277500D02*
D03*
Y8342504D02*
D03*
D13*
X10847502Y7832501D02*
D03*
Y7912501D02*
D03*
Y8392500D02*
D03*
Y8472500D02*
D03*
D14*
X8725002Y6969999D02*
D03*
Y7129998D02*
D03*
D15*
X8652500Y6794998D02*
D03*
X8752500D02*
D03*
D16*
X10362001Y7644999D02*
D03*
X10448000D02*
D03*
D17*
X10375001Y7780000D02*
D03*
X10439999D02*
D03*
D18*
X10285700Y7449998D02*
D03*
X10514300D02*
D03*
D19*
X8512500Y7907498D02*
D03*
X8612500D02*
D03*
X8757498Y7907503D02*
D03*
X8857498D02*
D03*
Y8032501D02*
D03*
X8757498D02*
D03*
X9200002Y8599998D02*
D03*
X9300002D02*
D03*
X9700001Y8974999D02*
D03*
X9949998Y9249999D02*
D03*
X10049998D02*
D03*
X10175001D02*
D03*
X10275001D02*
D03*
X9600001Y8974999D02*
D03*
X9500001D02*
D03*
X9400002D02*
D03*
X8794999Y8637499D02*
D03*
X8694999D02*
D03*
X9784999Y7610003D02*
D03*
X9884999D02*
D03*
X10000000Y7724999D02*
D03*
X10100000D02*
D03*
Y7875001D02*
D03*
X10000000D02*
D03*
D20*
X10400000Y6545499D02*
D03*
D21*
X10170998Y7204502D02*
D03*
X10400000D02*
D03*
X10629001D02*
D03*
D22*
X9505254Y8104480D02*
D03*
D23*
X9280256Y7764480D02*
D03*
X9330258D02*
D03*
X9380256D02*
D03*
X9430258D02*
D03*
X9680255D02*
D03*
X9730257D02*
D03*
X9780255D02*
D03*
Y8444479D02*
D03*
X9680255D02*
D03*
X9530258D02*
D03*
X9480255D02*
D03*
X9430258D02*
D03*
X9380256D02*
D03*
X9280256D02*
D03*
X9230258D02*
D03*
D24*
X9165255Y7979481D02*
D03*
Y8029478D02*
D03*
Y8079481D02*
D03*
Y8129478D02*
D03*
Y8179481D02*
D03*
Y8379480D02*
D03*
X9845253Y8079481D02*
D03*
Y7879481D02*
D03*
Y8179481D02*
D03*
Y8229478D02*
D03*
Y8279481D02*
D03*
Y8329478D02*
D03*
Y8379480D02*
D03*
D25*
X8874999Y8250001D02*
D03*
Y8399998D02*
D03*
D26*
X8472500Y8877498D02*
D03*
Y8977498D02*
D03*
X8465002Y9082502D02*
D03*
Y9182501D02*
D03*
X9174998Y8807501D02*
D03*
X9425000Y8850000D02*
D03*
Y8750000D02*
D03*
X9174998Y8907501D02*
D03*
X9000002Y8377499D02*
D03*
Y8277499D02*
D03*
X9010000Y7975001D02*
D03*
Y7875001D02*
D03*
X10000000Y8359999D02*
D03*
Y8459998D02*
D03*
X11150001Y7075002D02*
D03*
Y6974997D02*
D03*
Y6849999D02*
D03*
Y6749999D02*
D03*
D27*
X9515003Y7600000D02*
D03*
X9665000D02*
D03*
D28*
X8522503Y7587498D02*
D03*
X8752500D02*
D03*
Y7777500D02*
D03*
X8522503D02*
D03*
D29*
X8825001Y9000002D02*
D03*
D30*
X8699998Y8799998D02*
D03*
X8950000D02*
D03*
Y9200002D02*
D03*
D31*
X8627501Y8874999D02*
D03*
Y8925001D02*
D03*
Y8974999D02*
D03*
Y9025001D02*
D03*
Y9074998D02*
D03*
X9022502D02*
D03*
Y9125001D02*
D03*
Y8925001D02*
D03*
D32*
X10925002Y6760703D02*
D03*
Y6989303D02*
D03*
D34*
X11090001Y7369302D02*
D03*
Y7455703D02*
D03*
X11094999Y8841801D02*
D03*
Y8928202D02*
D03*
%TF.MD5,8266490c41e926cef80eaec30cc29ea2*%
M02*
