M48
;Layer_Color=9474304
;FILE_FORMAT=2:5
INCH,LZ
;TYPE=PLATED
T1F00S00C0.00787
T2F00S00C0.01000
T3F00S00C0.01200
T4F00S00C0.02756
T5F00S00C0.02800
T6F00S00C0.03504
T7F00S00C0.04331
;TYPE=NON_PLATED
T8F00S00C0.02559
%
T01
X0571256Y0354457
X0575587
X0579917
Y0358787
Y0363118
X0575587
Y0358787
X0571256
Y0363118
T02
X05605Y03805
T03
X0627Y0297
X0638
X0649
X0616
X0605
X0594
X0583
X0572
X0561
X055
X0539
X0528
X0517
X0506
X0495
X0484
X0473
X0462
Y0308
X04675
X0495Y0341
X0506
X0517
X05105Y03555
X0506Y0363
X05325Y036
X05295Y03755
X05215Y03795
X0540332Y0379826
X0551116Y0376694
X0556Y03785
X05605Y0375824
X05575Y03715
X0555755Y0363755
X0555128Y0358294
X0550324Y0359
Y03645
X05475Y0355
X05505Y0352
X055Y0348
X0551Y0344
X05505Y034
X0555Y03865
X0564663Y0381107
X0568855Y0379148
X05705Y0383
X0575Y03835
X0576826Y03795
X0583707Y0376793
X05865Y038
X0591Y03815
X0591337Y0377337
X0595Y03745
X0597Y0371
X0599Y0366
X0597974Y0361751
X06015Y03735
X06Y0382
X05835Y0383
X0584Y0417
X0587Y04205
X0583Y0429
X0572
Y0418
X05665
X0543613Y0417975
X0542797Y0413158
X0541213Y0407713
X0545711Y0421711
X0545Y04315
X0528Y0418
X05225
X0517
X049957Y0418687
X04995Y0423
Y0413
X04895Y0396
X0484
X0473
X05115
X0517
X0478Y04315
X06145Y04165
X0608Y04015
X0624Y03905
X0616Y0363
Y0352
X06215
X0609457Y0329257
X06025Y03355
X06395Y0332
X06425Y03385
X0649Y0341
X06535Y03485
X06375Y03475
X06305Y0355
X0629984Y03665
X06435Y0374
X0649
X06545
X0649Y0385
Y0407
X0654Y0404
X06545Y0418
X0649
Y0429
X063Y0397
X0628Y03865
X0649Y0363
X06545Y033
T04
X0564Y0423063
Y0430937
X05995
Y0423063
X0632Y0422563
Y0430437
T05
X0487Y03715
X0498778Y0371
T06
X0493626Y03495
X05015
T07
X0627Y0309
X0637
X0647
X0617
X0607
X0597
X0587
X0577
X0567
X0557
X0547
X0537
X0527
X0517
X0507
X0497
X0487
X0477
Y0319
X0487
X0497
X0507
X0517
X0527
X0537
X0547
X0557
X0567
X0577
X0587
X0597
X0607
X0617
X0627
X0637
X0647
T08
X0640232Y0364638
Y0387394
M30
