M48
;Layer_Color=9474304
;FILE_FORMAT=2:5
INCH,LZ
;TYPE=PLATED
T1F00S00C0.01400
T2F00S00C0.01575
T3F00S00C0.03150
T4F00S00C0.03543
T5F00S00C0.04764
T6F00S00C0.07000
;TYPE=NON_PLATED
T7F00S00C0.02559
T8F00S00C0.04528
%
T01
X00346Y0049583
X0041Y00685
X00148Y00867
X00798Y00177
X0109Y00195
Y0033152
X01398Y00465
X01435Y0062
X01495Y00095
X01615Y0062
T02
X0030976Y0085323
X0032551Y0088079
X0035701
X003885
X0037276Y0085323
X0040425
X0043575
X0046724
X004515Y0088079
X0048299
X0051449
X0053024Y0085323
X0118976Y0084823
X0120551Y0087579
X0123701
X012685
X0128425Y0084823
X0131575
X0134724
X0136299Y0087579
X0139449
X0141024Y0084823
X013315Y0087579
X0125276Y0084823
T03
X0171Y0019
Y0029
Y0039
T04
X0188Y0034
X0195874
T05
X00255Y00885
X0024323Y0104969
X0059677
X005826Y0087685
X01135Y0088
X0112323Y0104469
X0147677
X014626Y0087185
T06
X00055Y00065
X0005Y0107
X02105Y0106
X0211Y0007
T07
X0056173Y0082764
X0144173Y0082264
T08
X0027827Y0082764
X0115827Y0082264
M30
